<?xml version="1.0" encoding="utf-8" standalone="no"?>
<!DOCTYPE svg PUBLIC "-//W3C//DTD SVG 1.1//EN"
  "http://www.w3.org/Graphics/SVG/1.1/DTD/svg11.dtd">
<!-- Created with matplotlib (https://matplotlib.org/) -->
<svg height="504pt" version="1.1" viewBox="0 0 1080 504" width="1080pt" xmlns="http://www.w3.org/2000/svg" xmlns:xlink="http://www.w3.org/1999/xlink">
 <metadata>
  <rdf:RDF xmlns:cc="http://creativecommons.org/ns#" xmlns:dc="http://purl.org/dc/elements/1.1/" xmlns:rdf="http://www.w3.org/1999/02/22-rdf-syntax-ns#">
   <cc:Work>
    <dc:type rdf:resource="http://purl.org/dc/dcmitype/StillImage"/>
    <dc:date>2023-09-28T01:07:10.791917</dc:date>
    <dc:format>image/svg+xml</dc:format>
    <dc:creator>
     <cc:Agent>
      <dc:title>Matplotlib v3.3.4, https://matplotlib.org/</dc:title>
     </cc:Agent>
    </dc:creator>
   </cc:Work>
  </rdf:RDF>
 </metadata>
 <defs>
  <style type="text/css">*{stroke-linecap:butt;stroke-linejoin:round;}</style>
 </defs>
 <g id="figure_1">
  <g id="patch_1">
   <path d="M 0 504 
L 1080 504 
L 1080 0 
L 0 0 
z
" style="fill:#ffffff;"/>
  </g>
  <g id="axes_1">
   <g id="patch_2">
    <path d="M 156.912 383.268 
L 1038.528 383.268 
L 1038.528 75.192 
L 156.912 75.192 
z
" style="fill:#ffffff;"/>
   </g>
   <g id="matplotlib.axis_1">
    <g id="xtick_1">
     <g id="line2d_1">
      <path clip-path="url(#p85ac49ce6f)" d="M 196.985455 383.268 
L 196.985455 75.192 
" style="fill:none;stroke:#cccccc;stroke-linecap:round;stroke-width:0.8;"/>
     </g>
     <g id="text_1">
      <!-- 0 -->
      <g style="fill:#262626;" transform="translate(187.198205 416.7635)scale(0.352 -0.352)">
       <defs>
        <path d="M 4.15625 35.296875 
Q 4.15625 48 6.765625 55.734375 
Q 9.375 63.484375 14.515625 67.671875 
Q 19.671875 71.875 27.484375 71.875 
Q 33.25 71.875 37.59375 69.546875 
Q 41.9375 67.234375 44.765625 62.859375 
Q 47.609375 58.5 49.21875 52.21875 
Q 50.828125 45.953125 50.828125 35.296875 
Q 50.828125 22.703125 48.234375 14.96875 
Q 45.65625 7.234375 40.5 3 
Q 35.359375 -1.21875 27.484375 -1.21875 
Q 17.140625 -1.21875 11.234375 6.203125 
Q 4.15625 15.140625 4.15625 35.296875 
z
M 13.1875 35.296875 
Q 13.1875 17.671875 17.3125 11.828125 
Q 21.4375 6 27.484375 6 
Q 33.546875 6 37.671875 11.859375 
Q 41.796875 17.71875 41.796875 35.296875 
Q 41.796875 52.984375 37.671875 58.78125 
Q 33.546875 64.59375 27.390625 64.59375 
Q 21.34375 64.59375 17.71875 59.46875 
Q 13.1875 52.9375 13.1875 35.296875 
z
" id="ArialMT-48"/>
       </defs>
       <use xlink:href="#ArialMT-48"/>
      </g>
     </g>
    </g>
    <g id="xtick_2">
     <g id="line2d_2">
      <path clip-path="url(#p85ac49ce6f)" d="M 358.898402 383.268 
L 358.898402 75.192 
" style="fill:none;stroke:#cccccc;stroke-linecap:round;stroke-width:0.8;"/>
     </g>
     <g id="text_2">
      <!-- 20 -->
      <g style="fill:#262626;" transform="translate(339.323902 416.7635)scale(0.352 -0.352)">
       <defs>
        <path d="M 50.34375 8.453125 
L 50.34375 0 
L 3.03125 0 
Q 2.9375 3.171875 4.046875 6.109375 
Q 5.859375 10.9375 9.828125 15.625 
Q 13.8125 20.3125 21.34375 26.46875 
Q 33.015625 36.03125 37.109375 41.625 
Q 41.21875 47.21875 41.21875 52.203125 
Q 41.21875 57.421875 37.46875 61 
Q 33.734375 64.59375 27.734375 64.59375 
Q 21.390625 64.59375 17.578125 60.78125 
Q 13.765625 56.984375 13.71875 50.25 
L 4.6875 51.171875 
Q 5.609375 61.28125 11.65625 66.578125 
Q 17.71875 71.875 27.9375 71.875 
Q 38.234375 71.875 44.234375 66.15625 
Q 50.25 60.453125 50.25 52 
Q 50.25 47.703125 48.484375 43.546875 
Q 46.734375 39.40625 42.65625 34.8125 
Q 38.578125 30.21875 29.109375 22.21875 
Q 21.1875 15.578125 18.9375 13.203125 
Q 16.703125 10.84375 15.234375 8.453125 
z
" id="ArialMT-50"/>
       </defs>
       <use xlink:href="#ArialMT-50"/>
       <use x="55.615234" xlink:href="#ArialMT-48"/>
      </g>
     </g>
    </g>
    <g id="xtick_3">
     <g id="line2d_3">
      <path clip-path="url(#p85ac49ce6f)" d="M 520.81135 383.268 
L 520.81135 75.192 
" style="fill:none;stroke:#cccccc;stroke-linecap:round;stroke-width:0.8;"/>
     </g>
     <g id="text_3">
      <!-- 40 -->
      <g style="fill:#262626;" transform="translate(501.23685 416.7635)scale(0.352 -0.352)">
       <defs>
        <path d="M 32.328125 0 
L 32.328125 17.140625 
L 1.265625 17.140625 
L 1.265625 25.203125 
L 33.9375 71.578125 
L 41.109375 71.578125 
L 41.109375 25.203125 
L 50.78125 25.203125 
L 50.78125 17.140625 
L 41.109375 17.140625 
L 41.109375 0 
z
M 32.328125 25.203125 
L 32.328125 57.46875 
L 9.90625 25.203125 
z
" id="ArialMT-52"/>
       </defs>
       <use xlink:href="#ArialMT-52"/>
       <use x="55.615234" xlink:href="#ArialMT-48"/>
      </g>
     </g>
    </g>
    <g id="xtick_4">
     <g id="line2d_4">
      <path clip-path="url(#p85ac49ce6f)" d="M 682.724298 383.268 
L 682.724298 75.192 
" style="fill:none;stroke:#cccccc;stroke-linecap:round;stroke-width:0.8;"/>
     </g>
     <g id="text_4">
      <!-- 60 -->
      <g style="fill:#262626;" transform="translate(663.149798 416.7635)scale(0.352 -0.352)">
       <defs>
        <path d="M 49.75 54.046875 
L 41.015625 53.375 
Q 39.84375 58.546875 37.703125 60.890625 
Q 34.125 64.65625 28.90625 64.65625 
Q 24.703125 64.65625 21.53125 62.3125 
Q 17.390625 59.28125 14.984375 53.46875 
Q 12.59375 47.65625 12.5 36.921875 
Q 15.671875 41.75 20.265625 44.09375 
Q 24.859375 46.4375 29.890625 46.4375 
Q 38.671875 46.4375 44.84375 39.96875 
Q 51.03125 33.5 51.03125 23.25 
Q 51.03125 16.5 48.125 10.71875 
Q 45.21875 4.9375 40.140625 1.859375 
Q 35.0625 -1.21875 28.609375 -1.21875 
Q 17.625 -1.21875 10.6875 6.859375 
Q 3.765625 14.9375 3.765625 33.5 
Q 3.765625 54.25 11.421875 63.671875 
Q 18.109375 71.875 29.4375 71.875 
Q 37.890625 71.875 43.28125 67.140625 
Q 48.6875 62.40625 49.75 54.046875 
z
M 13.875 23.1875 
Q 13.875 18.65625 15.796875 14.5 
Q 17.71875 10.359375 21.1875 8.171875 
Q 24.65625 6 28.46875 6 
Q 34.03125 6 38.03125 10.484375 
Q 42.046875 14.984375 42.046875 22.703125 
Q 42.046875 30.125 38.078125 34.390625 
Q 34.125 38.671875 28.125 38.671875 
Q 22.171875 38.671875 18.015625 34.390625 
Q 13.875 30.125 13.875 23.1875 
z
" id="ArialMT-54"/>
       </defs>
       <use xlink:href="#ArialMT-54"/>
       <use x="55.615234" xlink:href="#ArialMT-48"/>
      </g>
     </g>
    </g>
    <g id="xtick_5">
     <g id="line2d_5">
      <path clip-path="url(#p85ac49ce6f)" d="M 844.637245 383.268 
L 844.637245 75.192 
" style="fill:none;stroke:#cccccc;stroke-linecap:round;stroke-width:0.8;"/>
     </g>
     <g id="text_5">
      <!-- 80 -->
      <g style="fill:#262626;" transform="translate(825.062745 416.7635)scale(0.352 -0.352)">
       <defs>
        <path d="M 17.671875 38.8125 
Q 12.203125 40.828125 9.5625 44.53125 
Q 6.9375 48.25 6.9375 53.421875 
Q 6.9375 61.234375 12.546875 66.546875 
Q 18.171875 71.875 27.484375 71.875 
Q 36.859375 71.875 42.578125 66.421875 
Q 48.296875 60.984375 48.296875 53.171875 
Q 48.296875 48.1875 45.671875 44.5 
Q 43.0625 40.828125 37.75 38.8125 
Q 44.34375 36.671875 47.78125 31.875 
Q 51.21875 27.09375 51.21875 20.453125 
Q 51.21875 11.28125 44.71875 5.03125 
Q 38.234375 -1.21875 27.640625 -1.21875 
Q 17.046875 -1.21875 10.546875 5.046875 
Q 4.046875 11.328125 4.046875 20.703125 
Q 4.046875 27.6875 7.59375 32.390625 
Q 11.140625 37.109375 17.671875 38.8125 
z
M 15.921875 53.71875 
Q 15.921875 48.640625 19.1875 45.40625 
Q 22.46875 42.1875 27.6875 42.1875 
Q 32.765625 42.1875 36.015625 45.375 
Q 39.265625 48.578125 39.265625 53.21875 
Q 39.265625 58.0625 35.90625 61.359375 
Q 32.5625 64.65625 27.59375 64.65625 
Q 22.5625 64.65625 19.234375 61.421875 
Q 15.921875 58.203125 15.921875 53.71875 
z
M 13.09375 20.65625 
Q 13.09375 16.890625 14.875 13.375 
Q 16.65625 9.859375 20.171875 7.921875 
Q 23.6875 6 27.734375 6 
Q 34.03125 6 38.125 10.046875 
Q 42.234375 14.109375 42.234375 20.359375 
Q 42.234375 26.703125 38.015625 30.859375 
Q 33.796875 35.015625 27.4375 35.015625 
Q 21.234375 35.015625 17.15625 30.90625 
Q 13.09375 26.8125 13.09375 20.65625 
z
" id="ArialMT-56"/>
       </defs>
       <use xlink:href="#ArialMT-56"/>
       <use x="55.615234" xlink:href="#ArialMT-48"/>
      </g>
     </g>
    </g>
    <g id="xtick_6">
     <g id="line2d_6">
      <path clip-path="url(#p85ac49ce6f)" d="M 1006.550193 383.268 
L 1006.550193 75.192 
" style="fill:none;stroke:#cccccc;stroke-linecap:round;stroke-width:0.8;"/>
     </g>
     <g id="text_6">
      <!-- 100 -->
      <g style="fill:#262626;" transform="translate(977.188443 416.7635)scale(0.352 -0.352)">
       <defs>
        <path d="M 37.25 0 
L 28.46875 0 
L 28.46875 56 
Q 25.296875 52.984375 20.140625 49.953125 
Q 14.984375 46.921875 10.890625 45.40625 
L 10.890625 53.90625 
Q 18.265625 57.375 23.78125 62.296875 
Q 29.296875 67.234375 31.59375 71.875 
L 37.25 71.875 
z
" id="ArialMT-49"/>
       </defs>
       <use xlink:href="#ArialMT-49"/>
       <use x="55.615234" xlink:href="#ArialMT-48"/>
       <use x="111.230469" xlink:href="#ArialMT-48"/>
      </g>
     </g>
    </g>
    <g id="text_7">
     <!-- epoch -->
     <g style="fill:#262626;" transform="translate(545.412 455.2455)scale(0.384 -0.384)">
      <defs>
       <path d="M 42.09375 16.703125 
L 51.171875 15.578125 
Q 49.03125 7.625 43.21875 3.21875 
Q 37.40625 -1.171875 28.375 -1.171875 
Q 17 -1.171875 10.328125 5.828125 
Q 3.65625 12.84375 3.65625 25.484375 
Q 3.65625 38.578125 10.390625 45.796875 
Q 17.140625 53.03125 27.875 53.03125 
Q 38.28125 53.03125 44.875 45.953125 
Q 51.46875 38.875 51.46875 26.03125 
Q 51.46875 25.25 51.421875 23.6875 
L 12.75 23.6875 
Q 13.234375 15.140625 17.578125 10.59375 
Q 21.921875 6.0625 28.421875 6.0625 
Q 33.25 6.0625 36.671875 8.59375 
Q 40.09375 11.140625 42.09375 16.703125 
z
M 13.234375 30.90625 
L 42.1875 30.90625 
Q 41.609375 37.453125 38.875 40.71875 
Q 34.671875 45.796875 27.984375 45.796875 
Q 21.921875 45.796875 17.796875 41.75 
Q 13.671875 37.703125 13.234375 30.90625 
z
" id="ArialMT-101"/>
       <path d="M 6.59375 -19.875 
L 6.59375 51.859375 
L 14.59375 51.859375 
L 14.59375 45.125 
Q 17.4375 49.078125 21 51.046875 
Q 24.5625 53.03125 29.640625 53.03125 
Q 36.28125 53.03125 41.359375 49.609375 
Q 46.4375 46.1875 49.015625 39.953125 
Q 51.609375 33.734375 51.609375 26.3125 
Q 51.609375 18.359375 48.75 11.984375 
Q 45.90625 5.609375 40.453125 2.21875 
Q 35.015625 -1.171875 29 -1.171875 
Q 24.609375 -1.171875 21.109375 0.6875 
Q 17.625 2.546875 15.375 5.375 
L 15.375 -19.875 
z
M 14.546875 25.640625 
Q 14.546875 15.625 18.59375 10.84375 
Q 22.65625 6.0625 28.421875 6.0625 
Q 34.28125 6.0625 38.453125 11.015625 
Q 42.625 15.96875 42.625 26.375 
Q 42.625 36.28125 38.546875 41.203125 
Q 34.46875 46.140625 28.8125 46.140625 
Q 23.1875 46.140625 18.859375 40.890625 
Q 14.546875 35.640625 14.546875 25.640625 
z
" id="ArialMT-112"/>
       <path d="M 3.328125 25.921875 
Q 3.328125 40.328125 11.328125 47.265625 
Q 18.015625 53.03125 27.640625 53.03125 
Q 38.328125 53.03125 45.109375 46.015625 
Q 51.90625 39.015625 51.90625 26.65625 
Q 51.90625 16.65625 48.90625 10.90625 
Q 45.90625 5.171875 40.15625 2 
Q 34.421875 -1.171875 27.640625 -1.171875 
Q 16.75 -1.171875 10.03125 5.8125 
Q 3.328125 12.796875 3.328125 25.921875 
z
M 12.359375 25.921875 
Q 12.359375 15.96875 16.703125 11.015625 
Q 21.046875 6.0625 27.640625 6.0625 
Q 34.1875 6.0625 38.53125 11.03125 
Q 42.875 16.015625 42.875 26.21875 
Q 42.875 35.84375 38.5 40.796875 
Q 34.125 45.75 27.640625 45.75 
Q 21.046875 45.75 16.703125 40.8125 
Q 12.359375 35.890625 12.359375 25.921875 
z
" id="ArialMT-111"/>
       <path d="M 40.4375 19 
L 49.078125 17.875 
Q 47.65625 8.9375 41.8125 3.875 
Q 35.984375 -1.171875 27.484375 -1.171875 
Q 16.84375 -1.171875 10.375 5.78125 
Q 3.90625 12.75 3.90625 25.734375 
Q 3.90625 34.125 6.6875 40.421875 
Q 9.46875 46.734375 15.15625 49.875 
Q 20.84375 53.03125 27.546875 53.03125 
Q 35.984375 53.03125 41.359375 48.75 
Q 46.734375 44.484375 48.25 36.625 
L 39.703125 35.296875 
Q 38.484375 40.53125 35.375 43.15625 
Q 32.28125 45.796875 27.875 45.796875 
Q 21.234375 45.796875 17.078125 41.03125 
Q 12.9375 36.28125 12.9375 25.984375 
Q 12.9375 15.53125 16.9375 10.796875 
Q 20.953125 6.0625 27.390625 6.0625 
Q 32.5625 6.0625 36.03125 9.234375 
Q 39.5 12.40625 40.4375 19 
z
" id="ArialMT-99"/>
       <path d="M 6.59375 0 
L 6.59375 71.578125 
L 15.375 71.578125 
L 15.375 45.90625 
Q 21.53125 53.03125 30.90625 53.03125 
Q 36.671875 53.03125 40.921875 50.75 
Q 45.171875 48.484375 47 44.484375 
Q 48.828125 40.484375 48.828125 32.859375 
L 48.828125 0 
L 40.046875 0 
L 40.046875 32.859375 
Q 40.046875 39.453125 37.1875 42.453125 
Q 34.328125 45.453125 29.109375 45.453125 
Q 25.203125 45.453125 21.75 43.421875 
Q 18.3125 41.40625 16.84375 37.9375 
Q 15.375 34.46875 15.375 28.375 
L 15.375 0 
z
" id="ArialMT-104"/>
      </defs>
      <use xlink:href="#ArialMT-101"/>
      <use x="55.615234" xlink:href="#ArialMT-112"/>
      <use x="111.230469" xlink:href="#ArialMT-111"/>
      <use x="166.845703" xlink:href="#ArialMT-99"/>
      <use x="216.845703" xlink:href="#ArialMT-104"/>
     </g>
    </g>
   </g>
   <g id="matplotlib.axis_2">
    <g id="ytick_1">
     <g id="line2d_7">
      <path clip-path="url(#p85ac49ce6f)" d="M 156.912 280.464668 
L 1038.528 280.464668 
" style="fill:none;stroke:#cccccc;stroke-linecap:round;stroke-width:0.8;"/>
     </g>
     <g id="text_8">
      <!-- 25 -->
      <g style="fill:#262626;" transform="translate(109.463 293.062418)scale(0.352 -0.352)">
       <defs>
        <path d="M 4.15625 18.75 
L 13.375 19.53125 
Q 14.40625 12.796875 18.140625 9.390625 
Q 21.875 6 27.15625 6 
Q 33.5 6 37.890625 10.78125 
Q 42.28125 15.578125 42.28125 23.484375 
Q 42.28125 31 38.0625 35.34375 
Q 33.84375 39.703125 27 39.703125 
Q 22.75 39.703125 19.328125 37.765625 
Q 15.921875 35.84375 13.96875 32.765625 
L 5.71875 33.84375 
L 12.640625 70.609375 
L 48.25 70.609375 
L 48.25 62.203125 
L 19.671875 62.203125 
L 15.828125 42.96875 
Q 22.265625 47.46875 29.34375 47.46875 
Q 38.71875 47.46875 45.15625 40.96875 
Q 51.609375 34.46875 51.609375 24.265625 
Q 51.609375 14.546875 45.953125 7.46875 
Q 39.0625 -1.21875 27.15625 -1.21875 
Q 17.390625 -1.21875 11.203125 4.25 
Q 5.03125 9.71875 4.15625 18.75 
z
" id="ArialMT-53"/>
       </defs>
       <use xlink:href="#ArialMT-50"/>
       <use x="55.615234" xlink:href="#ArialMT-53"/>
      </g>
     </g>
    </g>
    <g id="ytick_2">
     <g id="line2d_8">
      <path clip-path="url(#p85ac49ce6f)" d="M 156.912 155.422431 
L 1038.528 155.422431 
" style="fill:none;stroke:#cccccc;stroke-linecap:round;stroke-width:0.8;"/>
     </g>
     <g id="text_9">
      <!-- 30 -->
      <g style="fill:#262626;" transform="translate(109.463 168.020181)scale(0.352 -0.352)">
       <defs>
        <path d="M 4.203125 18.890625 
L 12.984375 20.0625 
Q 14.5 12.59375 18.140625 9.296875 
Q 21.78125 6 27 6 
Q 33.203125 6 37.46875 10.296875 
Q 41.75 14.59375 41.75 20.953125 
Q 41.75 27 37.796875 30.921875 
Q 33.84375 34.859375 27.734375 34.859375 
Q 25.25 34.859375 21.53125 33.890625 
L 22.515625 41.609375 
Q 23.390625 41.5 23.921875 41.5 
Q 29.546875 41.5 34.03125 44.421875 
Q 38.53125 47.359375 38.53125 53.46875 
Q 38.53125 58.296875 35.25 61.46875 
Q 31.984375 64.65625 26.8125 64.65625 
Q 21.6875 64.65625 18.265625 61.421875 
Q 14.84375 58.203125 13.875 51.765625 
L 5.078125 53.328125 
Q 6.6875 62.15625 12.390625 67.015625 
Q 18.109375 71.875 26.609375 71.875 
Q 32.46875 71.875 37.390625 69.359375 
Q 42.328125 66.84375 44.9375 62.5 
Q 47.5625 58.15625 47.5625 53.265625 
Q 47.5625 48.640625 45.0625 44.828125 
Q 42.578125 41.015625 37.703125 38.765625 
Q 44.046875 37.3125 47.5625 32.6875 
Q 51.078125 28.078125 51.078125 21.140625 
Q 51.078125 11.765625 44.234375 5.25 
Q 37.40625 -1.265625 26.953125 -1.265625 
Q 17.53125 -1.265625 11.296875 4.34375 
Q 5.078125 9.96875 4.203125 18.890625 
z
" id="ArialMT-51"/>
       </defs>
       <use xlink:href="#ArialMT-51"/>
       <use x="55.615234" xlink:href="#ArialMT-48"/>
      </g>
     </g>
    </g>
    <g id="text_10">
     <!-- Validation TMCC -->
     <g style="fill:#262626;" transform="translate(97.831 372.588)rotate(-90)scale(0.384 -0.384)">
      <defs>
       <path d="M 28.171875 0 
L 0.4375 71.578125 
L 10.6875 71.578125 
L 29.296875 19.578125 
Q 31.546875 13.328125 33.0625 7.859375 
Q 34.71875 13.71875 36.921875 19.578125 
L 56.25 71.578125 
L 65.921875 71.578125 
L 37.890625 0 
z
" id="ArialMT-86"/>
       <path d="M 40.4375 6.390625 
Q 35.546875 2.25 31.03125 0.53125 
Q 26.515625 -1.171875 21.34375 -1.171875 
Q 12.796875 -1.171875 8.203125 3 
Q 3.609375 7.171875 3.609375 13.671875 
Q 3.609375 17.484375 5.34375 20.625 
Q 7.078125 23.78125 9.890625 25.6875 
Q 12.703125 27.59375 16.21875 28.5625 
Q 18.796875 29.25 24.03125 29.890625 
Q 34.671875 31.15625 39.703125 32.90625 
Q 39.75 34.71875 39.75 35.203125 
Q 39.75 40.578125 37.25 42.78125 
Q 33.890625 45.75 27.25 45.75 
Q 21.046875 45.75 18.09375 43.578125 
Q 15.140625 41.40625 13.71875 35.890625 
L 5.125 37.0625 
Q 6.296875 42.578125 8.984375 45.96875 
Q 11.671875 49.359375 16.75 51.1875 
Q 21.828125 53.03125 28.515625 53.03125 
Q 35.15625 53.03125 39.296875 51.46875 
Q 43.453125 49.90625 45.40625 47.53125 
Q 47.359375 45.171875 48.140625 41.546875 
Q 48.578125 39.3125 48.578125 33.453125 
L 48.578125 21.734375 
Q 48.578125 9.46875 49.140625 6.21875 
Q 49.703125 2.984375 51.375 0 
L 42.1875 0 
Q 40.828125 2.734375 40.4375 6.390625 
z
M 39.703125 26.03125 
Q 34.90625 24.078125 25.34375 22.703125 
Q 19.921875 21.921875 17.671875 20.9375 
Q 15.4375 19.96875 14.203125 18.09375 
Q 12.984375 16.21875 12.984375 13.921875 
Q 12.984375 10.40625 15.640625 8.0625 
Q 18.3125 5.71875 23.4375 5.71875 
Q 28.515625 5.71875 32.46875 7.9375 
Q 36.421875 10.15625 38.28125 14.015625 
Q 39.703125 17 39.703125 22.796875 
z
" id="ArialMT-97"/>
       <path d="M 6.390625 0 
L 6.390625 71.578125 
L 15.1875 71.578125 
L 15.1875 0 
z
" id="ArialMT-108"/>
       <path d="M 6.640625 61.46875 
L 6.640625 71.578125 
L 15.4375 71.578125 
L 15.4375 61.46875 
z
M 6.640625 0 
L 6.640625 51.859375 
L 15.4375 51.859375 
L 15.4375 0 
z
" id="ArialMT-105"/>
       <path d="M 40.234375 0 
L 40.234375 6.546875 
Q 35.296875 -1.171875 25.734375 -1.171875 
Q 19.53125 -1.171875 14.328125 2.25 
Q 9.125 5.671875 6.265625 11.796875 
Q 3.421875 17.921875 3.421875 25.875 
Q 3.421875 33.640625 6 39.96875 
Q 8.59375 46.296875 13.765625 49.65625 
Q 18.953125 53.03125 25.34375 53.03125 
Q 30.03125 53.03125 33.6875 51.046875 
Q 37.359375 49.078125 39.65625 45.90625 
L 39.65625 71.578125 
L 48.390625 71.578125 
L 48.390625 0 
z
M 12.453125 25.875 
Q 12.453125 15.921875 16.640625 10.984375 
Q 20.84375 6.0625 26.5625 6.0625 
Q 32.328125 6.0625 36.34375 10.765625 
Q 40.375 15.484375 40.375 25.140625 
Q 40.375 35.796875 36.265625 40.765625 
Q 32.171875 45.75 26.171875 45.75 
Q 20.3125 45.75 16.375 40.96875 
Q 12.453125 36.1875 12.453125 25.875 
z
" id="ArialMT-100"/>
       <path d="M 25.78125 7.859375 
L 27.046875 0.09375 
Q 23.34375 -0.6875 20.40625 -0.6875 
Q 15.625 -0.6875 12.984375 0.828125 
Q 10.359375 2.34375 9.28125 4.8125 
Q 8.203125 7.28125 8.203125 15.1875 
L 8.203125 45.015625 
L 1.765625 45.015625 
L 1.765625 51.859375 
L 8.203125 51.859375 
L 8.203125 64.703125 
L 16.9375 69.96875 
L 16.9375 51.859375 
L 25.78125 51.859375 
L 25.78125 45.015625 
L 16.9375 45.015625 
L 16.9375 14.703125 
Q 16.9375 10.9375 17.40625 9.859375 
Q 17.875 8.796875 18.921875 8.15625 
Q 19.96875 7.515625 21.921875 7.515625 
Q 23.390625 7.515625 25.78125 7.859375 
z
" id="ArialMT-116"/>
       <path d="M 6.59375 0 
L 6.59375 51.859375 
L 14.5 51.859375 
L 14.5 44.484375 
Q 20.21875 53.03125 31 53.03125 
Q 35.6875 53.03125 39.625 51.34375 
Q 43.5625 49.65625 45.515625 46.921875 
Q 47.46875 44.1875 48.25 40.4375 
Q 48.734375 37.984375 48.734375 31.890625 
L 48.734375 0 
L 39.9375 0 
L 39.9375 31.546875 
Q 39.9375 36.921875 38.90625 39.578125 
Q 37.890625 42.234375 35.28125 43.8125 
Q 32.671875 45.40625 29.15625 45.40625 
Q 23.53125 45.40625 19.453125 41.84375 
Q 15.375 38.28125 15.375 28.328125 
L 15.375 0 
z
" id="ArialMT-110"/>
       <path id="ArialMT-32"/>
       <path d="M 25.921875 0 
L 25.921875 63.140625 
L 2.34375 63.140625 
L 2.34375 71.578125 
L 59.078125 71.578125 
L 59.078125 63.140625 
L 35.40625 63.140625 
L 35.40625 0 
z
" id="ArialMT-84"/>
       <path d="M 7.421875 0 
L 7.421875 71.578125 
L 21.6875 71.578125 
L 38.625 20.90625 
Q 40.96875 13.8125 42.046875 10.296875 
Q 43.265625 14.203125 45.84375 21.78125 
L 62.984375 71.578125 
L 75.734375 71.578125 
L 75.734375 0 
L 66.609375 0 
L 66.609375 59.90625 
L 45.796875 0 
L 37.25 0 
L 16.546875 60.9375 
L 16.546875 0 
z
" id="ArialMT-77"/>
       <path d="M 58.796875 25.09375 
L 68.265625 22.703125 
Q 65.28125 11.03125 57.546875 4.90625 
Q 49.8125 -1.21875 38.625 -1.21875 
Q 27.046875 -1.21875 19.796875 3.484375 
Q 12.546875 8.203125 8.765625 17.140625 
Q 4.984375 26.078125 4.984375 36.328125 
Q 4.984375 47.515625 9.25 55.828125 
Q 13.53125 64.15625 21.40625 68.46875 
Q 29.296875 72.796875 38.765625 72.796875 
Q 49.515625 72.796875 56.828125 67.328125 
Q 64.15625 61.859375 67.046875 51.953125 
L 57.71875 49.75 
Q 55.21875 57.5625 50.484375 61.125 
Q 45.75 64.703125 38.578125 64.703125 
Q 30.328125 64.703125 24.78125 60.734375 
Q 19.234375 56.78125 16.984375 50.109375 
Q 14.75 43.453125 14.75 36.375 
Q 14.75 27.25 17.40625 20.4375 
Q 20.0625 13.625 25.671875 10.25 
Q 31.296875 6.890625 37.84375 6.890625 
Q 45.796875 6.890625 51.3125 11.46875 
Q 56.84375 16.0625 58.796875 25.09375 
z
" id="ArialMT-67"/>
      </defs>
      <use xlink:href="#ArialMT-86"/>
      <use x="59.324219" xlink:href="#ArialMT-97"/>
      <use x="114.939453" xlink:href="#ArialMT-108"/>
      <use x="137.15625" xlink:href="#ArialMT-105"/>
      <use x="159.373047" xlink:href="#ArialMT-100"/>
      <use x="214.988281" xlink:href="#ArialMT-97"/>
      <use x="270.603516" xlink:href="#ArialMT-116"/>
      <use x="298.386719" xlink:href="#ArialMT-105"/>
      <use x="320.603516" xlink:href="#ArialMT-111"/>
      <use x="376.21875" xlink:href="#ArialMT-110"/>
      <use x="431.833984" xlink:href="#ArialMT-32"/>
      <use x="457.867188" xlink:href="#ArialMT-84"/>
      <use x="518.951172" xlink:href="#ArialMT-77"/>
      <use x="602.251953" xlink:href="#ArialMT-67"/>
      <use x="674.46875" xlink:href="#ArialMT-67"/>
     </g>
    </g>
   </g>
   <g id="PolyCollection_1"/>
   <g id="PolyCollection_2"/>
   <g id="PolyCollection_3"/>
   <g id="PolyCollection_4"/>
   <g id="PolyCollection_5"/>
   <g id="PolyCollection_6"/>
   <g id="line2d_9">
    <path clip-path="url(#p85ac49ce6f)" d="M 196.985455 352.772313 
L 205.081102 344.481091 
L 213.176749 329.653814 
L 221.272397 316.200834 
L 229.368044 302.358171 
L 237.463691 289.016281 
L 245.559339 277.069068 
L 253.654986 267.046127 
L 261.750634 258.080719 
L 269.846281 250.926071 
L 277.941928 243.778297 
L 286.037576 237.751262 
L 294.133223 232.628131 
L 302.228871 227.389987 
L 310.324518 222.511457 
L 318.420165 218.549107 
L 326.515813 214.581483 
L 334.61146 210.929571 
L 342.707107 207.42568 
L 350.802755 204.348317 
L 358.898402 201.074863 
L 366.99405 197.803705 
L 375.089697 194.543865 
L 383.185344 191.587099 
L 391.280992 189.0066 
L 399.376639 186.597093 
L 407.472287 184.008285 
L 415.567934 181.706716 
L 423.663581 179.305774 
L 431.759229 177.183931 
L 439.854876 174.757243 
L 447.950523 172.675998 
L 456.046171 170.562062 
L 464.141818 168.393341 
L 472.237466 166.257496 
L 480.333113 164.180896 
L 488.42876 161.973274 
L 496.524408 159.928209 
L 504.620055 157.958399 
L 512.715702 156.048521 
L 520.81135 154.226637 
L 528.906997 152.416959 
L 537.002645 150.765294 
L 545.098292 149.012323 
L 553.193939 147.331321 
L 561.289587 145.677927 
L 569.385234 144.039292 
L 577.480882 142.238691 
L 585.576529 140.656875 
L 593.672176 139.03964 
L 601.767824 137.51181 
L 609.863471 135.977051 
L 617.959118 134.641209 
L 626.054766 133.147213 
L 634.150413 131.843187 
L 642.246061 130.432171 
L 650.341708 129.282136 
L 658.437355 128.047985 
L 666.533003 127.05459 
L 674.62865 125.861703 
L 682.724298 124.678074 
L 690.819945 123.487526 
L 698.915592 122.426514 
L 707.01124 121.461579 
L 715.106887 120.492169 
L 723.202534 119.490432 
L 731.298182 118.462336 
L 739.393829 117.47884 
L 747.489477 116.525144 
L 755.585124 115.624277 
L 763.680771 114.872656 
L 771.776419 113.96373 
L 779.872066 113.045983 
L 787.967713 112.49994 
L 796.063361 111.511444 
L 804.159008 110.853215 
L 812.254656 110.141 
L 820.350303 109.516354 
L 828.44595 108.757098 
L 836.541598 108.222294 
L 844.637245 107.460317 
L 852.732893 106.885898 
L 860.82854 106.164947 
L 868.924187 105.721839 
L 877.019835 105.100111 
L 885.115482 104.576989 
L 893.211129 104.045094 
L 901.306777 103.600624 
L 909.402424 103.055622 
L 917.498072 102.612795 
L 925.593719 102.142243 
L 933.689366 101.723055 
L 941.785014 101.429357 
L 949.880661 100.939673 
L 957.976309 100.546075 
L 966.071956 100.13521 
L 974.167603 99.737485 
L 982.263251 99.444144 
L 990.358898 98.967635 
L 998.454545 98.554592 
" style="fill:none;stroke:#0173b2;stroke-linecap:round;stroke-width:2.5;"/>
   </g>
   <g id="line2d_10">
    <path clip-path="url(#p85ac49ce6f)" d="M 196.985455 348.747258 
L 205.081102 341.543223 
L 213.176749 332.111811 
L 221.272397 318.727936 
L 229.368044 306.729024 
L 237.463691 296.948746 
L 245.559339 287.418981 
L 253.654986 281.567799 
L 261.750634 273.159218 
L 269.846281 265.805878 
L 277.941928 259.278085 
L 286.037576 252.84616 
L 294.133223 247.157764 
L 302.228871 239.888852 
L 310.324518 234.090293 
L 318.420165 228.539249 
L 326.515813 223.301307 
L 334.61146 218.316497 
L 342.707107 213.79961 
L 350.802755 209.172275 
L 358.898402 204.57886 
L 366.99405 200.444985 
L 375.089697 196.462225 
L 383.185344 192.813977 
L 391.280992 188.259931 
L 399.376639 183.915097 
L 407.472287 180.056822 
L 415.567934 176.079558 
L 423.663581 172.398537 
L 431.759229 168.804786 
L 439.854876 165.283195 
L 447.950523 162.085412 
L 456.046171 158.674197 
L 464.141818 155.837139 
L 472.237466 152.979613 
L 480.333113 150.409357 
L 488.42876 148.295904 
L 496.524408 145.394117 
L 504.620055 142.915755 
L 512.715702 140.199198 
L 520.81135 137.682918 
L 528.906997 135.050101 
L 537.002645 133.229054 
L 545.098292 130.877734 
L 553.193939 129.080546 
L 561.289587 126.780571 
L 569.385234 126.265006 
L 577.480882 123.530865 
L 585.576529 122.450636 
L 593.672176 120.78381 
L 601.767824 119.544133 
L 609.863471 117.935375 
L 617.959118 116.758452 
L 626.054766 115.402685 
L 634.150413 113.586005 
L 642.246061 112.379131 
L 650.341708 110.985953 
L 658.437355 110.126885 
L 666.533003 109.246898 
L 674.62865 108.513192 
L 682.724298 107.746199 
L 690.819945 106.761328 
L 698.915592 105.813851 
L 707.01124 104.579884 
L 715.106887 103.69096 
L 723.202534 102.751499 
L 731.298182 102.519869 
L 739.393829 102.429168 
L 747.489477 101.131846 
L 755.585124 100.167537 
L 763.680771 99.732833 
L 771.776419 98.937347 
L 779.872066 98.604506 
L 787.967713 97.912706 
L 796.063361 97.4435 
L 804.159008 96.597795 
L 812.254656 97.668437 
L 820.350303 96.073326 
L 828.44595 95.539836 
L 836.541598 94.941151 
L 844.637245 94.630165 
L 852.732893 94.589128 
L 860.82854 94.372286 
L 868.924187 94.020138 
L 877.019835 94.10843 
L 885.115482 93.424837 
L 893.211129 93.436528 
L 901.306777 93.156707 
L 909.402424 92.9696 
L 917.498072 92.103407 
L 925.593719 91.574302 
L 933.689366 91.496456 
L 941.785014 91.381199 
L 949.880661 91.067598 
L 957.976309 91.145128 
L 966.071956 90.46388 
L 974.167603 89.924505 
L 982.263251 89.488309 
L 990.358898 89.415779 
L 998.454545 89.195455 
" style="fill:none;stroke:#0173b2;stroke-dasharray:10,3.75;stroke-dashoffset:0;stroke-width:2.5;"/>
   </g>
   <g id="line2d_11">
    <path clip-path="url(#p85ac49ce6f)" d="M 196.985455 369.264545 
L 205.081102 367.586491 
L 213.176749 366.780372 
L 221.272397 365.548173 
L 229.368044 365.07232 
L 237.463691 364.500573 
L 245.559339 363.880281 
L 253.654986 362.463321 
L 261.750634 362.67441 
L 269.846281 362.140324 
L 277.941928 361.862928 
L 286.037576 361.733905 
L 294.133223 360.801913 
L 302.228871 360.796028 
L 310.324518 360.771312 
L 318.420165 360.189602 
L 326.515813 360.63338 
L 334.61146 360.46208 
L 342.707107 360.305654 
L 350.802755 360.526022 
L 358.898402 360.503433 
L 366.99405 360.76491 
L 375.089697 360.470809 
L 383.185344 360.892379 
L 391.280992 359.800296 
L 399.376639 359.839675 
L 407.472287 358.945963 
L 415.567934 358.967372 
L 423.663581 358.905215 
L 431.759229 359.274377 
L 439.854876 359.121763 
L 447.950523 360.53441 
L 456.046171 360.74119 
L 464.141818 359.846785 
L 472.237466 359.821587 
L 480.333113 359.90321 
L 488.42876 360.073736 
L 496.524408 360.030696 
L 504.620055 360.058031 
L 512.715702 360.276357 
L 520.81135 360.298626 
L 528.906997 360.212796 
L 537.002645 360.143248 
L 545.098292 360.01877 
L 553.193939 360.387001 
L 561.289587 360.582269 
L 569.385234 359.90513 
L 577.480882 359.193523 
L 585.576529 358.539956 
L 593.672176 358.47546 
L 601.767824 357.988848 
L 609.863471 357.437384 
L 617.959118 357.842124 
L 626.054766 357.371464 
L 634.150413 356.394641 
L 642.246061 355.90129 
L 650.341708 355.427294 
L 658.437355 355.515555 
L 666.533003 355.298121 
L 674.62865 356.063129 
L 682.724298 355.206959 
L 690.819945 353.721787 
L 698.915592 353.487575 
L 707.01124 353.196079 
L 715.106887 353.845145 
L 723.202534 352.527961 
L 731.298182 352.595151 
L 739.393829 352.865784 
L 747.489477 353.174285 
L 755.585124 352.897614 
L 763.680771 352.523099 
L 771.776419 352.570818 
L 779.872066 352.587838 
L 787.967713 352.594725 
L 796.063361 351.757776 
L 804.159008 350.90231 
L 812.254656 351.159083 
L 820.350303 350.417742 
L 828.44595 350.663009 
L 836.541598 351.073481 
L 844.637245 350.961091 
L 852.732893 350.810959 
L 860.82854 351.301469 
L 868.924187 350.746737 
L 877.019835 350.506978 
L 885.115482 350.119771 
L 893.211129 350.320116 
L 901.306777 350.025177 
L 909.402424 350.00397 
L 917.498072 350.417161 
L 925.593719 350.320649 
L 933.689366 349.999224 
L 941.785014 349.943938 
L 949.880661 350.089354 
L 957.976309 350.243173 
L 966.071956 350.104862 
L 974.167603 349.775021 
L 982.263251 349.87171 
L 990.358898 349.514134 
L 998.454545 349.317443 
" style="fill:none;stroke:#de8f05;stroke-linecap:round;stroke-width:2.5;"/>
   </g>
   <g id="line2d_12">
    <path clip-path="url(#p85ac49ce6f)" d="M 196.985455 254.77075 
L 205.081102 223.491294 
L 213.176749 210.911495 
L 221.272397 205.83479 
L 229.368044 203.00732 
L 237.463691 202.605983 
L 245.559339 201.282506 
L 253.654986 199.61795 
L 261.750634 195.92961 
L 269.846281 195.939658 
L 277.941928 195.1981 
L 286.037576 192.937473 
L 294.133223 193.294314 
L 302.228871 193.69083 
L 310.324518 194.172564 
L 318.420165 192.229541 
L 326.515813 191.339358 
L 334.61146 192.539698 
L 342.707107 193.672984 
L 350.802755 191.905617 
L 358.898402 189.0331 
L 366.99405 191.482477 
L 375.089697 190.115257 
L 383.185344 191.207142 
L 391.280992 191.570952 
L 399.376639 190.812683 
L 407.472287 191.071237 
L 415.567934 190.535007 
L 423.663581 189.738247 
L 431.759229 191.274537 
L 439.854876 190.430892 
L 447.950523 191.969507 
L 456.046171 192.973309 
L 464.141818 192.225684 
L 472.237466 189.814129 
L 480.333113 190.783665 
L 488.42876 189.182574 
L 496.524408 191.810303 
L 504.620055 190.989345 
L 512.715702 190.097664 
L 520.81135 191.941221 
L 528.906997 191.755569 
L 537.002645 190.416791 
L 545.098292 192.430324 
L 553.193939 192.179643 
L 561.289587 192.219714 
L 569.385234 190.448965 
L 577.480882 192.214959 
L 585.576529 191.537938 
L 593.672176 193.819683 
L 601.767824 191.778344 
L 609.863471 194.578549 
L 617.959118 193.091272 
L 626.054766 195.228241 
L 634.150413 195.053952 
L 642.246061 195.004151 
L 650.341708 195.663207 
L 658.437355 196.145462 
L 666.533003 193.515145 
L 674.62865 194.821892 
L 682.724298 197.444854 
L 690.819945 195.316668 
L 698.915592 196.649516 
L 707.01124 195.185228 
L 715.106887 196.031841 
L 723.202534 194.445232 
L 731.298182 193.719991 
L 739.393829 194.126795 
L 747.489477 195.908416 
L 755.585124 195.055305 
L 763.680771 195.522774 
L 771.776419 194.09984 
L 779.872066 195.817956 
L 787.967713 195.250994 
L 796.063361 193.743212 
L 804.159008 194.581708 
L 812.254656 194.539941 
L 820.350303 194.572964 
L 828.44595 195.815672 
L 836.541598 194.655856 
L 844.637245 196.459618 
L 852.732893 194.740005 
L 860.82854 196.230176 
L 868.924187 194.49225 
L 877.019835 197.09316 
L 885.115482 197.052325 
L 893.211129 195.403411 
L 901.306777 197.298606 
L 909.402424 195.640432 
L 917.498072 195.934834 
L 925.593719 195.759522 
L 933.689366 195.674464 
L 941.785014 196.198839 
L 949.880661 196.031514 
L 957.976309 196.901188 
L 966.071956 197.687278 
L 974.167603 196.130679 
L 982.263251 196.861228 
L 990.358898 198.427423 
L 998.454545 197.329139 
" style="fill:none;stroke:#de8f05;stroke-dasharray:10,3.75;stroke-dashoffset:0;stroke-width:2.5;"/>
   </g>
   <g id="line2d_13">
    <path clip-path="url(#p85ac49ce6f)" d="M 196.985455 360.256875 
L 205.081102 356.620007 
L 213.176749 357.113159 
L 221.272397 355.344442 
L 229.368044 354.140353 
L 237.463691 354.636961 
L 245.559339 355.269015 
L 253.654986 354.744043 
L 261.750634 355.044513 
L 269.846281 355.382795 
L 277.941928 354.74062 
L 286.037576 354.331291 
L 294.133223 353.283894 
L 302.228871 353.398746 
L 310.324518 353.264888 
L 318.420165 354.281455 
L 326.515813 353.415677 
L 334.61146 352.825059 
L 342.707107 353.136615 
L 350.802755 352.868204 
L 358.898402 352.153516 
L 366.99405 350.168255 
L 375.089697 350.242073 
L 383.185344 350.165762 
L 391.280992 349.047961 
L 399.376639 347.71045 
L 407.472287 347.753185 
L 415.567934 345.590476 
L 423.663581 346.838222 
L 431.759229 345.540288 
L 439.854876 346.186841 
L 447.950523 348.473513 
L 456.046171 347.254081 
L 464.141818 347.997473 
L 472.237466 348.746331 
L 480.333113 350.659798 
L 488.42876 348.077431 
L 496.524408 347.495938 
L 504.620055 347.293806 
L 512.715702 348.102029 
L 520.81135 348.681503 
L 528.906997 347.258814 
L 537.002645 348.459842 
L 545.098292 347.782894 
L 553.193939 346.777772 
L 561.289587 346.50562 
L 569.385234 346.685995 
L 577.480882 347.47408 
L 585.576529 347.110504 
L 593.672176 347.432181 
L 601.767824 347.499204 
L 609.863471 347.409103 
L 617.959118 347.138507 
L 626.054766 347.978277 
L 634.150413 346.569322 
L 642.246061 346.015142 
L 650.341708 345.740289 
L 658.437355 345.581819 
L 666.533003 345.876952 
L 674.62865 346.590569 
L 682.724298 346.294049 
L 690.819945 345.593754 
L 698.915592 345.485622 
L 707.01124 345.442048 
L 715.106887 344.503973 
L 723.202534 346.448949 
L 731.298182 346.867594 
L 739.393829 346.821896 
L 747.489477 345.487338 
L 755.585124 345.54165 
L 763.680771 345.422104 
L 771.776419 343.287352 
L 779.872066 343.695128 
L 787.967713 343.866312 
L 796.063361 343.74846 
L 804.159008 345.49586 
L 812.254656 344.039742 
L 820.350303 345.290326 
L 828.44595 343.383541 
L 836.541598 342.977741 
L 844.637245 342.825619 
L 852.732893 342.683804 
L 860.82854 343.078053 
L 868.924187 343.134169 
L 877.019835 342.71398 
L 885.115482 342.792747 
L 893.211129 342.833556 
L 901.306777 343.425756 
L 909.402424 344.042043 
L 917.498072 343.639673 
L 925.593719 343.794927 
L 933.689366 343.938281 
L 941.785014 346.04528 
L 949.880661 345.353405 
L 957.976309 344.675953 
L 966.071956 343.242385 
L 974.167603 342.599984 
L 982.263251 342.396519 
L 990.358898 343.704562 
L 998.454545 344.518612 
" style="fill:none;stroke:#029e73;stroke-linecap:round;stroke-width:2.5;"/>
   </g>
   <g id="line2d_14">
    <path clip-path="url(#p85ac49ce6f)" d="M 196.985455 252.965164 
L 205.081102 225.562495 
L 213.176749 214.770311 
L 221.272397 216.176532 
L 229.368044 215.794521 
L 237.463691 217.655461 
L 245.559339 215.455364 
L 253.654986 216.57794 
L 261.750634 216.071112 
L 269.846281 218.861332 
L 277.941928 217.572065 
L 286.037576 210.632243 
L 294.133223 211.721656 
L 302.228871 209.309426 
L 310.324518 208.322289 
L 318.420165 207.425198 
L 326.515813 209.456367 
L 334.61146 210.118767 
L 342.707107 208.63908 
L 350.802755 205.259785 
L 358.898402 208.762368 
L 366.99405 208.734844 
L 375.089697 203.908615 
L 383.185344 203.746509 
L 391.280992 206.043876 
L 399.376639 207.035502 
L 407.472287 203.296303 
L 415.567934 206.428176 
L 423.663581 205.800289 
L 431.759229 206.644092 
L 439.854876 203.882775 
L 447.950523 205.159887 
L 456.046171 202.794953 
L 464.141818 202.792463 
L 472.237466 202.972733 
L 480.333113 203.887201 
L 488.42876 204.189698 
L 496.524408 203.319901 
L 504.620055 200.692181 
L 512.715702 201.957179 
L 520.81135 203.741203 
L 528.906997 201.590078 
L 537.002645 200.010211 
L 545.098292 199.372761 
L 553.193939 199.18299 
L 561.289587 198.263234 
L 569.385234 199.447807 
L 577.480882 200.366116 
L 585.576529 201.577667 
L 593.672176 200.301138 
L 601.767824 200.125225 
L 609.863471 198.451726 
L 617.959118 199.914206 
L 626.054766 200.125404 
L 634.150413 202.980716 
L 642.246061 201.705283 
L 650.341708 200.562261 
L 658.437355 199.712157 
L 666.533003 207.438541 
L 674.62865 205.02608 
L 682.724298 204.097512 
L 690.819945 205.484636 
L 698.915592 201.704676 
L 707.01124 200.151122 
L 715.106887 202.340248 
L 723.202534 201.996584 
L 731.298182 202.219459 
L 739.393829 201.206785 
L 747.489477 199.793677 
L 755.585124 198.408618 
L 763.680771 199.575857 
L 771.776419 198.381099 
L 779.872066 198.340858 
L 787.967713 199.031669 
L 796.063361 201.132025 
L 804.159008 200.421649 
L 812.254656 199.972354 
L 820.350303 199.264026 
L 828.44595 201.720246 
L 836.541598 198.636311 
L 844.637245 197.009284 
L 852.732893 198.755833 
L 860.82854 198.470596 
L 868.924187 199.513611 
L 877.019835 200.203393 
L 885.115482 197.753981 
L 893.211129 197.152252 
L 901.306777 205.96681 
L 909.402424 205.28443 
L 917.498072 205.766853 
L 925.593719 201.847756 
L 933.689366 202.518812 
L 941.785014 203.756482 
L 949.880661 203.081221 
L 957.976309 200.885691 
L 966.071956 202.777699 
L 974.167603 203.832377 
L 982.263251 202.875671 
L 990.358898 196.732605 
L 998.454545 201.885429 
" style="fill:none;stroke:#029e73;stroke-dasharray:10,3.75;stroke-dashoffset:0;stroke-width:2.5;"/>
   </g>
   <g id="line2d_15"/>
   <g id="line2d_16"/>
   <g id="line2d_17"/>
   <g id="line2d_18"/>
   <g id="line2d_19"/>
   <g id="patch_3">
    <path d="M 156.912 383.268 
L 156.912 75.192 
" style="fill:none;stroke:#cccccc;stroke-linecap:square;stroke-linejoin:miter;"/>
   </g>
   <g id="patch_4">
    <path d="M 1038.528 383.268 
L 1038.528 75.192 
" style="fill:none;stroke:#cccccc;stroke-linecap:square;stroke-linejoin:miter;"/>
   </g>
   <g id="patch_5">
    <path d="M 156.912 383.268 
L 1038.528 383.268 
" style="fill:none;stroke:#cccccc;stroke-linecap:square;stroke-linejoin:miter;"/>
   </g>
   <g id="patch_6">
    <path d="M 156.912 75.192 
L 1038.528 75.192 
" style="fill:none;stroke:#cccccc;stroke-linecap:square;stroke-linejoin:miter;"/>
   </g>
   <g id="text_11">
    <!-- Top 50 CCA on mfeat -->
    <g style="fill:#262626;" transform="translate(415.233 69.192)scale(0.384 -0.384)">
     <defs>
      <path d="M -0.140625 0 
L 27.34375 71.578125 
L 37.546875 71.578125 
L 66.84375 0 
L 56.0625 0 
L 47.703125 21.6875 
L 17.78125 21.6875 
L 9.90625 0 
z
M 20.515625 29.390625 
L 44.78125 29.390625 
L 37.3125 49.21875 
Q 33.890625 58.25 32.234375 64.0625 
Q 30.859375 57.171875 28.375 50.390625 
z
" id="ArialMT-65"/>
      <path d="M 6.59375 0 
L 6.59375 51.859375 
L 14.453125 51.859375 
L 14.453125 44.578125 
Q 16.890625 48.390625 20.9375 50.703125 
Q 25 53.03125 30.171875 53.03125 
Q 35.9375 53.03125 39.625 50.640625 
Q 43.3125 48.25 44.828125 43.953125 
Q 50.984375 53.03125 60.84375 53.03125 
Q 68.5625 53.03125 72.703125 48.75 
Q 76.859375 44.484375 76.859375 35.59375 
L 76.859375 0 
L 68.109375 0 
L 68.109375 32.671875 
Q 68.109375 37.9375 67.25 40.25 
Q 66.40625 42.578125 64.15625 43.984375 
Q 61.921875 45.40625 58.890625 45.40625 
Q 53.421875 45.40625 49.796875 41.765625 
Q 46.1875 38.140625 46.1875 30.125 
L 46.1875 0 
L 37.40625 0 
L 37.40625 33.6875 
Q 37.40625 39.546875 35.25 42.46875 
Q 33.109375 45.40625 28.21875 45.40625 
Q 24.515625 45.40625 21.359375 43.453125 
Q 18.21875 41.5 16.796875 37.734375 
Q 15.375 33.984375 15.375 26.90625 
L 15.375 0 
z
" id="ArialMT-109"/>
      <path d="M 8.6875 0 
L 8.6875 45.015625 
L 0.921875 45.015625 
L 0.921875 51.859375 
L 8.6875 51.859375 
L 8.6875 57.375 
Q 8.6875 62.59375 9.625 65.140625 
Q 10.890625 68.5625 14.078125 70.671875 
Q 17.28125 72.796875 23.046875 72.796875 
Q 26.765625 72.796875 31.25 71.921875 
L 29.9375 64.265625 
Q 27.203125 64.75 24.75 64.75 
Q 20.75 64.75 19.09375 63.03125 
Q 17.4375 61.328125 17.4375 56.640625 
L 17.4375 51.859375 
L 27.546875 51.859375 
L 27.546875 45.015625 
L 17.4375 45.015625 
L 17.4375 0 
z
" id="ArialMT-102"/>
     </defs>
     <use xlink:href="#ArialMT-84"/>
     <use x="49.958984" xlink:href="#ArialMT-111"/>
     <use x="105.574219" xlink:href="#ArialMT-112"/>
     <use x="161.189453" xlink:href="#ArialMT-32"/>
     <use x="188.972656" xlink:href="#ArialMT-53"/>
     <use x="244.587891" xlink:href="#ArialMT-48"/>
     <use x="300.203125" xlink:href="#ArialMT-32"/>
     <use x="327.986328" xlink:href="#ArialMT-67"/>
     <use x="400.203125" xlink:href="#ArialMT-67"/>
     <use x="472.419922" xlink:href="#ArialMT-65"/>
     <use x="533.619141" xlink:href="#ArialMT-32"/>
     <use x="561.402344" xlink:href="#ArialMT-111"/>
     <use x="617.017578" xlink:href="#ArialMT-110"/>
     <use x="672.632812" xlink:href="#ArialMT-32"/>
     <use x="700.416016" xlink:href="#ArialMT-109"/>
     <use x="783.716797" xlink:href="#ArialMT-102"/>
     <use x="811.5" xlink:href="#ArialMT-101"/>
     <use x="867.115234" xlink:href="#ArialMT-97"/>
     <use x="922.730469" xlink:href="#ArialMT-116"/>
    </g>
   </g>
   <g id="legend_1">
    <g id="patch_7">
     <path d="M 814.613064 369.9432 
L 1019.87328 369.9432 
Q 1025.2032 369.9432 1025.2032 364.61328 
L 1025.2032 103.401396 
Q 1025.2032 98.071476 1019.87328 98.071476 
L 814.613064 98.071476 
Q 809.283144 98.071476 809.283144 103.401396 
L 809.283144 364.61328 
Q 809.283144 369.9432 814.613064 369.9432 
z
" style="fill:#ffffff;opacity:0.8;stroke:#cccccc;stroke-linejoin:miter;stroke-width:0.8;"/>
    </g>
    <g id="text_12">
     <!-- model -->
     <g style="fill:#262626;" transform="translate(894.561864 127.8066)scale(0.266496 -0.266496)">
      <use xlink:href="#ArialMT-109"/>
      <use x="83.300781" xlink:href="#ArialMT-111"/>
      <use x="138.916016" xlink:href="#ArialMT-100"/>
      <use x="194.53125" xlink:href="#ArialMT-101"/>
      <use x="250.146484" xlink:href="#ArialMT-108"/>
     </g>
    </g>
    <g id="line2d_20">
     <path d="M 819.942984 156.175932 
L 873.242184 156.175932 
" style="fill:none;stroke:#0173b2;stroke-linecap:round;stroke-width:2.5;"/>
    </g>
    <g id="line2d_21"/>
    <g id="text_13">
     <!-- DCCA-EY -->
     <g style="fill:#262626;" transform="translate(894.561864 165.503292)scale(0.266496 -0.266496)">
      <defs>
       <path d="M 7.71875 0 
L 7.71875 71.578125 
L 32.375 71.578125 
Q 40.71875 71.578125 45.125 70.5625 
Q 51.265625 69.140625 55.609375 65.4375 
Q 61.28125 60.640625 64.078125 53.1875 
Q 66.890625 45.75 66.890625 36.1875 
Q 66.890625 28.03125 64.984375 21.734375 
Q 63.09375 15.4375 60.109375 11.296875 
Q 57.125 7.171875 53.578125 4.796875 
Q 50.046875 2.4375 45.046875 1.21875 
Q 40.046875 0 33.546875 0 
z
M 17.1875 8.453125 
L 32.46875 8.453125 
Q 39.546875 8.453125 43.578125 9.765625 
Q 47.609375 11.078125 50 13.484375 
Q 53.375 16.84375 55.25 22.53125 
Q 57.125 28.21875 57.125 36.328125 
Q 57.125 47.5625 53.4375 53.59375 
Q 49.75 59.625 44.484375 61.671875 
Q 40.671875 63.140625 32.234375 63.140625 
L 17.1875 63.140625 
z
" id="ArialMT-68"/>
       <path d="M 3.171875 21.484375 
L 3.171875 30.328125 
L 30.171875 30.328125 
L 30.171875 21.484375 
z
" id="ArialMT-45"/>
       <path d="M 7.90625 0 
L 7.90625 71.578125 
L 59.671875 71.578125 
L 59.671875 63.140625 
L 17.390625 63.140625 
L 17.390625 41.21875 
L 56.984375 41.21875 
L 56.984375 32.8125 
L 17.390625 32.8125 
L 17.390625 8.453125 
L 61.328125 8.453125 
L 61.328125 0 
z
" id="ArialMT-69"/>
       <path d="M 27.875 0 
L 27.875 30.328125 
L 0.296875 71.578125 
L 11.8125 71.578125 
L 25.921875 50 
Q 29.828125 43.953125 33.203125 37.890625 
Q 36.421875 43.5 41.015625 50.53125 
L 54.890625 71.578125 
L 65.921875 71.578125 
L 37.359375 30.328125 
L 37.359375 0 
z
" id="ArialMT-89"/>
      </defs>
      <use xlink:href="#ArialMT-68"/>
      <use x="72.216797" xlink:href="#ArialMT-67"/>
      <use x="144.433594" xlink:href="#ArialMT-67"/>
      <use x="216.650391" xlink:href="#ArialMT-65"/>
      <use x="283.349609" xlink:href="#ArialMT-45"/>
      <use x="316.650391" xlink:href="#ArialMT-69"/>
      <use x="383.349609" xlink:href="#ArialMT-89"/>
     </g>
    </g>
    <g id="line2d_22">
     <path d="M 819.942984 193.872624 
L 873.242184 193.872624 
" style="fill:none;stroke:#de8f05;stroke-linecap:round;stroke-width:2.5;"/>
    </g>
    <g id="line2d_23"/>
    <g id="text_14">
     <!-- DMCCA -->
     <g style="fill:#262626;" transform="translate(894.561864 203.199984)scale(0.266496 -0.266496)">
      <use xlink:href="#ArialMT-68"/>
      <use x="72.216797" xlink:href="#ArialMT-77"/>
      <use x="155.517578" xlink:href="#ArialMT-67"/>
      <use x="227.734375" xlink:href="#ArialMT-67"/>
      <use x="299.951172" xlink:href="#ArialMT-65"/>
     </g>
    </g>
    <g id="line2d_24">
     <path d="M 819.942984 231.569316 
L 873.242184 231.569316 
" style="fill:none;stroke:#029e73;stroke-linecap:round;stroke-width:2.5;"/>
    </g>
    <g id="line2d_25"/>
    <g id="text_15">
     <!-- DGCCA -->
     <g style="fill:#262626;" transform="translate(894.561864 240.896676)scale(0.266496 -0.266496)">
      <defs>
       <path d="M 41.21875 28.078125 
L 41.21875 36.46875 
L 71.53125 36.53125 
L 71.53125 9.96875 
Q 64.546875 4.390625 57.125 1.578125 
Q 49.703125 -1.21875 41.890625 -1.21875 
Q 31.34375 -1.21875 22.71875 3.296875 
Q 14.109375 7.8125 9.71875 16.359375 
Q 5.328125 24.90625 5.328125 35.453125 
Q 5.328125 45.90625 9.6875 54.953125 
Q 14.0625 64.015625 22.265625 68.40625 
Q 30.46875 72.796875 41.15625 72.796875 
Q 48.921875 72.796875 55.1875 70.28125 
Q 61.46875 67.78125 65.03125 63.28125 
Q 68.609375 58.796875 70.453125 51.5625 
L 61.921875 49.21875 
Q 60.296875 54.6875 57.90625 57.8125 
Q 55.515625 60.9375 51.0625 62.8125 
Q 46.625 64.703125 41.21875 64.703125 
Q 34.71875 64.703125 29.984375 62.71875 
Q 25.25 60.75 22.34375 57.515625 
Q 19.4375 54.296875 17.828125 50.4375 
Q 15.09375 43.796875 15.09375 36.03125 
Q 15.09375 26.46875 18.390625 20.015625 
Q 21.6875 13.578125 27.984375 10.453125 
Q 34.28125 7.328125 41.359375 7.328125 
Q 47.515625 7.328125 53.375 9.6875 
Q 59.234375 12.0625 62.25 14.75 
L 62.25 28.078125 
z
" id="ArialMT-71"/>
      </defs>
      <use xlink:href="#ArialMT-68"/>
      <use x="72.216797" xlink:href="#ArialMT-71"/>
      <use x="150" xlink:href="#ArialMT-67"/>
      <use x="222.216797" xlink:href="#ArialMT-67"/>
      <use x="294.433594" xlink:href="#ArialMT-65"/>
     </g>
    </g>
    <g id="text_16">
     <!-- batch size -->
     <g style="fill:#262626;" transform="translate(894.561864 278.593368)scale(0.266496 -0.266496)">
      <defs>
       <path d="M 14.703125 0 
L 6.546875 0 
L 6.546875 71.578125 
L 15.328125 71.578125 
L 15.328125 46.046875 
Q 20.90625 53.03125 29.546875 53.03125 
Q 34.328125 53.03125 38.59375 51.09375 
Q 42.875 49.171875 45.625 45.671875 
Q 48.390625 42.1875 49.953125 37.25 
Q 51.515625 32.328125 51.515625 26.703125 
Q 51.515625 13.375 44.921875 6.09375 
Q 38.328125 -1.171875 29.109375 -1.171875 
Q 19.921875 -1.171875 14.703125 6.5 
z
M 14.59375 26.3125 
Q 14.59375 17 17.140625 12.84375 
Q 21.296875 6.0625 28.375 6.0625 
Q 34.125 6.0625 38.328125 11.0625 
Q 42.53125 16.0625 42.53125 25.984375 
Q 42.53125 36.140625 38.5 40.96875 
Q 34.46875 45.796875 28.765625 45.796875 
Q 23 45.796875 18.796875 40.796875 
Q 14.59375 35.796875 14.59375 26.3125 
z
" id="ArialMT-98"/>
       <path d="M 3.078125 15.484375 
L 11.765625 16.84375 
Q 12.5 11.625 15.84375 8.84375 
Q 19.1875 6.0625 25.203125 6.0625 
Q 31.25 6.0625 34.171875 8.515625 
Q 37.109375 10.984375 37.109375 14.3125 
Q 37.109375 17.28125 34.515625 19 
Q 32.71875 20.171875 25.53125 21.96875 
Q 15.875 24.421875 12.140625 26.203125 
Q 8.40625 27.984375 6.46875 31.125 
Q 4.546875 34.28125 4.546875 38.09375 
Q 4.546875 41.546875 6.125 44.5 
Q 7.71875 47.46875 10.453125 49.421875 
Q 12.5 50.921875 16.03125 51.96875 
Q 19.578125 53.03125 23.640625 53.03125 
Q 29.734375 53.03125 34.34375 51.265625 
Q 38.96875 49.515625 41.15625 46.5 
Q 43.359375 43.5 44.1875 38.484375 
L 35.59375 37.3125 
Q 35.015625 41.3125 32.203125 43.546875 
Q 29.390625 45.796875 24.265625 45.796875 
Q 18.21875 45.796875 15.625 43.796875 
Q 13.03125 41.796875 13.03125 39.109375 
Q 13.03125 37.40625 14.109375 36.03125 
Q 15.1875 34.625 17.484375 33.6875 
Q 18.796875 33.203125 25.25 31.453125 
Q 34.578125 28.953125 38.25 27.359375 
Q 41.9375 25.78125 44.03125 22.75 
Q 46.140625 19.734375 46.140625 15.234375 
Q 46.140625 10.84375 43.578125 6.953125 
Q 41.015625 3.078125 36.171875 0.953125 
Q 31.34375 -1.171875 25.25 -1.171875 
Q 15.140625 -1.171875 9.84375 3.03125 
Q 4.546875 7.234375 3.078125 15.484375 
z
" id="ArialMT-115"/>
       <path d="M 1.953125 0 
L 1.953125 7.125 
L 34.96875 45.015625 
Q 29.34375 44.734375 25.046875 44.734375 
L 3.90625 44.734375 
L 3.90625 51.859375 
L 46.296875 51.859375 
L 46.296875 46.046875 
L 18.21875 13.140625 
L 12.796875 7.125 
Q 18.703125 7.5625 23.875 7.5625 
L 47.859375 7.5625 
L 47.859375 0 
z
" id="ArialMT-122"/>
      </defs>
      <use xlink:href="#ArialMT-98"/>
      <use x="55.615234" xlink:href="#ArialMT-97"/>
      <use x="111.230469" xlink:href="#ArialMT-116"/>
      <use x="139.013672" xlink:href="#ArialMT-99"/>
      <use x="189.013672" xlink:href="#ArialMT-104"/>
      <use x="244.628906" xlink:href="#ArialMT-32"/>
      <use x="272.412109" xlink:href="#ArialMT-115"/>
      <use x="322.412109" xlink:href="#ArialMT-105"/>
      <use x="344.628906" xlink:href="#ArialMT-122"/>
      <use x="394.628906" xlink:href="#ArialMT-101"/>
     </g>
    </g>
    <g id="line2d_26">
     <path d="M 819.942984 306.9627 
L 873.242184 306.9627 
" style="fill:none;stroke:#333333;stroke-linecap:round;stroke-width:2.5;"/>
    </g>
    <g id="line2d_27"/>
    <g id="text_17">
     <!-- 50 -->
     <g style="fill:#262626;" transform="translate(894.561864 316.29006)scale(0.266496 -0.266496)">
      <use xlink:href="#ArialMT-53"/>
      <use x="55.615234" xlink:href="#ArialMT-48"/>
     </g>
    </g>
    <g id="line2d_28">
     <path d="M 819.942984 344.659392 
L 873.242184 344.659392 
" style="fill:none;stroke:#333333;stroke-dasharray:10,3.75;stroke-dashoffset:0;stroke-width:2.5;"/>
    </g>
    <g id="line2d_29"/>
    <g id="text_18">
     <!-- 100 -->
     <g style="fill:#262626;" transform="translate(894.561864 353.986752)scale(0.266496 -0.266496)">
      <use xlink:href="#ArialMT-49"/>
      <use x="55.615234" xlink:href="#ArialMT-48"/>
      <use x="111.230469" xlink:href="#ArialMT-48"/>
     </g>
    </g>
   </g>
  </g>
 </g>
 <defs>
  <clipPath id="p85ac49ce6f">
   <rect height="308.076" width="881.616" x="156.912" y="75.192"/>
  </clipPath>
 </defs>
</svg>
