<?xml version="1.0" encoding="utf-8" standalone="no"?>
<!DOCTYPE svg PUBLIC "-//W3C//DTD SVG 1.1//EN"
  "http://www.w3.org/Graphics/SVG/1.1/DTD/svg11.dtd">
<!-- Created with matplotlib (https://matplotlib.org/) -->
<svg height="345.6pt" version="1.1" viewBox="0 0 460.8 345.6" width="460.8pt" xmlns="http://www.w3.org/2000/svg" xmlns:xlink="http://www.w3.org/1999/xlink">
 <metadata>
  <rdf:RDF xmlns:cc="http://creativecommons.org/ns#" xmlns:dc="http://purl.org/dc/elements/1.1/" xmlns:rdf="http://www.w3.org/1999/02/22-rdf-syntax-ns#">
   <cc:Work>
    <dc:type rdf:resource="http://purl.org/dc/dcmitype/StillImage"/>
    <dc:date>2023-09-27T14:20:12.843957</dc:date>
    <dc:format>image/svg+xml</dc:format>
    <dc:creator>
     <cc:Agent>
      <dc:title>Matplotlib v3.3.4, https://matplotlib.org/</dc:title>
     </cc:Agent>
    </dc:creator>
   </cc:Work>
  </rdf:RDF>
 </metadata>
 <defs>
  <style type="text/css">*{stroke-linecap:butt;stroke-linejoin:round;}</style>
 </defs>
 <g id="figure_1">
  <g id="patch_1">
   <path d="M 0 345.6 
L 460.8 345.6 
L 460.8 0 
L 0 0 
z
" style="fill:#ffffff;"/>
  </g>
  <g id="axes_1">
   <g id="patch_2">
    <path d="M 66.966 270.852 
L 438.911307 270.852 
L 438.911307 40.416 
L 66.966 40.416 
z
" style="fill:#ffffff;"/>
   </g>
   <g id="matplotlib.axis_1">
    <g id="xtick_1">
     <g id="line2d_1">
      <path clip-path="url(#pb693d8e25d)" d="M 83.872605 270.852 
L 83.872605 40.416 
" style="fill:none;stroke:#cccccc;stroke-linecap:round;stroke-width:0.8;"/>
     </g>
     <g id="text_1">
      <!-- 0 -->
      <g style="fill:#262626;" transform="translate(78.97898 291.74975)scale(0.176 -0.176)">
       <defs>
        <path d="M 4.15625 35.296875 
Q 4.15625 48 6.765625 55.734375 
Q 9.375 63.484375 14.515625 67.671875 
Q 19.671875 71.875 27.484375 71.875 
Q 33.25 71.875 37.59375 69.546875 
Q 41.9375 67.234375 44.765625 62.859375 
Q 47.609375 58.5 49.21875 52.21875 
Q 50.828125 45.953125 50.828125 35.296875 
Q 50.828125 22.703125 48.234375 14.96875 
Q 45.65625 7.234375 40.5 3 
Q 35.359375 -1.21875 27.484375 -1.21875 
Q 17.140625 -1.21875 11.234375 6.203125 
Q 4.15625 15.140625 4.15625 35.296875 
z
M 13.1875 35.296875 
Q 13.1875 17.671875 17.3125 11.828125 
Q 21.4375 6 27.484375 6 
Q 33.546875 6 37.671875 11.859375 
Q 41.796875 17.71875 41.796875 35.296875 
Q 41.796875 52.984375 37.671875 58.78125 
Q 33.546875 64.59375 27.390625 64.59375 
Q 21.34375 64.59375 17.71875 59.46875 
Q 13.1875 52.9375 13.1875 35.296875 
z
" id="ArialMT-48"/>
       </defs>
       <use xlink:href="#ArialMT-48"/>
      </g>
     </g>
    </g>
    <g id="xtick_2">
     <g id="line2d_2">
      <path clip-path="url(#pb693d8e25d)" d="M 152.182119 270.852 
L 152.182119 40.416 
" style="fill:none;stroke:#cccccc;stroke-linecap:round;stroke-width:0.8;"/>
     </g>
     <g id="text_2">
      <!-- 20 -->
      <g style="fill:#262626;" transform="translate(142.394869 291.74975)scale(0.176 -0.176)">
       <defs>
        <path d="M 50.34375 8.453125 
L 50.34375 0 
L 3.03125 0 
Q 2.9375 3.171875 4.046875 6.109375 
Q 5.859375 10.9375 9.828125 15.625 
Q 13.8125 20.3125 21.34375 26.46875 
Q 33.015625 36.03125 37.109375 41.625 
Q 41.21875 47.21875 41.21875 52.203125 
Q 41.21875 57.421875 37.46875 61 
Q 33.734375 64.59375 27.734375 64.59375 
Q 21.390625 64.59375 17.578125 60.78125 
Q 13.765625 56.984375 13.71875 50.25 
L 4.6875 51.171875 
Q 5.609375 61.28125 11.65625 66.578125 
Q 17.71875 71.875 27.9375 71.875 
Q 38.234375 71.875 44.234375 66.15625 
Q 50.25 60.453125 50.25 52 
Q 50.25 47.703125 48.484375 43.546875 
Q 46.734375 39.40625 42.65625 34.8125 
Q 38.578125 30.21875 29.109375 22.21875 
Q 21.1875 15.578125 18.9375 13.203125 
Q 16.703125 10.84375 15.234375 8.453125 
z
" id="ArialMT-50"/>
       </defs>
       <use xlink:href="#ArialMT-50"/>
       <use x="55.615234" xlink:href="#ArialMT-48"/>
      </g>
     </g>
    </g>
    <g id="xtick_3">
     <g id="line2d_3">
      <path clip-path="url(#pb693d8e25d)" d="M 220.491634 270.852 
L 220.491634 40.416 
" style="fill:none;stroke:#cccccc;stroke-linecap:round;stroke-width:0.8;"/>
     </g>
     <g id="text_3">
      <!-- 40 -->
      <g style="fill:#262626;" transform="translate(210.704384 291.74975)scale(0.176 -0.176)">
       <defs>
        <path d="M 32.328125 0 
L 32.328125 17.140625 
L 1.265625 17.140625 
L 1.265625 25.203125 
L 33.9375 71.578125 
L 41.109375 71.578125 
L 41.109375 25.203125 
L 50.78125 25.203125 
L 50.78125 17.140625 
L 41.109375 17.140625 
L 41.109375 0 
z
M 32.328125 25.203125 
L 32.328125 57.46875 
L 9.90625 25.203125 
z
" id="ArialMT-52"/>
       </defs>
       <use xlink:href="#ArialMT-52"/>
       <use x="55.615234" xlink:href="#ArialMT-48"/>
      </g>
     </g>
    </g>
    <g id="xtick_4">
     <g id="line2d_4">
      <path clip-path="url(#pb693d8e25d)" d="M 288.801149 270.852 
L 288.801149 40.416 
" style="fill:none;stroke:#cccccc;stroke-linecap:round;stroke-width:0.8;"/>
     </g>
     <g id="text_4">
      <!-- 60 -->
      <g style="fill:#262626;" transform="translate(279.013899 291.74975)scale(0.176 -0.176)">
       <defs>
        <path d="M 49.75 54.046875 
L 41.015625 53.375 
Q 39.84375 58.546875 37.703125 60.890625 
Q 34.125 64.65625 28.90625 64.65625 
Q 24.703125 64.65625 21.53125 62.3125 
Q 17.390625 59.28125 14.984375 53.46875 
Q 12.59375 47.65625 12.5 36.921875 
Q 15.671875 41.75 20.265625 44.09375 
Q 24.859375 46.4375 29.890625 46.4375 
Q 38.671875 46.4375 44.84375 39.96875 
Q 51.03125 33.5 51.03125 23.25 
Q 51.03125 16.5 48.125 10.71875 
Q 45.21875 4.9375 40.140625 1.859375 
Q 35.0625 -1.21875 28.609375 -1.21875 
Q 17.625 -1.21875 10.6875 6.859375 
Q 3.765625 14.9375 3.765625 33.5 
Q 3.765625 54.25 11.421875 63.671875 
Q 18.109375 71.875 29.4375 71.875 
Q 37.890625 71.875 43.28125 67.140625 
Q 48.6875 62.40625 49.75 54.046875 
z
M 13.875 23.1875 
Q 13.875 18.65625 15.796875 14.5 
Q 17.71875 10.359375 21.1875 8.171875 
Q 24.65625 6 28.46875 6 
Q 34.03125 6 38.03125 10.484375 
Q 42.046875 14.984375 42.046875 22.703125 
Q 42.046875 30.125 38.078125 34.390625 
Q 34.125 38.671875 28.125 38.671875 
Q 22.171875 38.671875 18.015625 34.390625 
Q 13.875 30.125 13.875 23.1875 
z
" id="ArialMT-54"/>
       </defs>
       <use xlink:href="#ArialMT-54"/>
       <use x="55.615234" xlink:href="#ArialMT-48"/>
      </g>
     </g>
    </g>
    <g id="xtick_5">
     <g id="line2d_5">
      <path clip-path="url(#pb693d8e25d)" d="M 357.110663 270.852 
L 357.110663 40.416 
" style="fill:none;stroke:#cccccc;stroke-linecap:round;stroke-width:0.8;"/>
     </g>
     <g id="text_5">
      <!-- 80 -->
      <g style="fill:#262626;" transform="translate(347.323413 291.74975)scale(0.176 -0.176)">
       <defs>
        <path d="M 17.671875 38.8125 
Q 12.203125 40.828125 9.5625 44.53125 
Q 6.9375 48.25 6.9375 53.421875 
Q 6.9375 61.234375 12.546875 66.546875 
Q 18.171875 71.875 27.484375 71.875 
Q 36.859375 71.875 42.578125 66.421875 
Q 48.296875 60.984375 48.296875 53.171875 
Q 48.296875 48.1875 45.671875 44.5 
Q 43.0625 40.828125 37.75 38.8125 
Q 44.34375 36.671875 47.78125 31.875 
Q 51.21875 27.09375 51.21875 20.453125 
Q 51.21875 11.28125 44.71875 5.03125 
Q 38.234375 -1.21875 27.640625 -1.21875 
Q 17.046875 -1.21875 10.546875 5.046875 
Q 4.046875 11.328125 4.046875 20.703125 
Q 4.046875 27.6875 7.59375 32.390625 
Q 11.140625 37.109375 17.671875 38.8125 
z
M 15.921875 53.71875 
Q 15.921875 48.640625 19.1875 45.40625 
Q 22.46875 42.1875 27.6875 42.1875 
Q 32.765625 42.1875 36.015625 45.375 
Q 39.265625 48.578125 39.265625 53.21875 
Q 39.265625 58.0625 35.90625 61.359375 
Q 32.5625 64.65625 27.59375 64.65625 
Q 22.5625 64.65625 19.234375 61.421875 
Q 15.921875 58.203125 15.921875 53.71875 
z
M 13.09375 20.65625 
Q 13.09375 16.890625 14.875 13.375 
Q 16.65625 9.859375 20.171875 7.921875 
Q 23.6875 6 27.734375 6 
Q 34.03125 6 38.125 10.046875 
Q 42.234375 14.109375 42.234375 20.359375 
Q 42.234375 26.703125 38.015625 30.859375 
Q 33.796875 35.015625 27.4375 35.015625 
Q 21.234375 35.015625 17.15625 30.90625 
Q 13.09375 26.8125 13.09375 20.65625 
z
" id="ArialMT-56"/>
       </defs>
       <use xlink:href="#ArialMT-56"/>
       <use x="55.615234" xlink:href="#ArialMT-48"/>
      </g>
     </g>
    </g>
    <g id="xtick_6">
     <g id="line2d_6">
      <path clip-path="url(#pb693d8e25d)" d="M 425.420178 270.852 
L 425.420178 40.416 
" style="fill:none;stroke:#cccccc;stroke-linecap:round;stroke-width:0.8;"/>
     </g>
     <g id="text_6">
      <!-- 100 -->
      <g style="fill:#262626;" transform="translate(410.739303 291.74975)scale(0.176 -0.176)">
       <defs>
        <path d="M 37.25 0 
L 28.46875 0 
L 28.46875 56 
Q 25.296875 52.984375 20.140625 49.953125 
Q 14.984375 46.921875 10.890625 45.40625 
L 10.890625 53.90625 
Q 18.265625 57.375 23.78125 62.296875 
Q 29.296875 67.234375 31.59375 71.875 
L 37.25 71.875 
z
" id="ArialMT-49"/>
       </defs>
       <use xlink:href="#ArialMT-49"/>
       <use x="55.615234" xlink:href="#ArialMT-48"/>
       <use x="111.230469" xlink:href="#ArialMT-48"/>
      </g>
     </g>
    </g>
    <g id="text_7">
     <!-- epoch -->
     <g style="fill:#262626;" transform="translate(231.143654 310.70025)scale(0.16 -0.16)">
      <defs>
       <path d="M 42.09375 16.703125 
L 51.171875 15.578125 
Q 49.03125 7.625 43.21875 3.21875 
Q 37.40625 -1.171875 28.375 -1.171875 
Q 17 -1.171875 10.328125 5.828125 
Q 3.65625 12.84375 3.65625 25.484375 
Q 3.65625 38.578125 10.390625 45.796875 
Q 17.140625 53.03125 27.875 53.03125 
Q 38.28125 53.03125 44.875 45.953125 
Q 51.46875 38.875 51.46875 26.03125 
Q 51.46875 25.25 51.421875 23.6875 
L 12.75 23.6875 
Q 13.234375 15.140625 17.578125 10.59375 
Q 21.921875 6.0625 28.421875 6.0625 
Q 33.25 6.0625 36.671875 8.59375 
Q 40.09375 11.140625 42.09375 16.703125 
z
M 13.234375 30.90625 
L 42.1875 30.90625 
Q 41.609375 37.453125 38.875 40.71875 
Q 34.671875 45.796875 27.984375 45.796875 
Q 21.921875 45.796875 17.796875 41.75 
Q 13.671875 37.703125 13.234375 30.90625 
z
" id="ArialMT-101"/>
       <path d="M 6.59375 -19.875 
L 6.59375 51.859375 
L 14.59375 51.859375 
L 14.59375 45.125 
Q 17.4375 49.078125 21 51.046875 
Q 24.5625 53.03125 29.640625 53.03125 
Q 36.28125 53.03125 41.359375 49.609375 
Q 46.4375 46.1875 49.015625 39.953125 
Q 51.609375 33.734375 51.609375 26.3125 
Q 51.609375 18.359375 48.75 11.984375 
Q 45.90625 5.609375 40.453125 2.21875 
Q 35.015625 -1.171875 29 -1.171875 
Q 24.609375 -1.171875 21.109375 0.6875 
Q 17.625 2.546875 15.375 5.375 
L 15.375 -19.875 
z
M 14.546875 25.640625 
Q 14.546875 15.625 18.59375 10.84375 
Q 22.65625 6.0625 28.421875 6.0625 
Q 34.28125 6.0625 38.453125 11.015625 
Q 42.625 15.96875 42.625 26.375 
Q 42.625 36.28125 38.546875 41.203125 
Q 34.46875 46.140625 28.8125 46.140625 
Q 23.1875 46.140625 18.859375 40.890625 
Q 14.546875 35.640625 14.546875 25.640625 
z
" id="ArialMT-112"/>
       <path d="M 3.328125 25.921875 
Q 3.328125 40.328125 11.328125 47.265625 
Q 18.015625 53.03125 27.640625 53.03125 
Q 38.328125 53.03125 45.109375 46.015625 
Q 51.90625 39.015625 51.90625 26.65625 
Q 51.90625 16.65625 48.90625 10.90625 
Q 45.90625 5.171875 40.15625 2 
Q 34.421875 -1.171875 27.640625 -1.171875 
Q 16.75 -1.171875 10.03125 5.8125 
Q 3.328125 12.796875 3.328125 25.921875 
z
M 12.359375 25.921875 
Q 12.359375 15.96875 16.703125 11.015625 
Q 21.046875 6.0625 27.640625 6.0625 
Q 34.1875 6.0625 38.53125 11.03125 
Q 42.875 16.015625 42.875 26.21875 
Q 42.875 35.84375 38.5 40.796875 
Q 34.125 45.75 27.640625 45.75 
Q 21.046875 45.75 16.703125 40.8125 
Q 12.359375 35.890625 12.359375 25.921875 
z
" id="ArialMT-111"/>
       <path d="M 40.4375 19 
L 49.078125 17.875 
Q 47.65625 8.9375 41.8125 3.875 
Q 35.984375 -1.171875 27.484375 -1.171875 
Q 16.84375 -1.171875 10.375 5.78125 
Q 3.90625 12.75 3.90625 25.734375 
Q 3.90625 34.125 6.6875 40.421875 
Q 9.46875 46.734375 15.15625 49.875 
Q 20.84375 53.03125 27.546875 53.03125 
Q 35.984375 53.03125 41.359375 48.75 
Q 46.734375 44.484375 48.25 36.625 
L 39.703125 35.296875 
Q 38.484375 40.53125 35.375 43.15625 
Q 32.28125 45.796875 27.875 45.796875 
Q 21.234375 45.796875 17.078125 41.03125 
Q 12.9375 36.28125 12.9375 25.984375 
Q 12.9375 15.53125 16.9375 10.796875 
Q 20.953125 6.0625 27.390625 6.0625 
Q 32.5625 6.0625 36.03125 9.234375 
Q 39.5 12.40625 40.4375 19 
z
" id="ArialMT-99"/>
       <path d="M 6.59375 0 
L 6.59375 71.578125 
L 15.375 71.578125 
L 15.375 45.90625 
Q 21.53125 53.03125 30.90625 53.03125 
Q 36.671875 53.03125 40.921875 50.75 
Q 45.171875 48.484375 47 44.484375 
Q 48.828125 40.484375 48.828125 32.859375 
L 48.828125 0 
L 40.046875 0 
L 40.046875 32.859375 
Q 40.046875 39.453125 37.1875 42.453125 
Q 34.328125 45.453125 29.109375 45.453125 
Q 25.203125 45.453125 21.75 43.421875 
Q 18.3125 41.40625 16.84375 37.9375 
Q 15.375 34.46875 15.375 28.375 
L 15.375 0 
z
" id="ArialMT-104"/>
      </defs>
      <use xlink:href="#ArialMT-101"/>
      <use x="55.615234" xlink:href="#ArialMT-112"/>
      <use x="111.230469" xlink:href="#ArialMT-111"/>
      <use x="166.845703" xlink:href="#ArialMT-99"/>
      <use x="216.845703" xlink:href="#ArialMT-104"/>
     </g>
    </g>
   </g>
   <g id="matplotlib.axis_2">
    <g id="ytick_1">
     <g id="line2d_7">
      <path clip-path="url(#pb693d8e25d)" d="M 66.966 270.852 
L 438.911307 270.852 
" style="fill:none;stroke:#cccccc;stroke-linecap:round;stroke-width:0.8;"/>
     </g>
     <g id="text_8">
      <!-- 0 -->
      <g style="fill:#262626;" transform="translate(48.87875 277.150875)scale(0.176 -0.176)">
       <use xlink:href="#ArialMT-48"/>
      </g>
     </g>
    </g>
    <g id="ytick_2">
     <g id="line2d_8">
      <path clip-path="url(#pb693d8e25d)" d="M 66.966 224.7648 
L 438.911307 224.7648 
" style="fill:none;stroke:#cccccc;stroke-linecap:round;stroke-width:0.8;"/>
     </g>
     <g id="text_9">
      <!-- 10 -->
      <g style="fill:#262626;" transform="translate(39.0915 231.063675)scale(0.176 -0.176)">
       <use xlink:href="#ArialMT-49"/>
       <use x="55.615234" xlink:href="#ArialMT-48"/>
      </g>
     </g>
    </g>
    <g id="ytick_3">
     <g id="line2d_9">
      <path clip-path="url(#pb693d8e25d)" d="M 66.966 178.6776 
L 438.911307 178.6776 
" style="fill:none;stroke:#cccccc;stroke-linecap:round;stroke-width:0.8;"/>
     </g>
     <g id="text_10">
      <!-- 20 -->
      <g style="fill:#262626;" transform="translate(39.0915 184.976475)scale(0.176 -0.176)">
       <use xlink:href="#ArialMT-50"/>
       <use x="55.615234" xlink:href="#ArialMT-48"/>
      </g>
     </g>
    </g>
    <g id="ytick_4">
     <g id="line2d_10">
      <path clip-path="url(#pb693d8e25d)" d="M 66.966 132.5904 
L 438.911307 132.5904 
" style="fill:none;stroke:#cccccc;stroke-linecap:round;stroke-width:0.8;"/>
     </g>
     <g id="text_11">
      <!-- 30 -->
      <g style="fill:#262626;" transform="translate(39.0915 138.889275)scale(0.176 -0.176)">
       <defs>
        <path d="M 4.203125 18.890625 
L 12.984375 20.0625 
Q 14.5 12.59375 18.140625 9.296875 
Q 21.78125 6 27 6 
Q 33.203125 6 37.46875 10.296875 
Q 41.75 14.59375 41.75 20.953125 
Q 41.75 27 37.796875 30.921875 
Q 33.84375 34.859375 27.734375 34.859375 
Q 25.25 34.859375 21.53125 33.890625 
L 22.515625 41.609375 
Q 23.390625 41.5 23.921875 41.5 
Q 29.546875 41.5 34.03125 44.421875 
Q 38.53125 47.359375 38.53125 53.46875 
Q 38.53125 58.296875 35.25 61.46875 
Q 31.984375 64.65625 26.8125 64.65625 
Q 21.6875 64.65625 18.265625 61.421875 
Q 14.84375 58.203125 13.875 51.765625 
L 5.078125 53.328125 
Q 6.6875 62.15625 12.390625 67.015625 
Q 18.109375 71.875 26.609375 71.875 
Q 32.46875 71.875 37.390625 69.359375 
Q 42.328125 66.84375 44.9375 62.5 
Q 47.5625 58.15625 47.5625 53.265625 
Q 47.5625 48.640625 45.0625 44.828125 
Q 42.578125 41.015625 37.703125 38.765625 
Q 44.046875 37.3125 47.5625 32.6875 
Q 51.078125 28.078125 51.078125 21.140625 
Q 51.078125 11.765625 44.234375 5.25 
Q 37.40625 -1.265625 26.953125 -1.265625 
Q 17.53125 -1.265625 11.296875 4.34375 
Q 5.078125 9.96875 4.203125 18.890625 
z
" id="ArialMT-51"/>
       </defs>
       <use xlink:href="#ArialMT-51"/>
       <use x="55.615234" xlink:href="#ArialMT-48"/>
      </g>
     </g>
    </g>
    <g id="ytick_5">
     <g id="line2d_11">
      <path clip-path="url(#pb693d8e25d)" d="M 66.966 86.5032 
L 438.911307 86.5032 
" style="fill:none;stroke:#cccccc;stroke-linecap:round;stroke-width:0.8;"/>
     </g>
     <g id="text_12">
      <!-- 40 -->
      <g style="fill:#262626;" transform="translate(39.0915 92.802075)scale(0.176 -0.176)">
       <use xlink:href="#ArialMT-52"/>
       <use x="55.615234" xlink:href="#ArialMT-48"/>
      </g>
     </g>
    </g>
    <g id="ytick_6">
     <g id="line2d_12">
      <path clip-path="url(#pb693d8e25d)" d="M 66.966 40.416 
L 438.911307 40.416 
" style="fill:none;stroke:#cccccc;stroke-linecap:round;stroke-width:0.8;"/>
     </g>
     <g id="text_13">
      <!-- 50 -->
      <g style="fill:#262626;" transform="translate(39.0915 46.714875)scale(0.176 -0.176)">
       <defs>
        <path d="M 4.15625 18.75 
L 13.375 19.53125 
Q 14.40625 12.796875 18.140625 9.390625 
Q 21.875 6 27.15625 6 
Q 33.5 6 37.890625 10.78125 
Q 42.28125 15.578125 42.28125 23.484375 
Q 42.28125 31 38.0625 35.34375 
Q 33.84375 39.703125 27 39.703125 
Q 22.75 39.703125 19.328125 37.765625 
Q 15.921875 35.84375 13.96875 32.765625 
L 5.71875 33.84375 
L 12.640625 70.609375 
L 48.25 70.609375 
L 48.25 62.203125 
L 19.671875 62.203125 
L 15.828125 42.96875 
Q 22.265625 47.46875 29.34375 47.46875 
Q 38.71875 47.46875 45.15625 40.96875 
Q 51.609375 34.46875 51.609375 24.265625 
Q 51.609375 14.546875 45.953125 7.46875 
Q 39.0625 -1.21875 27.15625 -1.21875 
Q 17.390625 -1.21875 11.203125 4.25 
Q 5.03125 9.71875 4.15625 18.75 
z
" id="ArialMT-53"/>
       </defs>
       <use xlink:href="#ArialMT-53"/>
       <use x="55.615234" xlink:href="#ArialMT-48"/>
      </g>
     </g>
    </g>
    <g id="text_14">
     <!-- Validation TMCC -->
     <g style="fill:#262626;" transform="translate(31.9115 215.3665)rotate(-90)scale(0.16 -0.16)">
      <defs>
       <path d="M 28.171875 0 
L 0.4375 71.578125 
L 10.6875 71.578125 
L 29.296875 19.578125 
Q 31.546875 13.328125 33.0625 7.859375 
Q 34.71875 13.71875 36.921875 19.578125 
L 56.25 71.578125 
L 65.921875 71.578125 
L 37.890625 0 
z
" id="ArialMT-86"/>
       <path d="M 40.4375 6.390625 
Q 35.546875 2.25 31.03125 0.53125 
Q 26.515625 -1.171875 21.34375 -1.171875 
Q 12.796875 -1.171875 8.203125 3 
Q 3.609375 7.171875 3.609375 13.671875 
Q 3.609375 17.484375 5.34375 20.625 
Q 7.078125 23.78125 9.890625 25.6875 
Q 12.703125 27.59375 16.21875 28.5625 
Q 18.796875 29.25 24.03125 29.890625 
Q 34.671875 31.15625 39.703125 32.90625 
Q 39.75 34.71875 39.75 35.203125 
Q 39.75 40.578125 37.25 42.78125 
Q 33.890625 45.75 27.25 45.75 
Q 21.046875 45.75 18.09375 43.578125 
Q 15.140625 41.40625 13.71875 35.890625 
L 5.125 37.0625 
Q 6.296875 42.578125 8.984375 45.96875 
Q 11.671875 49.359375 16.75 51.1875 
Q 21.828125 53.03125 28.515625 53.03125 
Q 35.15625 53.03125 39.296875 51.46875 
Q 43.453125 49.90625 45.40625 47.53125 
Q 47.359375 45.171875 48.140625 41.546875 
Q 48.578125 39.3125 48.578125 33.453125 
L 48.578125 21.734375 
Q 48.578125 9.46875 49.140625 6.21875 
Q 49.703125 2.984375 51.375 0 
L 42.1875 0 
Q 40.828125 2.734375 40.4375 6.390625 
z
M 39.703125 26.03125 
Q 34.90625 24.078125 25.34375 22.703125 
Q 19.921875 21.921875 17.671875 20.9375 
Q 15.4375 19.96875 14.203125 18.09375 
Q 12.984375 16.21875 12.984375 13.921875 
Q 12.984375 10.40625 15.640625 8.0625 
Q 18.3125 5.71875 23.4375 5.71875 
Q 28.515625 5.71875 32.46875 7.9375 
Q 36.421875 10.15625 38.28125 14.015625 
Q 39.703125 17 39.703125 22.796875 
z
" id="ArialMT-97"/>
       <path d="M 6.390625 0 
L 6.390625 71.578125 
L 15.1875 71.578125 
L 15.1875 0 
z
" id="ArialMT-108"/>
       <path d="M 6.640625 61.46875 
L 6.640625 71.578125 
L 15.4375 71.578125 
L 15.4375 61.46875 
z
M 6.640625 0 
L 6.640625 51.859375 
L 15.4375 51.859375 
L 15.4375 0 
z
" id="ArialMT-105"/>
       <path d="M 40.234375 0 
L 40.234375 6.546875 
Q 35.296875 -1.171875 25.734375 -1.171875 
Q 19.53125 -1.171875 14.328125 2.25 
Q 9.125 5.671875 6.265625 11.796875 
Q 3.421875 17.921875 3.421875 25.875 
Q 3.421875 33.640625 6 39.96875 
Q 8.59375 46.296875 13.765625 49.65625 
Q 18.953125 53.03125 25.34375 53.03125 
Q 30.03125 53.03125 33.6875 51.046875 
Q 37.359375 49.078125 39.65625 45.90625 
L 39.65625 71.578125 
L 48.390625 71.578125 
L 48.390625 0 
z
M 12.453125 25.875 
Q 12.453125 15.921875 16.640625 10.984375 
Q 20.84375 6.0625 26.5625 6.0625 
Q 32.328125 6.0625 36.34375 10.765625 
Q 40.375 15.484375 40.375 25.140625 
Q 40.375 35.796875 36.265625 40.765625 
Q 32.171875 45.75 26.171875 45.75 
Q 20.3125 45.75 16.375 40.96875 
Q 12.453125 36.1875 12.453125 25.875 
z
" id="ArialMT-100"/>
       <path d="M 25.78125 7.859375 
L 27.046875 0.09375 
Q 23.34375 -0.6875 20.40625 -0.6875 
Q 15.625 -0.6875 12.984375 0.828125 
Q 10.359375 2.34375 9.28125 4.8125 
Q 8.203125 7.28125 8.203125 15.1875 
L 8.203125 45.015625 
L 1.765625 45.015625 
L 1.765625 51.859375 
L 8.203125 51.859375 
L 8.203125 64.703125 
L 16.9375 69.96875 
L 16.9375 51.859375 
L 25.78125 51.859375 
L 25.78125 45.015625 
L 16.9375 45.015625 
L 16.9375 14.703125 
Q 16.9375 10.9375 17.40625 9.859375 
Q 17.875 8.796875 18.921875 8.15625 
Q 19.96875 7.515625 21.921875 7.515625 
Q 23.390625 7.515625 25.78125 7.859375 
z
" id="ArialMT-116"/>
       <path d="M 6.59375 0 
L 6.59375 51.859375 
L 14.5 51.859375 
L 14.5 44.484375 
Q 20.21875 53.03125 31 53.03125 
Q 35.6875 53.03125 39.625 51.34375 
Q 43.5625 49.65625 45.515625 46.921875 
Q 47.46875 44.1875 48.25 40.4375 
Q 48.734375 37.984375 48.734375 31.890625 
L 48.734375 0 
L 39.9375 0 
L 39.9375 31.546875 
Q 39.9375 36.921875 38.90625 39.578125 
Q 37.890625 42.234375 35.28125 43.8125 
Q 32.671875 45.40625 29.15625 45.40625 
Q 23.53125 45.40625 19.453125 41.84375 
Q 15.375 38.28125 15.375 28.328125 
L 15.375 0 
z
" id="ArialMT-110"/>
       <path id="ArialMT-32"/>
       <path d="M 25.921875 0 
L 25.921875 63.140625 
L 2.34375 63.140625 
L 2.34375 71.578125 
L 59.078125 71.578125 
L 59.078125 63.140625 
L 35.40625 63.140625 
L 35.40625 0 
z
" id="ArialMT-84"/>
       <path d="M 7.421875 0 
L 7.421875 71.578125 
L 21.6875 71.578125 
L 38.625 20.90625 
Q 40.96875 13.8125 42.046875 10.296875 
Q 43.265625 14.203125 45.84375 21.78125 
L 62.984375 71.578125 
L 75.734375 71.578125 
L 75.734375 0 
L 66.609375 0 
L 66.609375 59.90625 
L 45.796875 0 
L 37.25 0 
L 16.546875 60.9375 
L 16.546875 0 
z
" id="ArialMT-77"/>
       <path d="M 58.796875 25.09375 
L 68.265625 22.703125 
Q 65.28125 11.03125 57.546875 4.90625 
Q 49.8125 -1.21875 38.625 -1.21875 
Q 27.046875 -1.21875 19.796875 3.484375 
Q 12.546875 8.203125 8.765625 17.140625 
Q 4.984375 26.078125 4.984375 36.328125 
Q 4.984375 47.515625 9.25 55.828125 
Q 13.53125 64.15625 21.40625 68.46875 
Q 29.296875 72.796875 38.765625 72.796875 
Q 49.515625 72.796875 56.828125 67.328125 
Q 64.15625 61.859375 67.046875 51.953125 
L 57.71875 49.75 
Q 55.21875 57.5625 50.484375 61.125 
Q 45.75 64.703125 38.578125 64.703125 
Q 30.328125 64.703125 24.78125 60.734375 
Q 19.234375 56.78125 16.984375 50.109375 
Q 14.75 43.453125 14.75 36.375 
Q 14.75 27.25 17.40625 20.4375 
Q 20.0625 13.625 25.671875 10.25 
Q 31.296875 6.890625 37.84375 6.890625 
Q 45.796875 6.890625 51.3125 11.46875 
Q 56.84375 16.0625 58.796875 25.09375 
z
" id="ArialMT-67"/>
      </defs>
      <use xlink:href="#ArialMT-86"/>
      <use x="59.324219" xlink:href="#ArialMT-97"/>
      <use x="114.939453" xlink:href="#ArialMT-108"/>
      <use x="137.15625" xlink:href="#ArialMT-105"/>
      <use x="159.373047" xlink:href="#ArialMT-100"/>
      <use x="214.988281" xlink:href="#ArialMT-97"/>
      <use x="270.603516" xlink:href="#ArialMT-116"/>
      <use x="298.386719" xlink:href="#ArialMT-105"/>
      <use x="320.603516" xlink:href="#ArialMT-111"/>
      <use x="376.21875" xlink:href="#ArialMT-110"/>
      <use x="431.833984" xlink:href="#ArialMT-32"/>
      <use x="457.867188" xlink:href="#ArialMT-84"/>
      <use x="518.951172" xlink:href="#ArialMT-77"/>
      <use x="602.251953" xlink:href="#ArialMT-67"/>
      <use x="674.46875" xlink:href="#ArialMT-67"/>
     </g>
    </g>
   </g>
   <g id="PolyCollection_1"/>
   <g id="PolyCollection_2"/>
   <g id="PolyCollection_3"/>
   <g id="PolyCollection_4"/>
   <g id="PolyCollection_5"/>
   <g id="PolyCollection_6"/>
   <g id="PolyCollection_7"/>
   <g id="PolyCollection_8"/>
   <g id="line2d_13">
    <path clip-path="url(#pb693d8e25d)" d="M 83.872605 168.959325 
L 87.288081 167.431364 
L 90.703556 164.698897 
L 94.119032 162.219694 
L 97.534508 159.668678 
L 100.949984 157.209947 
L 104.365459 155.008237 
L 107.780935 153.161144 
L 111.196411 151.50894 
L 114.611886 150.190434 
L 118.027362 148.873196 
L 121.442838 147.762495 
L 124.858314 146.818371 
L 128.273789 145.853051 
L 131.689265 144.954004 
L 135.104741 144.223796 
L 138.520217 143.492616 
L 141.935692 142.819618 
L 145.351168 142.173898 
L 148.766644 141.606782 
L 152.182119 141.003528 
L 155.597595 140.400698 
L 159.013071 139.799953 
L 162.428547 139.255061 
L 165.844022 138.77951 
L 169.259498 138.33547 
L 172.674974 137.858388 
L 176.09045 137.43424 
L 179.505925 136.991779 
L 182.921401 136.600751 
L 186.336877 136.153545 
L 189.752353 135.77 
L 193.167828 135.38043 
L 196.583304 134.980764 
L 199.99878 134.587157 
L 203.414255 134.204467 
L 206.829731 133.797632 
L 210.245207 133.420754 
L 213.660683 133.057745 
L 217.076158 132.70578 
L 220.491634 132.370031 
L 223.90711 132.036532 
L 227.322586 131.732152 
L 230.738061 131.409104 
L 234.153537 131.099317 
L 237.569013 130.794619 
L 240.984488 130.492641 
L 244.399964 130.160814 
L 247.81544 129.869307 
L 251.230916 129.571272 
L 254.646391 129.289714 
L 258.061867 129.006879 
L 261.477343 128.760701 
L 264.892819 128.485378 
L 268.308294 128.245063 
L 271.72377 127.985032 
L 275.139246 127.773096 
L 278.554721 127.545658 
L 281.970197 127.362589 
L 285.385673 127.142756 
L 288.801149 126.924629 
L 292.216624 126.705227 
L 295.6321 126.509697 
L 299.047576 126.331873 
L 302.463052 126.153223 
L 305.878527 125.968617 
L 309.294003 125.779152 
L 312.709479 125.597907 
L 316.124955 125.422154 
L 319.54043 125.256136 
L 322.955906 125.117623 
L 326.371382 124.95012 
L 329.786857 124.780992 
L 333.202333 124.680363 
L 336.617809 124.498197 
L 340.033285 124.376894 
L 343.44876 124.245642 
L 346.864236 124.130529 
L 350.279712 123.990608 
L 353.695188 123.892051 
L 357.110663 123.751629 
L 360.526139 123.645771 
L 363.941615 123.512909 
L 367.35709 123.43125 
L 370.772566 123.316674 
L 374.188042 123.22027 
L 377.603518 123.122249 
L 381.018993 123.040339 
L 384.434469 122.939903 
L 387.849945 122.858296 
L 391.265421 122.771579 
L 394.680896 122.694328 
L 398.096372 122.640204 
L 401.511848 122.549962 
L 404.927324 122.477427 
L 408.342799 122.40171 
L 411.758275 122.328415 
L 415.173751 122.274356 
L 418.589226 122.186542 
L 422.004702 122.110423 
" style="fill:none;stroke:#0173b2;stroke-linecap:round;stroke-width:2.5;"/>
   </g>
   <g id="line2d_14">
    <path clip-path="url(#pb693d8e25d)" d="M 83.872605 168.217561 
L 87.288081 166.889955 
L 90.703556 165.151873 
L 94.119032 162.685405 
L 97.534508 160.474167 
L 100.949984 158.671793 
L 104.365459 156.915586 
L 107.780935 155.837292 
L 111.196411 154.287704 
L 114.611886 152.932582 
L 118.027362 151.729598 
L 121.442838 150.544281 
L 124.858314 149.495986 
L 128.273789 148.156424 
L 131.689265 147.087827 
L 135.104741 146.064845 
L 138.520217 145.099563 
L 141.935692 144.180929 
L 145.351168 143.348528 
L 148.766644 142.495772 
L 152.182119 141.649268 
L 155.597595 140.88745 
L 159.013071 140.153481 
L 162.428547 139.481158 
L 165.844022 138.641909 
L 169.259498 137.841215 
L 172.674974 137.130186 
L 176.09045 136.39723 
L 179.505925 135.718868 
L 182.921401 135.056588 
L 186.336877 134.407606 
L 189.752353 133.818298 
L 193.167828 133.189657 
L 196.583304 132.666825 
L 199.99878 132.140222 
L 203.414255 131.666558 
L 206.829731 131.277077 
L 210.245207 130.742317 
L 213.660683 130.285588 
L 217.076158 129.784963 
L 220.491634 129.321247 
L 223.90711 128.836054 
L 227.322586 128.50046 
L 230.738061 128.067143 
L 234.153537 127.735945 
L 237.569013 127.312091 
L 240.984488 127.217079 
L 244.399964 126.713214 
L 247.81544 126.514142 
L 251.230916 126.206969 
L 254.646391 125.978513 
L 258.061867 125.682041 
L 261.477343 125.46515 
L 264.892819 125.2153 
L 268.308294 124.88051 
L 271.72377 124.6581 
L 275.139246 124.401356 
L 278.554721 124.243041 
L 281.970197 124.080871 
L 285.385673 123.945659 
L 288.801149 123.804313 
L 292.216624 123.622814 
L 295.6321 123.448207 
L 299.047576 123.220804 
L 302.463052 123.056987 
L 305.878527 122.883857 
L 309.294003 122.841171 
L 312.709479 122.824456 
L 316.124955 122.585377 
L 319.54043 122.407667 
L 322.955906 122.327557 
L 326.371382 122.18096 
L 329.786857 122.119622 
L 333.202333 121.992133 
L 336.617809 121.905664 
L 340.033285 121.749812 
L 343.44876 121.947117 
L 346.864236 121.65316 
L 350.279712 121.554845 
L 353.695188 121.444515 
L 357.110663 121.387204 
L 360.526139 121.379642 
L 363.941615 121.339681 
L 367.35709 121.274785 
L 370.772566 121.291056 
L 374.188042 121.165079 
L 377.603518 121.167233 
L 381.018993 121.115666 
L 384.434469 121.081185 
L 387.849945 120.921557 
L 391.265421 120.82405 
L 394.680896 120.809704 
L 398.096372 120.788464 
L 401.511848 120.730671 
L 404.927324 120.744959 
L 408.342799 120.619414 
L 411.758275 120.520015 
L 415.173751 120.43963 
L 418.589226 120.426263 
L 422.004702 120.38566 
" style="fill:none;stroke:#0173b2;stroke-dasharray:10,3.75;stroke-dashoffset:0;stroke-width:2.5;"/>
   </g>
   <g id="line2d_15">
    <path clip-path="url(#pb693d8e25d)" d="M 83.872605 171.998621 
L 87.288081 171.689378 
L 90.703556 171.540821 
L 94.119032 171.313744 
L 97.534508 171.22605 
L 100.949984 171.120685 
L 104.365459 171.006374 
L 107.780935 170.745247 
L 111.196411 170.784148 
L 114.611886 170.685723 
L 118.027362 170.634603 
L 121.442838 170.610825 
L 124.858314 170.439072 
L 128.273789 170.437988 
L 131.689265 170.433433 
L 135.104741 170.326231 
L 138.520217 170.408014 
L 141.935692 170.376445 
L 145.351168 170.347618 
L 148.766644 170.388229 
L 152.182119 170.384066 
L 155.597595 170.432253 
L 159.013071 170.378054 
L 162.428547 170.455744 
L 165.844022 170.254487 
L 169.259498 170.261744 
L 172.674974 170.097045 
L 176.09045 170.100991 
L 179.505925 170.089536 
L 182.921401 170.157568 
L 186.336877 170.129443 
L 189.752353 170.389775 
L 193.167828 170.427881 
L 196.583304 170.263055 
L 199.99878 170.258411 
L 203.414255 170.273453 
L 206.829731 170.304879 
L 210.245207 170.296947 
L 213.660683 170.301985 
L 217.076158 170.342219 
L 220.491634 170.346323 
L 223.90711 170.330506 
L 227.322586 170.317689 
L 230.738061 170.294749 
L 234.153537 170.362609 
L 237.569013 170.398594 
L 240.984488 170.273807 
L 244.399964 170.142667 
L 247.81544 170.022224 
L 251.230916 170.010338 
L 254.646391 169.920662 
L 258.061867 169.819035 
L 261.477343 169.893623 
L 264.892819 169.806886 
L 268.308294 169.626871 
L 271.72377 169.535953 
L 275.139246 169.448602 
L 278.554721 169.464867 
L 281.970197 169.424797 
L 285.385673 169.565778 
L 288.801149 169.407997 
L 292.216624 169.1343 
L 295.6321 169.091138 
L 299.047576 169.037419 
L 302.463052 169.157033 
L 305.878527 168.914294 
L 309.294003 168.926676 
L 312.709479 168.97655 
L 316.124955 169.033403 
L 319.54043 168.982416 
L 322.955906 168.913398 
L 326.371382 168.922192 
L 329.786857 168.925329 
L 333.202333 168.926598 
L 336.617809 168.772359 
L 340.033285 168.614708 
L 343.44876 168.662028 
L 346.864236 168.525409 
L 350.279712 168.570608 
L 353.695188 168.646253 
L 357.110663 168.625541 
L 360.526139 168.597874 
L 363.941615 168.688268 
L 367.35709 168.586038 
L 370.772566 168.541854 
L 374.188042 168.470497 
L 377.603518 168.507418 
L 381.018993 168.453065 
L 384.434469 168.449157 
L 387.849945 168.525302 
L 391.265421 168.507516 
L 394.680896 168.448282 
L 398.096372 168.438093 
L 401.511848 168.464892 
L 404.927324 168.493238 
L 408.342799 168.467749 
L 411.758275 168.406964 
L 415.173751 168.424783 
L 418.589226 168.358886 
L 422.004702 168.322639 
" style="fill:none;stroke:#de8f05;stroke-linecap:round;stroke-width:2.5;"/>
   </g>
   <g id="line2d_16">
    <path clip-path="url(#pb693d8e25d)" d="M 83.872605 150.898957 
L 87.288081 145.134574 
L 90.703556 142.816287 
L 94.119032 141.880719 
L 97.534508 141.359654 
L 100.949984 141.285693 
L 104.365459 141.041794 
L 107.780935 140.735039 
L 111.196411 140.055328 
L 114.611886 140.057179 
L 118.027362 139.92052 
L 121.442838 139.503917 
L 124.858314 139.569678 
L 128.273789 139.642751 
L 131.689265 139.731528 
L 135.104741 139.373455 
L 138.520217 139.209406 
L 141.935692 139.430612 
L 145.351168 139.639462 
L 148.766644 139.31376 
L 152.182119 138.784394 
L 155.597595 139.235781 
L 159.013071 138.983821 
L 162.428547 139.18504 
L 165.844022 139.252086 
L 169.259498 139.112347 
L 172.674974 139.159995 
L 176.09045 139.061175 
L 179.505925 138.914343 
L 182.921401 139.19746 
L 186.336877 139.041988 
L 189.752353 139.325534 
L 193.167828 139.510521 
L 196.583304 139.372744 
L 199.99878 138.928327 
L 203.414255 139.106999 
L 206.829731 138.81194 
L 210.245207 139.296195 
L 213.660683 139.144903 
L 217.076158 138.980578 
L 220.491634 139.320321 
L 223.90711 139.286108 
L 227.322586 139.039389 
L 230.738061 139.410456 
L 234.153537 139.364259 
L 237.569013 139.371644 
L 240.984488 139.045318 
L 244.399964 139.370767 
L 247.81544 139.246001 
L 251.230916 139.666496 
L 254.646391 139.290305 
L 258.061867 139.806345 
L 261.477343 139.53226 
L 264.892819 139.926075 
L 268.308294 139.893956 
L 271.72377 139.884778 
L 275.139246 140.006233 
L 278.554721 140.095106 
L 281.970197 139.610374 
L 285.385673 139.85119 
L 288.801149 140.334567 
L 292.216624 139.94237 
L 295.6321 140.187996 
L 299.047576 139.918148 
L 302.463052 140.074167 
L 305.878527 139.781777 
L 309.294003 139.648125 
L 312.709479 139.723093 
L 316.124955 140.051422 
L 319.54043 139.894205 
L 322.955906 139.980353 
L 326.371382 139.718126 
L 329.786857 140.034751 
L 333.202333 139.930268 
L 336.617809 139.652404 
L 340.033285 139.806927 
L 343.44876 139.79923 
L 346.864236 139.805316 
L 350.279712 140.03433 
L 353.695188 139.820592 
L 357.110663 140.153001 
L 360.526139 139.836099 
L 363.941615 140.110718 
L 367.35709 139.790441 
L 370.772566 140.269754 
L 374.188042 140.262229 
L 377.603518 139.958356 
L 381.018993 140.307615 
L 384.434469 140.002036 
L 387.849945 140.05629 
L 391.265421 140.023983 
L 394.680896 140.008308 
L 398.096372 140.104943 
L 401.511848 140.074107 
L 404.927324 140.234376 
L 408.342799 140.379242 
L 411.758275 140.092382 
L 415.173751 140.227012 
L 418.589226 140.515641 
L 422.004702 140.313242 
" style="fill:none;stroke:#de8f05;stroke-dasharray:10,3.75;stroke-dashoffset:0;stroke-width:2.5;"/>
   </g>
   <g id="line2d_17">
    <path clip-path="url(#pb693d8e25d)" d="M 83.872605 170.338629 
L 87.288081 169.668403 
L 90.703556 169.759284 
L 94.119032 169.433334 
L 97.534508 169.211436 
L 100.949984 169.302954 
L 104.365459 169.419433 
L 107.780935 169.322688 
L 111.196411 169.378061 
L 114.611886 169.440402 
L 118.027362 169.322057 
L 121.442838 169.246623 
L 124.858314 169.053602 
L 128.273789 169.074768 
L 131.689265 169.0501 
L 135.104741 169.237439 
L 138.520217 169.077888 
L 141.935692 168.969045 
L 145.351168 169.026461 
L 148.766644 168.976996 
L 152.182119 168.845289 
L 155.597595 168.479432 
L 159.013071 168.493036 
L 162.428547 168.478973 
L 165.844022 168.272977 
L 169.259498 168.026492 
L 172.674974 168.034367 
L 176.09045 167.635809 
L 179.505925 167.865752 
L 182.921401 167.62656 
L 186.336877 167.745711 
L 189.752353 168.167114 
L 193.167828 167.942389 
L 196.583304 168.079386 
L 199.99878 168.217391 
L 203.414255 168.570017 
L 206.829731 168.094121 
L 210.245207 167.98696 
L 213.660683 167.94971 
L 217.076158 168.098654 
L 220.491634 168.205444 
L 223.90711 167.943261 
L 227.322586 168.164594 
L 230.738061 168.039842 
L 234.153537 167.854612 
L 237.569013 167.804458 
L 240.984488 167.837698 
L 244.399964 167.982932 
L 247.81544 167.91593 
L 251.230916 167.97521 
L 254.646391 167.987562 
L 258.061867 167.970957 
L 261.477343 167.92109 
L 264.892819 168.075849 
L 268.308294 167.816197 
L 271.72377 167.714069 
L 275.139246 167.663418 
L 278.554721 167.634214 
L 281.970197 167.688603 
L 285.385673 167.820113 
L 288.801149 167.765468 
L 292.216624 167.636413 
L 295.6321 167.616486 
L 299.047576 167.608456 
L 302.463052 167.435581 
L 305.878527 167.794014 
L 309.294003 167.871165 
L 312.709479 167.862743 
L 316.124955 167.616802 
L 319.54043 167.626811 
L 322.955906 167.60478 
L 326.371382 167.211374 
L 329.786857 167.286522 
L 333.202333 167.318069 
L 336.617809 167.29635 
L 340.033285 167.618373 
L 343.44876 167.35003 
L 346.864236 167.580495 
L 350.279712 167.229101 
L 353.695188 167.154317 
L 357.110663 167.126283 
L 360.526139 167.100149 
L 363.941615 167.172803 
L 367.35709 167.183145 
L 370.772566 167.10571 
L 374.188042 167.120225 
L 377.603518 167.127746 
L 381.018993 167.23688 
L 384.434469 167.350454 
L 387.849945 167.276302 
L 391.265421 167.304914 
L 394.680896 167.331332 
L 398.096372 167.719623 
L 401.511848 167.59212 
L 404.927324 167.467275 
L 408.342799 167.203087 
L 411.758275 167.084702 
L 415.173751 167.047206 
L 418.589226 167.28826 
L 422.004702 167.438279 
" style="fill:none;stroke:#029e73;stroke-linecap:round;stroke-width:2.5;"/>
   </g>
   <g id="line2d_18">
    <path clip-path="url(#pb693d8e25d)" d="M 83.872605 150.566212 
L 87.288081 145.516269 
L 90.703556 143.527415 
L 94.119032 143.786562 
L 97.534508 143.716163 
L 100.949984 144.059109 
L 104.365459 143.653661 
L 107.780935 143.860537 
L 111.196411 143.767135 
L 114.611886 144.281335 
L 118.027362 144.04374 
L 121.442838 142.764825 
L 124.858314 142.965589 
L 128.273789 142.521047 
L 131.689265 142.339131 
L 135.104741 142.173809 
L 138.520217 142.548127 
L 141.935692 142.670198 
L 145.351168 142.397512 
L 148.766644 141.774753 
L 152.182119 142.420232 
L 155.597595 142.41516 
L 159.013071 141.525751 
L 162.428547 141.495877 
L 165.844022 141.91925 
L 169.259498 142.101994 
L 172.674974 141.41291 
L 176.09045 141.990072 
L 179.505925 141.874361 
L 182.921401 142.029862 
L 186.336877 141.520989 
L 189.752353 141.756343 
L 193.167828 141.320518 
L 196.583304 141.320059 
L 199.99878 141.35328 
L 203.414255 141.521804 
L 206.829731 141.57755 
L 210.245207 141.417259 
L 213.660683 140.933005 
L 217.076158 141.166127 
L 220.491634 141.494899 
L 223.90711 141.098476 
L 227.322586 140.807327 
L 230.738061 140.689854 
L 234.153537 140.654882 
L 237.569013 140.485383 
L 240.984488 140.703684 
L 244.399964 140.872916 
L 247.81544 141.096188 
L 251.230916 140.860941 
L 254.646391 140.828523 
L 258.061867 140.52012 
L 261.477343 140.789635 
L 264.892819 140.828556 
L 268.308294 141.354751 
L 271.72377 141.119706 
L 275.139246 140.909063 
L 278.554721 140.7524 
L 281.970197 142.176268 
L 285.385673 141.731684 
L 288.801149 141.560562 
L 292.216624 141.81619 
L 295.6321 141.119594 
L 299.047576 140.833295 
L 302.463052 141.236722 
L 305.878527 141.173389 
L 309.294003 141.214462 
L 312.709479 141.02784 
L 316.124955 140.767423 
L 319.54043 140.512175 
L 322.955906 140.727282 
L 326.371382 140.507104 
L 329.786857 140.499688 
L 333.202333 140.626995 
L 336.617809 141.014063 
L 340.033285 140.88315 
L 343.44876 140.800351 
L 346.864236 140.669815 
L 350.279712 141.122464 
L 353.695188 140.554136 
L 357.110663 140.254297 
L 360.526139 140.576162 
L 363.941615 140.523597 
L 367.35709 140.715811 
L 370.772566 140.842928 
L 374.188042 140.391534 
L 377.603518 140.280644 
L 381.018993 141.905048 
L 384.434469 141.779295 
L 387.849945 141.868199 
L 391.265421 141.145962 
L 394.680896 141.269629 
L 398.096372 141.497715 
L 401.511848 141.373273 
L 404.927324 140.968666 
L 408.342799 141.317338 
L 411.758275 141.511701 
L 415.173751 141.335393 
L 418.589226 140.203309 
L 422.004702 141.152905 
" style="fill:none;stroke:#029e73;stroke-dasharray:10,3.75;stroke-dashoffset:0;stroke-width:2.5;"/>
   </g>
   <g id="line2d_19"/>
   <g id="line2d_20"/>
   <g id="line2d_21"/>
   <g id="line2d_22"/>
   <g id="line2d_23"/>
   <g id="line2d_24">
    <path clip-path="url(#pb693d8e25d)" d="M 83.872605 169.647456 
L 87.288081 165.613877 
L 90.703556 162.628176 
L 94.119032 160.678985 
L 97.534508 159.045532 
L 100.949984 157.703784 
L 104.365459 156.737325 
L 107.780935 156.100526 
L 111.196411 155.425629 
L 114.611886 154.933263 
L 118.027362 154.679965 
L 121.442838 154.282881 
L 124.858314 154.086391 
L 128.273789 153.87315 
L 131.689265 153.864545 
L 135.104741 153.899399 
L 138.520217 154.055902 
L 141.935692 154.388949 
L 145.351168 158.130424 
L 148.766644 155.834959 
L 152.182119 154.556274 
L 155.597595 153.791645 
L 159.013071 153.093079 
L 162.428547 152.445815 
L 165.844022 151.923938 
L 169.259498 151.551873 
L 172.674974 151.159577 
L 176.09045 150.781395 
L 179.505925 150.461456 
L 182.921401 150.227728 
L 186.336877 149.994445 
L 189.752353 149.780989 
L 193.167828 149.690093 
L 196.583304 149.680506 
L 199.99878 149.572484 
L 203.414255 149.836845 
L 206.829731 149.734091 
L 210.245207 149.698102 
L 213.660683 149.905095 
L 217.076158 149.74261 
L 220.491634 149.862926 
L 223.90711 150.083531 
L 227.322586 150.095241 
L 230.738061 150.013672 
L 234.153537 149.994555 
L 237.569013 150.056779 
L 240.984488 150.175569 
L 244.399964 149.79684 
L 247.81544 149.490876 
L 251.230916 149.37043 
L 254.646391 149.47046 
L 258.061867 148.75494 
L 261.477343 149.124486 
L 264.892819 148.892489 
L 268.308294 148.94165 
L 271.72377 148.831125 
L 275.139246 148.724397 
L 278.554721 148.247706 
L 281.970197 148.101474 
L 285.385673 148.312003 
L 288.801149 148.703255 
L 292.216624 147.899961 
L 295.6321 148.054307 
L 299.047576 147.704588 
L 302.463052 148.178716 
L 305.878527 147.812275 
L 309.294003 148.044091 
L 312.709479 147.773787 
L 316.124955 147.570882 
L 319.54043 147.565833 
L 322.955906 147.773005 
L 326.371382 147.342131 
L 329.786857 147.168186 
L 333.202333 147.384394 
L 336.617809 147.252419 
L 340.033285 147.524587 
L 343.44876 147.52878 
L 346.864236 147.405684 
L 350.279712 147.440991 
L 353.695188 147.456885 
L 357.110663 147.032243 
L 360.526139 146.902302 
L 363.941615 146.831787 
L 367.35709 146.777933 
L 370.772566 146.708658 
L 374.188042 146.592736 
L 377.603518 146.491876 
L 381.018993 146.274999 
L 384.434469 147.037455 
L 387.849945 146.550441 
L 391.265421 146.369108 
L 394.680896 146.4731 
L 398.096372 146.780052 
L 401.511848 146.421033 
L 404.927324 146.558675 
L 408.342799 146.718883 
L 411.758275 146.515436 
L 415.173751 146.881854 
L 418.589226 146.463295 
L 422.004702 147.150118 
" style="fill:none;stroke:#0173b2;stroke-linecap:round;stroke-width:2.5;"/>
   </g>
   <g id="line2d_25">
    <path clip-path="url(#pb693d8e25d)" d="M 83.872605 168.1266 
L 87.288081 168.133253 
L 90.703556 166.827347 
L 94.119032 166.404042 
L 97.534508 166.307577 
L 100.949984 166.406946 
L 104.365459 165.891379 
L 107.780935 166.187584 
L 111.196411 166.018117 
L 114.611886 165.736864 
L 118.027362 165.921008 
L 121.442838 165.513521 
L 124.858314 165.233887 
L 128.273789 165.299184 
L 131.689265 166.351236 
L 135.104741 166.242662 
L 138.520217 166.379963 
L 141.935692 166.301625 
L 145.351168 165.890868 
L 148.766644 166.066445 
L 152.182119 165.500914 
L 155.597595 165.736805 
L 159.013071 165.882821 
L 162.428547 165.716933 
L 165.844022 165.46917 
L 169.259498 165.648194 
L 172.674974 165.471736 
L 176.09045 165.622715 
L 179.505925 165.843019 
L 182.921401 165.89768 
L 186.336877 165.332834 
L 189.752353 165.202798 
L 193.167828 164.808048 
L 196.583304 164.664926 
L 199.99878 164.522334 
L 203.414255 164.632315 
L 206.829731 164.426807 
L 210.245207 164.460447 
L 213.660683 164.884889 
L 217.076158 164.614664 
L 220.491634 164.551662 
L 223.90711 164.569904 
L 227.322586 164.63586 
L 230.738061 164.579051 
L 234.153537 164.686594 
L 237.569013 165.100562 
L 240.984488 165.24053 
L 244.399964 165.077606 
L 247.81544 164.932501 
L 251.230916 164.882637 
L 254.646391 164.572943 
L 258.061867 165.22039 
L 261.477343 165.013942 
L 264.892819 164.982081 
L 268.308294 164.892484 
L 271.72377 164.223465 
L 275.139246 164.484354 
L 278.554721 164.497279 
L 281.970197 164.697114 
L 285.385673 164.108581 
L 288.801149 164.123889 
L 292.216624 164.282453 
L 295.6321 164.457763 
L 299.047576 164.186076 
L 302.463052 164.535634 
L 305.878527 164.879136 
L 309.294003 165.161051 
L 312.709479 164.852377 
L 316.124955 165.065703 
L 319.54043 164.622294 
L 322.955906 164.396764 
L 326.371382 164.422008 
L 329.786857 163.990156 
L 333.202333 164.258807 
L 336.617809 164.138575 
L 340.033285 164.221729 
L 343.44876 164.035308 
L 346.864236 164.275857 
L 350.279712 164.264873 
L 353.695188 164.588863 
L 357.110663 164.059203 
L 360.526139 163.996205 
L 363.941615 164.292306 
L 367.35709 164.066942 
L 370.772566 163.684788 
L 374.188042 164.1286 
L 377.603518 164.309425 
L 381.018993 164.179046 
L 384.434469 164.201277 
L 387.849945 164.270465 
L 391.265421 163.933195 
L 394.680896 163.835891 
L 398.096372 163.645215 
L 401.511848 163.122208 
L 404.927324 162.95798 
L 408.342799 163.268093 
L 411.758275 163.129211 
L 415.173751 163.491917 
L 418.589226 163.040887 
L 422.004702 163.01996 
" style="fill:none;stroke:#029e73;stroke-linecap:round;stroke-width:2.5;"/>
   </g>
   <g id="line2d_26"/>
   <g id="line2d_27"/>
   <g id="line2d_28"/>
   <g id="patch_3">
    <path d="M 66.966 270.852 
L 66.966 40.416 
" style="fill:none;stroke:#cccccc;stroke-linecap:square;stroke-linejoin:miter;"/>
   </g>
   <g id="patch_4">
    <path d="M 438.911307 270.852 
L 438.911307 40.416 
" style="fill:none;stroke:#cccccc;stroke-linecap:square;stroke-linejoin:miter;"/>
   </g>
   <g id="patch_5">
    <path d="M 66.966 270.852 
L 438.911307 270.852 
" style="fill:none;stroke:#cccccc;stroke-linecap:square;stroke-linejoin:miter;"/>
   </g>
   <g id="patch_6">
    <path d="M 66.966 40.416 
L 438.911307 40.416 
" style="fill:none;stroke:#cccccc;stroke-linecap:square;stroke-linejoin:miter;"/>
   </g>
   <g id="text_15">
    <!-- Top 50 CCA on mfeat -->
    <g style="fill:#262626;" transform="translate(161.695154 34.416)scale(0.192 -0.192)">
     <defs>
      <path d="M -0.140625 0 
L 27.34375 71.578125 
L 37.546875 71.578125 
L 66.84375 0 
L 56.0625 0 
L 47.703125 21.6875 
L 17.78125 21.6875 
L 9.90625 0 
z
M 20.515625 29.390625 
L 44.78125 29.390625 
L 37.3125 49.21875 
Q 33.890625 58.25 32.234375 64.0625 
Q 30.859375 57.171875 28.375 50.390625 
z
" id="ArialMT-65"/>
      <path d="M 6.59375 0 
L 6.59375 51.859375 
L 14.453125 51.859375 
L 14.453125 44.578125 
Q 16.890625 48.390625 20.9375 50.703125 
Q 25 53.03125 30.171875 53.03125 
Q 35.9375 53.03125 39.625 50.640625 
Q 43.3125 48.25 44.828125 43.953125 
Q 50.984375 53.03125 60.84375 53.03125 
Q 68.5625 53.03125 72.703125 48.75 
Q 76.859375 44.484375 76.859375 35.59375 
L 76.859375 0 
L 68.109375 0 
L 68.109375 32.671875 
Q 68.109375 37.9375 67.25 40.25 
Q 66.40625 42.578125 64.15625 43.984375 
Q 61.921875 45.40625 58.890625 45.40625 
Q 53.421875 45.40625 49.796875 41.765625 
Q 46.1875 38.140625 46.1875 30.125 
L 46.1875 0 
L 37.40625 0 
L 37.40625 33.6875 
Q 37.40625 39.546875 35.25 42.46875 
Q 33.109375 45.40625 28.21875 45.40625 
Q 24.515625 45.40625 21.359375 43.453125 
Q 18.21875 41.5 16.796875 37.734375 
Q 15.375 33.984375 15.375 26.90625 
L 15.375 0 
z
" id="ArialMT-109"/>
      <path d="M 8.6875 0 
L 8.6875 45.015625 
L 0.921875 45.015625 
L 0.921875 51.859375 
L 8.6875 51.859375 
L 8.6875 57.375 
Q 8.6875 62.59375 9.625 65.140625 
Q 10.890625 68.5625 14.078125 70.671875 
Q 17.28125 72.796875 23.046875 72.796875 
Q 26.765625 72.796875 31.25 71.921875 
L 29.9375 64.265625 
Q 27.203125 64.75 24.75 64.75 
Q 20.75 64.75 19.09375 63.03125 
Q 17.4375 61.328125 17.4375 56.640625 
L 17.4375 51.859375 
L 27.546875 51.859375 
L 27.546875 45.015625 
L 17.4375 45.015625 
L 17.4375 0 
z
" id="ArialMT-102"/>
     </defs>
     <use xlink:href="#ArialMT-84"/>
     <use x="49.958984" xlink:href="#ArialMT-111"/>
     <use x="105.574219" xlink:href="#ArialMT-112"/>
     <use x="161.189453" xlink:href="#ArialMT-32"/>
     <use x="188.972656" xlink:href="#ArialMT-53"/>
     <use x="244.587891" xlink:href="#ArialMT-48"/>
     <use x="300.203125" xlink:href="#ArialMT-32"/>
     <use x="327.986328" xlink:href="#ArialMT-67"/>
     <use x="400.203125" xlink:href="#ArialMT-67"/>
     <use x="472.419922" xlink:href="#ArialMT-65"/>
     <use x="533.619141" xlink:href="#ArialMT-32"/>
     <use x="561.402344" xlink:href="#ArialMT-111"/>
     <use x="617.017578" xlink:href="#ArialMT-110"/>
     <use x="672.632812" xlink:href="#ArialMT-32"/>
     <use x="700.416016" xlink:href="#ArialMT-109"/>
     <use x="783.716797" xlink:href="#ArialMT-102"/>
     <use x="811.5" xlink:href="#ArialMT-101"/>
     <use x="867.115234" xlink:href="#ArialMT-97"/>
     <use x="922.730469" xlink:href="#ArialMT-116"/>
    </g>
   </g>
   <g id="legend_1">
    <g id="patch_7">
     <path d="M 291.060307 332.739 
L 426.591307 332.739 
Q 430.111307 332.739 430.111307 329.219 
L 430.111307 52.736 
Q 430.111307 49.216 426.591307 49.216 
L 291.060307 49.216 
Q 287.540307 49.216 287.540307 52.736 
L 287.540307 329.219 
Q 287.540307 332.739 291.060307 332.739 
z
" style="fill:#ffffff;opacity:0.8;stroke:#cccccc;stroke-linejoin:miter;stroke-width:0.8;"/>
    </g>
    <g id="text_16">
     <!-- model -->
     <g style="fill:#262626;" transform="translate(332.680807 69.999)scale(0.192 -0.192)">
      <use xlink:href="#ArialMT-109"/>
      <use x="83.300781" xlink:href="#ArialMT-111"/>
      <use x="138.916016" xlink:href="#ArialMT-100"/>
      <use x="194.53125" xlink:href="#ArialMT-101"/>
      <use x="250.146484" xlink:href="#ArialMT-108"/>
     </g>
    </g>
    <g id="text_17">
     <!-- model -->
     <g style="fill:#262626;" transform="translate(308.660307 96.358)scale(0.192 -0.192)">
      <use xlink:href="#ArialMT-109"/>
      <use x="83.300781" xlink:href="#ArialMT-111"/>
      <use x="138.916016" xlink:href="#ArialMT-100"/>
      <use x="194.53125" xlink:href="#ArialMT-101"/>
      <use x="250.146484" xlink:href="#ArialMT-108"/>
     </g>
    </g>
    <g id="line2d_29">
     <path d="M 294.580307 115.41175 
L 329.780307 115.41175 
" style="fill:none;stroke:#0173b2;stroke-linecap:round;stroke-width:2.5;"/>
    </g>
    <g id="line2d_30"/>
    <g id="text_18">
     <!-- DCCA-EY -->
     <g style="fill:#262626;" transform="translate(343.860307 121.57175)scale(0.176 -0.176)">
      <defs>
       <path d="M 7.71875 0 
L 7.71875 71.578125 
L 32.375 71.578125 
Q 40.71875 71.578125 45.125 70.5625 
Q 51.265625 69.140625 55.609375 65.4375 
Q 61.28125 60.640625 64.078125 53.1875 
Q 66.890625 45.75 66.890625 36.1875 
Q 66.890625 28.03125 64.984375 21.734375 
Q 63.09375 15.4375 60.109375 11.296875 
Q 57.125 7.171875 53.578125 4.796875 
Q 50.046875 2.4375 45.046875 1.21875 
Q 40.046875 0 33.546875 0 
z
M 17.1875 8.453125 
L 32.46875 8.453125 
Q 39.546875 8.453125 43.578125 9.765625 
Q 47.609375 11.078125 50 13.484375 
Q 53.375 16.84375 55.25 22.53125 
Q 57.125 28.21875 57.125 36.328125 
Q 57.125 47.5625 53.4375 53.59375 
Q 49.75 59.625 44.484375 61.671875 
Q 40.671875 63.140625 32.234375 63.140625 
L 17.1875 63.140625 
z
" id="ArialMT-68"/>
       <path d="M 3.171875 21.484375 
L 3.171875 30.328125 
L 30.171875 30.328125 
L 30.171875 21.484375 
z
" id="ArialMT-45"/>
       <path d="M 7.90625 0 
L 7.90625 71.578125 
L 59.671875 71.578125 
L 59.671875 63.140625 
L 17.390625 63.140625 
L 17.390625 41.21875 
L 56.984375 41.21875 
L 56.984375 32.8125 
L 17.390625 32.8125 
L 17.390625 8.453125 
L 61.328125 8.453125 
L 61.328125 0 
z
" id="ArialMT-69"/>
       <path d="M 27.875 0 
L 27.875 30.328125 
L 0.296875 71.578125 
L 11.8125 71.578125 
L 25.921875 50 
Q 29.828125 43.953125 33.203125 37.890625 
Q 36.421875 43.5 41.015625 50.53125 
L 54.890625 71.578125 
L 65.921875 71.578125 
L 37.359375 30.328125 
L 37.359375 0 
z
" id="ArialMT-89"/>
      </defs>
      <use xlink:href="#ArialMT-68"/>
      <use x="72.216797" xlink:href="#ArialMT-67"/>
      <use x="144.433594" xlink:href="#ArialMT-67"/>
      <use x="216.650391" xlink:href="#ArialMT-65"/>
      <use x="283.349609" xlink:href="#ArialMT-45"/>
      <use x="316.650391" xlink:href="#ArialMT-69"/>
      <use x="383.349609" xlink:href="#ArialMT-89"/>
     </g>
    </g>
    <g id="line2d_31">
     <path d="M 294.580307 140.3075 
L 329.780307 140.3075 
" style="fill:none;stroke:#de8f05;stroke-linecap:round;stroke-width:2.5;"/>
    </g>
    <g id="line2d_32"/>
    <g id="text_19">
     <!-- DMCCA -->
     <g style="fill:#262626;" transform="translate(343.860307 146.4675)scale(0.176 -0.176)">
      <use xlink:href="#ArialMT-68"/>
      <use x="72.216797" xlink:href="#ArialMT-77"/>
      <use x="155.517578" xlink:href="#ArialMT-67"/>
      <use x="227.734375" xlink:href="#ArialMT-67"/>
      <use x="299.951172" xlink:href="#ArialMT-65"/>
     </g>
    </g>
    <g id="line2d_33">
     <path d="M 294.580307 165.20325 
L 329.780307 165.20325 
" style="fill:none;stroke:#029e73;stroke-linecap:round;stroke-width:2.5;"/>
    </g>
    <g id="line2d_34"/>
    <g id="text_20">
     <!-- DGCCA -->
     <g style="fill:#262626;" transform="translate(343.860307 171.36325)scale(0.176 -0.176)">
      <defs>
       <path d="M 41.21875 28.078125 
L 41.21875 36.46875 
L 71.53125 36.53125 
L 71.53125 9.96875 
Q 64.546875 4.390625 57.125 1.578125 
Q 49.703125 -1.21875 41.890625 -1.21875 
Q 31.34375 -1.21875 22.71875 3.296875 
Q 14.109375 7.8125 9.71875 16.359375 
Q 5.328125 24.90625 5.328125 35.453125 
Q 5.328125 45.90625 9.6875 54.953125 
Q 14.0625 64.015625 22.265625 68.40625 
Q 30.46875 72.796875 41.15625 72.796875 
Q 48.921875 72.796875 55.1875 70.28125 
Q 61.46875 67.78125 65.03125 63.28125 
Q 68.609375 58.796875 70.453125 51.5625 
L 61.921875 49.21875 
Q 60.296875 54.6875 57.90625 57.8125 
Q 55.515625 60.9375 51.0625 62.8125 
Q 46.625 64.703125 41.21875 64.703125 
Q 34.71875 64.703125 29.984375 62.71875 
Q 25.25 60.75 22.34375 57.515625 
Q 19.4375 54.296875 17.828125 50.4375 
Q 15.09375 43.796875 15.09375 36.03125 
Q 15.09375 26.46875 18.390625 20.015625 
Q 21.6875 13.578125 27.984375 10.453125 
Q 34.28125 7.328125 41.359375 7.328125 
Q 47.515625 7.328125 53.375 9.6875 
Q 59.234375 12.0625 62.25 14.75 
L 62.25 28.078125 
z
" id="ArialMT-71"/>
      </defs>
      <use xlink:href="#ArialMT-68"/>
      <use x="72.216797" xlink:href="#ArialMT-71"/>
      <use x="150" xlink:href="#ArialMT-67"/>
      <use x="222.216797" xlink:href="#ArialMT-67"/>
      <use x="294.433594" xlink:href="#ArialMT-65"/>
     </g>
    </g>
    <g id="text_21">
     <!-- batch size -->
     <g style="fill:#262626;" transform="translate(308.660307 197.40425)scale(0.192 -0.192)">
      <defs>
       <path d="M 14.703125 0 
L 6.546875 0 
L 6.546875 71.578125 
L 15.328125 71.578125 
L 15.328125 46.046875 
Q 20.90625 53.03125 29.546875 53.03125 
Q 34.328125 53.03125 38.59375 51.09375 
Q 42.875 49.171875 45.625 45.671875 
Q 48.390625 42.1875 49.953125 37.25 
Q 51.515625 32.328125 51.515625 26.703125 
Q 51.515625 13.375 44.921875 6.09375 
Q 38.328125 -1.171875 29.109375 -1.171875 
Q 19.921875 -1.171875 14.703125 6.5 
z
M 14.59375 26.3125 
Q 14.59375 17 17.140625 12.84375 
Q 21.296875 6.0625 28.375 6.0625 
Q 34.125 6.0625 38.328125 11.0625 
Q 42.53125 16.0625 42.53125 25.984375 
Q 42.53125 36.140625 38.5 40.96875 
Q 34.46875 45.796875 28.765625 45.796875 
Q 23 45.796875 18.796875 40.796875 
Q 14.59375 35.796875 14.59375 26.3125 
z
" id="ArialMT-98"/>
       <path d="M 3.078125 15.484375 
L 11.765625 16.84375 
Q 12.5 11.625 15.84375 8.84375 
Q 19.1875 6.0625 25.203125 6.0625 
Q 31.25 6.0625 34.171875 8.515625 
Q 37.109375 10.984375 37.109375 14.3125 
Q 37.109375 17.28125 34.515625 19 
Q 32.71875 20.171875 25.53125 21.96875 
Q 15.875 24.421875 12.140625 26.203125 
Q 8.40625 27.984375 6.46875 31.125 
Q 4.546875 34.28125 4.546875 38.09375 
Q 4.546875 41.546875 6.125 44.5 
Q 7.71875 47.46875 10.453125 49.421875 
Q 12.5 50.921875 16.03125 51.96875 
Q 19.578125 53.03125 23.640625 53.03125 
Q 29.734375 53.03125 34.34375 51.265625 
Q 38.96875 49.515625 41.15625 46.5 
Q 43.359375 43.5 44.1875 38.484375 
L 35.59375 37.3125 
Q 35.015625 41.3125 32.203125 43.546875 
Q 29.390625 45.796875 24.265625 45.796875 
Q 18.21875 45.796875 15.625 43.796875 
Q 13.03125 41.796875 13.03125 39.109375 
Q 13.03125 37.40625 14.109375 36.03125 
Q 15.1875 34.625 17.484375 33.6875 
Q 18.796875 33.203125 25.25 31.453125 
Q 34.578125 28.953125 38.25 27.359375 
Q 41.9375 25.78125 44.03125 22.75 
Q 46.140625 19.734375 46.140625 15.234375 
Q 46.140625 10.84375 43.578125 6.953125 
Q 41.015625 3.078125 36.171875 0.953125 
Q 31.34375 -1.171875 25.25 -1.171875 
Q 15.140625 -1.171875 9.84375 3.03125 
Q 4.546875 7.234375 3.078125 15.484375 
z
" id="ArialMT-115"/>
       <path d="M 1.953125 0 
L 1.953125 7.125 
L 34.96875 45.015625 
Q 29.34375 44.734375 25.046875 44.734375 
L 3.90625 44.734375 
L 3.90625 51.859375 
L 46.296875 51.859375 
L 46.296875 46.046875 
L 18.21875 13.140625 
L 12.796875 7.125 
Q 18.703125 7.5625 23.875 7.5625 
L 47.859375 7.5625 
L 47.859375 0 
z
" id="ArialMT-122"/>
      </defs>
      <use xlink:href="#ArialMT-98"/>
      <use x="55.615234" xlink:href="#ArialMT-97"/>
      <use x="111.230469" xlink:href="#ArialMT-116"/>
      <use x="139.013672" xlink:href="#ArialMT-99"/>
      <use x="189.013672" xlink:href="#ArialMT-104"/>
      <use x="244.628906" xlink:href="#ArialMT-32"/>
      <use x="272.412109" xlink:href="#ArialMT-115"/>
      <use x="322.412109" xlink:href="#ArialMT-105"/>
      <use x="344.628906" xlink:href="#ArialMT-122"/>
      <use x="394.628906" xlink:href="#ArialMT-101"/>
     </g>
    </g>
    <g id="line2d_35">
     <path d="M 294.580307 216.458 
L 329.780307 216.458 
" style="fill:none;stroke:#333333;stroke-linecap:round;stroke-width:2.5;"/>
    </g>
    <g id="line2d_36"/>
    <g id="text_22">
     <!-- 50 -->
     <g style="fill:#262626;" transform="translate(343.860307 222.618)scale(0.176 -0.176)">
      <use xlink:href="#ArialMT-53"/>
      <use x="55.615234" xlink:href="#ArialMT-48"/>
     </g>
    </g>
    <g id="line2d_37">
     <path d="M 294.580307 241.35375 
L 329.780307 241.35375 
" style="fill:none;stroke:#333333;stroke-dasharray:10,3.75;stroke-dashoffset:0;stroke-width:2.5;"/>
    </g>
    <g id="line2d_38"/>
    <g id="text_23">
     <!-- 100 -->
     <g style="fill:#262626;" transform="translate(343.860307 247.51375)scale(0.176 -0.176)">
      <use xlink:href="#ArialMT-49"/>
      <use x="55.615234" xlink:href="#ArialMT-48"/>
      <use x="111.230469" xlink:href="#ArialMT-48"/>
     </g>
    </g>
    <g id="line2d_39">
     <path d="M 294.580307 266.2495 
L 329.780307 266.2495 
" style="fill:none;stroke:#0173b2;stroke-linecap:round;stroke-width:2.5;"/>
    </g>
    <g id="line2d_40"/>
    <g id="text_24">
     <!-- DCCA-EY -->
     <g style="fill:#262626;" transform="translate(343.860307 272.4095)scale(0.176 -0.176)">
      <use xlink:href="#ArialMT-68"/>
      <use x="72.216797" xlink:href="#ArialMT-67"/>
      <use x="144.433594" xlink:href="#ArialMT-67"/>
      <use x="216.650391" xlink:href="#ArialMT-65"/>
      <use x="283.349609" xlink:href="#ArialMT-45"/>
      <use x="316.650391" xlink:href="#ArialMT-69"/>
      <use x="383.349609" xlink:href="#ArialMT-89"/>
     </g>
    </g>
    <g id="line2d_41">
     <path d="M 294.580307 291.14525 
L 329.780307 291.14525 
" style="fill:none;stroke:#de8f05;stroke-linecap:round;stroke-width:2.5;"/>
    </g>
    <g id="line2d_42"/>
    <g id="text_25">
     <!-- DMCCA -->
     <g style="fill:#262626;" transform="translate(343.860307 297.30525)scale(0.176 -0.176)">
      <use xlink:href="#ArialMT-68"/>
      <use x="72.216797" xlink:href="#ArialMT-77"/>
      <use x="155.517578" xlink:href="#ArialMT-67"/>
      <use x="227.734375" xlink:href="#ArialMT-67"/>
      <use x="299.951172" xlink:href="#ArialMT-65"/>
     </g>
    </g>
    <g id="line2d_43">
     <path d="M 294.580307 316.041 
L 329.780307 316.041 
" style="fill:none;stroke:#029e73;stroke-linecap:round;stroke-width:2.5;"/>
    </g>
    <g id="line2d_44"/>
    <g id="text_26">
     <!-- DGCCA -->
     <g style="fill:#262626;" transform="translate(343.860307 322.201)scale(0.176 -0.176)">
      <use xlink:href="#ArialMT-68"/>
      <use x="72.216797" xlink:href="#ArialMT-71"/>
      <use x="150" xlink:href="#ArialMT-67"/>
      <use x="222.216797" xlink:href="#ArialMT-67"/>
      <use x="294.433594" xlink:href="#ArialMT-65"/>
     </g>
    </g>
   </g>
  </g>
 </g>
 <defs>
  <clipPath id="pb693d8e25d">
   <rect height="230.436" width="371.945307" x="66.966" y="40.416"/>
  </clipPath>
 </defs>
</svg>
