<?xml version="1.0" encoding="utf-8" standalone="no"?>
<!DOCTYPE svg PUBLIC "-//W3C//DTD SVG 1.1//EN"
  "http://www.w3.org/Graphics/SVG/1.1/DTD/svg11.dtd">
<!-- Created with matplotlib (https://matplotlib.org/) -->
<svg height="345.6pt" version="1.1" viewBox="0 0 460.8 345.6" width="460.8pt" xmlns="http://www.w3.org/2000/svg" xmlns:xlink="http://www.w3.org/1999/xlink">
 <metadata>
  <rdf:RDF xmlns:cc="http://creativecommons.org/ns#" xmlns:dc="http://purl.org/dc/elements/1.1/" xmlns:rdf="http://www.w3.org/1999/02/22-rdf-syntax-ns#">
   <cc:Work>
    <dc:type rdf:resource="http://purl.org/dc/dcmitype/StillImage"/>
    <dc:date>2023-09-27T14:20:27.487294</dc:date>
    <dc:format>image/svg+xml</dc:format>
    <dc:creator>
     <cc:Agent>
      <dc:title>Matplotlib v3.3.4, https://matplotlib.org/</dc:title>
     </cc:Agent>
    </dc:creator>
   </cc:Work>
  </rdf:RDF>
 </metadata>
 <defs>
  <style type="text/css">*{stroke-linecap:butt;stroke-linejoin:round;}</style>
 </defs>
 <g id="figure_1">
  <g id="patch_1">
   <path d="M 0 345.6 
L 460.8 345.6 
L 460.8 0 
L 0 0 
z
" style="fill:#ffffff;"/>
  </g>
  <g id="axes_1">
   <g id="patch_2">
    <path d="M 66.966 184.02 
L 438.930129 184.02 
L 438.930129 40.416 
L 66.966 40.416 
z
" style="fill:#ffffff;"/>
   </g>
   <g id="matplotlib.axis_1">
    <g id="xtick_1">
     <g id="line2d_1">
      <path clip-path="url(#p8524e63b73)" d="M 83.87346 184.02 
L 83.87346 40.416 
" style="fill:none;stroke:#cccccc;stroke-linecap:round;stroke-width:0.8;"/>
     </g>
     <g id="text_1">
      <!-- 0 -->
      <g style="fill:#262626;" transform="translate(78.979835 204.91775)scale(0.176 -0.176)">
       <defs>
        <path d="M 4.15625 35.296875 
Q 4.15625 48 6.765625 55.734375 
Q 9.375 63.484375 14.515625 67.671875 
Q 19.671875 71.875 27.484375 71.875 
Q 33.25 71.875 37.59375 69.546875 
Q 41.9375 67.234375 44.765625 62.859375 
Q 47.609375 58.5 49.21875 52.21875 
Q 50.828125 45.953125 50.828125 35.296875 
Q 50.828125 22.703125 48.234375 14.96875 
Q 45.65625 7.234375 40.5 3 
Q 35.359375 -1.21875 27.484375 -1.21875 
Q 17.140625 -1.21875 11.234375 6.203125 
Q 4.15625 15.140625 4.15625 35.296875 
z
M 13.1875 35.296875 
Q 13.1875 17.671875 17.3125 11.828125 
Q 21.4375 6 27.484375 6 
Q 33.546875 6 37.671875 11.859375 
Q 41.796875 17.71875 41.796875 35.296875 
Q 41.796875 52.984375 37.671875 58.78125 
Q 33.546875 64.59375 27.390625 64.59375 
Q 21.34375 64.59375 17.71875 59.46875 
Q 13.1875 52.9375 13.1875 35.296875 
z
" id="ArialMT-48"/>
       </defs>
       <use xlink:href="#ArialMT-48"/>
      </g>
     </g>
    </g>
    <g id="xtick_2">
     <g id="line2d_2">
      <path clip-path="url(#p8524e63b73)" d="M 152.186432 184.02 
L 152.186432 40.416 
" style="fill:none;stroke:#cccccc;stroke-linecap:round;stroke-width:0.8;"/>
     </g>
     <g id="text_2">
      <!-- 20 -->
      <g style="fill:#262626;" transform="translate(142.399182 204.91775)scale(0.176 -0.176)">
       <defs>
        <path d="M 50.34375 8.453125 
L 50.34375 0 
L 3.03125 0 
Q 2.9375 3.171875 4.046875 6.109375 
Q 5.859375 10.9375 9.828125 15.625 
Q 13.8125 20.3125 21.34375 26.46875 
Q 33.015625 36.03125 37.109375 41.625 
Q 41.21875 47.21875 41.21875 52.203125 
Q 41.21875 57.421875 37.46875 61 
Q 33.734375 64.59375 27.734375 64.59375 
Q 21.390625 64.59375 17.578125 60.78125 
Q 13.765625 56.984375 13.71875 50.25 
L 4.6875 51.171875 
Q 5.609375 61.28125 11.65625 66.578125 
Q 17.71875 71.875 27.9375 71.875 
Q 38.234375 71.875 44.234375 66.15625 
Q 50.25 60.453125 50.25 52 
Q 50.25 47.703125 48.484375 43.546875 
Q 46.734375 39.40625 42.65625 34.8125 
Q 38.578125 30.21875 29.109375 22.21875 
Q 21.1875 15.578125 18.9375 13.203125 
Q 16.703125 10.84375 15.234375 8.453125 
z
" id="ArialMT-50"/>
       </defs>
       <use xlink:href="#ArialMT-50"/>
       <use x="55.615234" xlink:href="#ArialMT-48"/>
      </g>
     </g>
    </g>
    <g id="xtick_3">
     <g id="line2d_3">
      <path clip-path="url(#p8524e63b73)" d="M 220.499403 184.02 
L 220.499403 40.416 
" style="fill:none;stroke:#cccccc;stroke-linecap:round;stroke-width:0.8;"/>
     </g>
     <g id="text_3">
      <!-- 40 -->
      <g style="fill:#262626;" transform="translate(210.712153 204.91775)scale(0.176 -0.176)">
       <defs>
        <path d="M 32.328125 0 
L 32.328125 17.140625 
L 1.265625 17.140625 
L 1.265625 25.203125 
L 33.9375 71.578125 
L 41.109375 71.578125 
L 41.109375 25.203125 
L 50.78125 25.203125 
L 50.78125 17.140625 
L 41.109375 17.140625 
L 41.109375 0 
z
M 32.328125 25.203125 
L 32.328125 57.46875 
L 9.90625 25.203125 
z
" id="ArialMT-52"/>
       </defs>
       <use xlink:href="#ArialMT-52"/>
       <use x="55.615234" xlink:href="#ArialMT-48"/>
      </g>
     </g>
    </g>
    <g id="xtick_4">
     <g id="line2d_4">
      <path clip-path="url(#p8524e63b73)" d="M 288.812375 184.02 
L 288.812375 40.416 
" style="fill:none;stroke:#cccccc;stroke-linecap:round;stroke-width:0.8;"/>
     </g>
     <g id="text_4">
      <!-- 60 -->
      <g style="fill:#262626;" transform="translate(279.025125 204.91775)scale(0.176 -0.176)">
       <defs>
        <path d="M 49.75 54.046875 
L 41.015625 53.375 
Q 39.84375 58.546875 37.703125 60.890625 
Q 34.125 64.65625 28.90625 64.65625 
Q 24.703125 64.65625 21.53125 62.3125 
Q 17.390625 59.28125 14.984375 53.46875 
Q 12.59375 47.65625 12.5 36.921875 
Q 15.671875 41.75 20.265625 44.09375 
Q 24.859375 46.4375 29.890625 46.4375 
Q 38.671875 46.4375 44.84375 39.96875 
Q 51.03125 33.5 51.03125 23.25 
Q 51.03125 16.5 48.125 10.71875 
Q 45.21875 4.9375 40.140625 1.859375 
Q 35.0625 -1.21875 28.609375 -1.21875 
Q 17.625 -1.21875 10.6875 6.859375 
Q 3.765625 14.9375 3.765625 33.5 
Q 3.765625 54.25 11.421875 63.671875 
Q 18.109375 71.875 29.4375 71.875 
Q 37.890625 71.875 43.28125 67.140625 
Q 48.6875 62.40625 49.75 54.046875 
z
M 13.875 23.1875 
Q 13.875 18.65625 15.796875 14.5 
Q 17.71875 10.359375 21.1875 8.171875 
Q 24.65625 6 28.46875 6 
Q 34.03125 6 38.03125 10.484375 
Q 42.046875 14.984375 42.046875 22.703125 
Q 42.046875 30.125 38.078125 34.390625 
Q 34.125 38.671875 28.125 38.671875 
Q 22.171875 38.671875 18.015625 34.390625 
Q 13.875 30.125 13.875 23.1875 
z
" id="ArialMT-54"/>
       </defs>
       <use xlink:href="#ArialMT-54"/>
       <use x="55.615234" xlink:href="#ArialMT-48"/>
      </g>
     </g>
    </g>
    <g id="xtick_5">
     <g id="line2d_5">
      <path clip-path="url(#p8524e63b73)" d="M 357.125346 184.02 
L 357.125346 40.416 
" style="fill:none;stroke:#cccccc;stroke-linecap:round;stroke-width:0.8;"/>
     </g>
     <g id="text_5">
      <!-- 80 -->
      <g style="fill:#262626;" transform="translate(347.338096 204.91775)scale(0.176 -0.176)">
       <defs>
        <path d="M 17.671875 38.8125 
Q 12.203125 40.828125 9.5625 44.53125 
Q 6.9375 48.25 6.9375 53.421875 
Q 6.9375 61.234375 12.546875 66.546875 
Q 18.171875 71.875 27.484375 71.875 
Q 36.859375 71.875 42.578125 66.421875 
Q 48.296875 60.984375 48.296875 53.171875 
Q 48.296875 48.1875 45.671875 44.5 
Q 43.0625 40.828125 37.75 38.8125 
Q 44.34375 36.671875 47.78125 31.875 
Q 51.21875 27.09375 51.21875 20.453125 
Q 51.21875 11.28125 44.71875 5.03125 
Q 38.234375 -1.21875 27.640625 -1.21875 
Q 17.046875 -1.21875 10.546875 5.046875 
Q 4.046875 11.328125 4.046875 20.703125 
Q 4.046875 27.6875 7.59375 32.390625 
Q 11.140625 37.109375 17.671875 38.8125 
z
M 15.921875 53.71875 
Q 15.921875 48.640625 19.1875 45.40625 
Q 22.46875 42.1875 27.6875 42.1875 
Q 32.765625 42.1875 36.015625 45.375 
Q 39.265625 48.578125 39.265625 53.21875 
Q 39.265625 58.0625 35.90625 61.359375 
Q 32.5625 64.65625 27.59375 64.65625 
Q 22.5625 64.65625 19.234375 61.421875 
Q 15.921875 58.203125 15.921875 53.71875 
z
M 13.09375 20.65625 
Q 13.09375 16.890625 14.875 13.375 
Q 16.65625 9.859375 20.171875 7.921875 
Q 23.6875 6 27.734375 6 
Q 34.03125 6 38.125 10.046875 
Q 42.234375 14.109375 42.234375 20.359375 
Q 42.234375 26.703125 38.015625 30.859375 
Q 33.796875 35.015625 27.4375 35.015625 
Q 21.234375 35.015625 17.15625 30.90625 
Q 13.09375 26.8125 13.09375 20.65625 
z
" id="ArialMT-56"/>
       </defs>
       <use xlink:href="#ArialMT-56"/>
       <use x="55.615234" xlink:href="#ArialMT-48"/>
      </g>
     </g>
    </g>
    <g id="xtick_6">
     <g id="line2d_6">
      <path clip-path="url(#p8524e63b73)" d="M 425.438317 184.02 
L 425.438317 40.416 
" style="fill:none;stroke:#cccccc;stroke-linecap:round;stroke-width:0.8;"/>
     </g>
     <g id="text_6">
      <!-- 100 -->
      <g style="fill:#262626;" transform="translate(410.757442 204.91775)scale(0.176 -0.176)">
       <defs>
        <path d="M 37.25 0 
L 28.46875 0 
L 28.46875 56 
Q 25.296875 52.984375 20.140625 49.953125 
Q 14.984375 46.921875 10.890625 45.40625 
L 10.890625 53.90625 
Q 18.265625 57.375 23.78125 62.296875 
Q 29.296875 67.234375 31.59375 71.875 
L 37.25 71.875 
z
" id="ArialMT-49"/>
       </defs>
       <use xlink:href="#ArialMT-49"/>
       <use x="55.615234" xlink:href="#ArialMT-48"/>
       <use x="111.230469" xlink:href="#ArialMT-48"/>
      </g>
     </g>
    </g>
    <g id="text_7">
     <!-- epoch -->
     <g style="fill:#262626;" transform="translate(231.153065 223.86825)scale(0.16 -0.16)">
      <defs>
       <path d="M 42.09375 16.703125 
L 51.171875 15.578125 
Q 49.03125 7.625 43.21875 3.21875 
Q 37.40625 -1.171875 28.375 -1.171875 
Q 17 -1.171875 10.328125 5.828125 
Q 3.65625 12.84375 3.65625 25.484375 
Q 3.65625 38.578125 10.390625 45.796875 
Q 17.140625 53.03125 27.875 53.03125 
Q 38.28125 53.03125 44.875 45.953125 
Q 51.46875 38.875 51.46875 26.03125 
Q 51.46875 25.25 51.421875 23.6875 
L 12.75 23.6875 
Q 13.234375 15.140625 17.578125 10.59375 
Q 21.921875 6.0625 28.421875 6.0625 
Q 33.25 6.0625 36.671875 8.59375 
Q 40.09375 11.140625 42.09375 16.703125 
z
M 13.234375 30.90625 
L 42.1875 30.90625 
Q 41.609375 37.453125 38.875 40.71875 
Q 34.671875 45.796875 27.984375 45.796875 
Q 21.921875 45.796875 17.796875 41.75 
Q 13.671875 37.703125 13.234375 30.90625 
z
" id="ArialMT-101"/>
       <path d="M 6.59375 -19.875 
L 6.59375 51.859375 
L 14.59375 51.859375 
L 14.59375 45.125 
Q 17.4375 49.078125 21 51.046875 
Q 24.5625 53.03125 29.640625 53.03125 
Q 36.28125 53.03125 41.359375 49.609375 
Q 46.4375 46.1875 49.015625 39.953125 
Q 51.609375 33.734375 51.609375 26.3125 
Q 51.609375 18.359375 48.75 11.984375 
Q 45.90625 5.609375 40.453125 2.21875 
Q 35.015625 -1.171875 29 -1.171875 
Q 24.609375 -1.171875 21.109375 0.6875 
Q 17.625 2.546875 15.375 5.375 
L 15.375 -19.875 
z
M 14.546875 25.640625 
Q 14.546875 15.625 18.59375 10.84375 
Q 22.65625 6.0625 28.421875 6.0625 
Q 34.28125 6.0625 38.453125 11.015625 
Q 42.625 15.96875 42.625 26.375 
Q 42.625 36.28125 38.546875 41.203125 
Q 34.46875 46.140625 28.8125 46.140625 
Q 23.1875 46.140625 18.859375 40.890625 
Q 14.546875 35.640625 14.546875 25.640625 
z
" id="ArialMT-112"/>
       <path d="M 3.328125 25.921875 
Q 3.328125 40.328125 11.328125 47.265625 
Q 18.015625 53.03125 27.640625 53.03125 
Q 38.328125 53.03125 45.109375 46.015625 
Q 51.90625 39.015625 51.90625 26.65625 
Q 51.90625 16.65625 48.90625 10.90625 
Q 45.90625 5.171875 40.15625 2 
Q 34.421875 -1.171875 27.640625 -1.171875 
Q 16.75 -1.171875 10.03125 5.8125 
Q 3.328125 12.796875 3.328125 25.921875 
z
M 12.359375 25.921875 
Q 12.359375 15.96875 16.703125 11.015625 
Q 21.046875 6.0625 27.640625 6.0625 
Q 34.1875 6.0625 38.53125 11.03125 
Q 42.875 16.015625 42.875 26.21875 
Q 42.875 35.84375 38.5 40.796875 
Q 34.125 45.75 27.640625 45.75 
Q 21.046875 45.75 16.703125 40.8125 
Q 12.359375 35.890625 12.359375 25.921875 
z
" id="ArialMT-111"/>
       <path d="M 40.4375 19 
L 49.078125 17.875 
Q 47.65625 8.9375 41.8125 3.875 
Q 35.984375 -1.171875 27.484375 -1.171875 
Q 16.84375 -1.171875 10.375 5.78125 
Q 3.90625 12.75 3.90625 25.734375 
Q 3.90625 34.125 6.6875 40.421875 
Q 9.46875 46.734375 15.15625 49.875 
Q 20.84375 53.03125 27.546875 53.03125 
Q 35.984375 53.03125 41.359375 48.75 
Q 46.734375 44.484375 48.25 36.625 
L 39.703125 35.296875 
Q 38.484375 40.53125 35.375 43.15625 
Q 32.28125 45.796875 27.875 45.796875 
Q 21.234375 45.796875 17.078125 41.03125 
Q 12.9375 36.28125 12.9375 25.984375 
Q 12.9375 15.53125 16.9375 10.796875 
Q 20.953125 6.0625 27.390625 6.0625 
Q 32.5625 6.0625 36.03125 9.234375 
Q 39.5 12.40625 40.4375 19 
z
" id="ArialMT-99"/>
       <path d="M 6.59375 0 
L 6.59375 71.578125 
L 15.375 71.578125 
L 15.375 45.90625 
Q 21.53125 53.03125 30.90625 53.03125 
Q 36.671875 53.03125 40.921875 50.75 
Q 45.171875 48.484375 47 44.484375 
Q 48.828125 40.484375 48.828125 32.859375 
L 48.828125 0 
L 40.046875 0 
L 40.046875 32.859375 
Q 40.046875 39.453125 37.1875 42.453125 
Q 34.328125 45.453125 29.109375 45.453125 
Q 25.203125 45.453125 21.75 43.421875 
Q 18.3125 41.40625 16.84375 37.9375 
Q 15.375 34.46875 15.375 28.375 
L 15.375 0 
z
" id="ArialMT-104"/>
      </defs>
      <use xlink:href="#ArialMT-101"/>
      <use x="55.615234" xlink:href="#ArialMT-112"/>
      <use x="111.230469" xlink:href="#ArialMT-111"/>
      <use x="166.845703" xlink:href="#ArialMT-99"/>
      <use x="216.845703" xlink:href="#ArialMT-104"/>
     </g>
    </g>
   </g>
   <g id="matplotlib.axis_2">
    <g id="ytick_1">
     <g id="line2d_7">
      <path clip-path="url(#p8524e63b73)" d="M 66.966 184.02 
L 438.930129 184.02 
" style="fill:none;stroke:#cccccc;stroke-linecap:round;stroke-width:0.8;"/>
     </g>
     <g id="text_8">
      <!-- 0 -->
      <g style="fill:#262626;" transform="translate(48.87875 190.318875)scale(0.176 -0.176)">
       <use xlink:href="#ArialMT-48"/>
      </g>
     </g>
    </g>
    <g id="ytick_2">
     <g id="line2d_8">
      <path clip-path="url(#p8524e63b73)" d="M 66.966 126.5784 
L 438.930129 126.5784 
" style="fill:none;stroke:#cccccc;stroke-linecap:round;stroke-width:0.8;"/>
     </g>
     <g id="text_9">
      <!-- 20 -->
      <g style="fill:#262626;" transform="translate(39.0915 132.877275)scale(0.176 -0.176)">
       <use xlink:href="#ArialMT-50"/>
       <use x="55.615234" xlink:href="#ArialMT-48"/>
      </g>
     </g>
    </g>
    <g id="ytick_3">
     <g id="line2d_9">
      <path clip-path="url(#p8524e63b73)" d="M 66.966 69.1368 
L 438.930129 69.1368 
" style="fill:none;stroke:#cccccc;stroke-linecap:round;stroke-width:0.8;"/>
     </g>
     <g id="text_10">
      <!-- 40 -->
      <g style="fill:#262626;" transform="translate(39.0915 75.435675)scale(0.176 -0.176)">
       <use xlink:href="#ArialMT-52"/>
       <use x="55.615234" xlink:href="#ArialMT-48"/>
      </g>
     </g>
    </g>
    <g id="text_11">
     <!-- Validation TMCC -->
     <g style="fill:#262626;" transform="translate(31.9115 171.9505)rotate(-90)scale(0.16 -0.16)">
      <defs>
       <path d="M 28.171875 0 
L 0.4375 71.578125 
L 10.6875 71.578125 
L 29.296875 19.578125 
Q 31.546875 13.328125 33.0625 7.859375 
Q 34.71875 13.71875 36.921875 19.578125 
L 56.25 71.578125 
L 65.921875 71.578125 
L 37.890625 0 
z
" id="ArialMT-86"/>
       <path d="M 40.4375 6.390625 
Q 35.546875 2.25 31.03125 0.53125 
Q 26.515625 -1.171875 21.34375 -1.171875 
Q 12.796875 -1.171875 8.203125 3 
Q 3.609375 7.171875 3.609375 13.671875 
Q 3.609375 17.484375 5.34375 20.625 
Q 7.078125 23.78125 9.890625 25.6875 
Q 12.703125 27.59375 16.21875 28.5625 
Q 18.796875 29.25 24.03125 29.890625 
Q 34.671875 31.15625 39.703125 32.90625 
Q 39.75 34.71875 39.75 35.203125 
Q 39.75 40.578125 37.25 42.78125 
Q 33.890625 45.75 27.25 45.75 
Q 21.046875 45.75 18.09375 43.578125 
Q 15.140625 41.40625 13.71875 35.890625 
L 5.125 37.0625 
Q 6.296875 42.578125 8.984375 45.96875 
Q 11.671875 49.359375 16.75 51.1875 
Q 21.828125 53.03125 28.515625 53.03125 
Q 35.15625 53.03125 39.296875 51.46875 
Q 43.453125 49.90625 45.40625 47.53125 
Q 47.359375 45.171875 48.140625 41.546875 
Q 48.578125 39.3125 48.578125 33.453125 
L 48.578125 21.734375 
Q 48.578125 9.46875 49.140625 6.21875 
Q 49.703125 2.984375 51.375 0 
L 42.1875 0 
Q 40.828125 2.734375 40.4375 6.390625 
z
M 39.703125 26.03125 
Q 34.90625 24.078125 25.34375 22.703125 
Q 19.921875 21.921875 17.671875 20.9375 
Q 15.4375 19.96875 14.203125 18.09375 
Q 12.984375 16.21875 12.984375 13.921875 
Q 12.984375 10.40625 15.640625 8.0625 
Q 18.3125 5.71875 23.4375 5.71875 
Q 28.515625 5.71875 32.46875 7.9375 
Q 36.421875 10.15625 38.28125 14.015625 
Q 39.703125 17 39.703125 22.796875 
z
" id="ArialMT-97"/>
       <path d="M 6.390625 0 
L 6.390625 71.578125 
L 15.1875 71.578125 
L 15.1875 0 
z
" id="ArialMT-108"/>
       <path d="M 6.640625 61.46875 
L 6.640625 71.578125 
L 15.4375 71.578125 
L 15.4375 61.46875 
z
M 6.640625 0 
L 6.640625 51.859375 
L 15.4375 51.859375 
L 15.4375 0 
z
" id="ArialMT-105"/>
       <path d="M 40.234375 0 
L 40.234375 6.546875 
Q 35.296875 -1.171875 25.734375 -1.171875 
Q 19.53125 -1.171875 14.328125 2.25 
Q 9.125 5.671875 6.265625 11.796875 
Q 3.421875 17.921875 3.421875 25.875 
Q 3.421875 33.640625 6 39.96875 
Q 8.59375 46.296875 13.765625 49.65625 
Q 18.953125 53.03125 25.34375 53.03125 
Q 30.03125 53.03125 33.6875 51.046875 
Q 37.359375 49.078125 39.65625 45.90625 
L 39.65625 71.578125 
L 48.390625 71.578125 
L 48.390625 0 
z
M 12.453125 25.875 
Q 12.453125 15.921875 16.640625 10.984375 
Q 20.84375 6.0625 26.5625 6.0625 
Q 32.328125 6.0625 36.34375 10.765625 
Q 40.375 15.484375 40.375 25.140625 
Q 40.375 35.796875 36.265625 40.765625 
Q 32.171875 45.75 26.171875 45.75 
Q 20.3125 45.75 16.375 40.96875 
Q 12.453125 36.1875 12.453125 25.875 
z
" id="ArialMT-100"/>
       <path d="M 25.78125 7.859375 
L 27.046875 0.09375 
Q 23.34375 -0.6875 20.40625 -0.6875 
Q 15.625 -0.6875 12.984375 0.828125 
Q 10.359375 2.34375 9.28125 4.8125 
Q 8.203125 7.28125 8.203125 15.1875 
L 8.203125 45.015625 
L 1.765625 45.015625 
L 1.765625 51.859375 
L 8.203125 51.859375 
L 8.203125 64.703125 
L 16.9375 69.96875 
L 16.9375 51.859375 
L 25.78125 51.859375 
L 25.78125 45.015625 
L 16.9375 45.015625 
L 16.9375 14.703125 
Q 16.9375 10.9375 17.40625 9.859375 
Q 17.875 8.796875 18.921875 8.15625 
Q 19.96875 7.515625 21.921875 7.515625 
Q 23.390625 7.515625 25.78125 7.859375 
z
" id="ArialMT-116"/>
       <path d="M 6.59375 0 
L 6.59375 51.859375 
L 14.5 51.859375 
L 14.5 44.484375 
Q 20.21875 53.03125 31 53.03125 
Q 35.6875 53.03125 39.625 51.34375 
Q 43.5625 49.65625 45.515625 46.921875 
Q 47.46875 44.1875 48.25 40.4375 
Q 48.734375 37.984375 48.734375 31.890625 
L 48.734375 0 
L 39.9375 0 
L 39.9375 31.546875 
Q 39.9375 36.921875 38.90625 39.578125 
Q 37.890625 42.234375 35.28125 43.8125 
Q 32.671875 45.40625 29.15625 45.40625 
Q 23.53125 45.40625 19.453125 41.84375 
Q 15.375 38.28125 15.375 28.328125 
L 15.375 0 
z
" id="ArialMT-110"/>
       <path id="ArialMT-32"/>
       <path d="M 25.921875 0 
L 25.921875 63.140625 
L 2.34375 63.140625 
L 2.34375 71.578125 
L 59.078125 71.578125 
L 59.078125 63.140625 
L 35.40625 63.140625 
L 35.40625 0 
z
" id="ArialMT-84"/>
       <path d="M 7.421875 0 
L 7.421875 71.578125 
L 21.6875 71.578125 
L 38.625 20.90625 
Q 40.96875 13.8125 42.046875 10.296875 
Q 43.265625 14.203125 45.84375 21.78125 
L 62.984375 71.578125 
L 75.734375 71.578125 
L 75.734375 0 
L 66.609375 0 
L 66.609375 59.90625 
L 45.796875 0 
L 37.25 0 
L 16.546875 60.9375 
L 16.546875 0 
z
" id="ArialMT-77"/>
       <path d="M 58.796875 25.09375 
L 68.265625 22.703125 
Q 65.28125 11.03125 57.546875 4.90625 
Q 49.8125 -1.21875 38.625 -1.21875 
Q 27.046875 -1.21875 19.796875 3.484375 
Q 12.546875 8.203125 8.765625 17.140625 
Q 4.984375 26.078125 4.984375 36.328125 
Q 4.984375 47.515625 9.25 55.828125 
Q 13.53125 64.15625 21.40625 68.46875 
Q 29.296875 72.796875 38.765625 72.796875 
Q 49.515625 72.796875 56.828125 67.328125 
Q 64.15625 61.859375 67.046875 51.953125 
L 57.71875 49.75 
Q 55.21875 57.5625 50.484375 61.125 
Q 45.75 64.703125 38.578125 64.703125 
Q 30.328125 64.703125 24.78125 60.734375 
Q 19.234375 56.78125 16.984375 50.109375 
Q 14.75 43.453125 14.75 36.375 
Q 14.75 27.25 17.40625 20.4375 
Q 20.0625 13.625 25.671875 10.25 
Q 31.296875 6.890625 37.84375 6.890625 
Q 45.796875 6.890625 51.3125 11.46875 
Q 56.84375 16.0625 58.796875 25.09375 
z
" id="ArialMT-67"/>
      </defs>
      <use xlink:href="#ArialMT-86"/>
      <use x="59.324219" xlink:href="#ArialMT-97"/>
      <use x="114.939453" xlink:href="#ArialMT-108"/>
      <use x="137.15625" xlink:href="#ArialMT-105"/>
      <use x="159.373047" xlink:href="#ArialMT-100"/>
      <use x="214.988281" xlink:href="#ArialMT-97"/>
      <use x="270.603516" xlink:href="#ArialMT-116"/>
      <use x="298.386719" xlink:href="#ArialMT-105"/>
      <use x="320.603516" xlink:href="#ArialMT-111"/>
      <use x="376.21875" xlink:href="#ArialMT-110"/>
      <use x="431.833984" xlink:href="#ArialMT-32"/>
      <use x="457.867188" xlink:href="#ArialMT-84"/>
      <use x="518.951172" xlink:href="#ArialMT-77"/>
      <use x="602.251953" xlink:href="#ArialMT-67"/>
      <use x="674.46875" xlink:href="#ArialMT-67"/>
     </g>
    </g>
   </g>
   <g id="PolyCollection_1"/>
   <g id="PolyCollection_2"/>
   <g id="PolyCollection_3"/>
   <g id="PolyCollection_4"/>
   <g id="PolyCollection_5"/>
   <g id="PolyCollection_6"/>
   <g id="PolyCollection_7"/>
   <g id="PolyCollection_8"/>
   <g id="PolyCollection_9"/>
   <g id="PolyCollection_10"/>
   <g id="PolyCollection_11"/>
   <g id="PolyCollection_12"/>
   <g id="PolyCollection_13"/>
   <g id="PolyCollection_14"/>
   <g id="PolyCollection_15"/>
   <g id="line2d_10">
    <path clip-path="url(#p8524e63b73)" d="M 83.87346 120.522128 
L 87.289109 119.569927 
L 90.704758 117.867098 
L 94.120406 116.322098 
L 97.536055 114.732346 
L 100.951703 113.200105 
L 104.367352 111.828034 
L 107.783 110.676956 
L 111.198649 109.647329 
L 114.614298 108.825658 
L 118.029946 108.004776 
L 121.445595 107.312605 
L 124.861243 106.724242 
L 128.276892 106.12267 
L 131.69254 105.562399 
L 135.108189 105.107345 
L 138.523838 104.651686 
L 141.939486 104.232284 
L 145.355135 103.829882 
L 148.770783 103.476464 
L 152.186432 103.100526 
L 155.60208 102.724852 
L 159.017729 102.350477 
L 162.433377 102.010909 
L 165.849026 101.714554 
L 169.264675 101.437835 
L 172.680323 101.140525 
L 176.095972 100.876203 
L 179.51162 100.600468 
L 182.927269 100.356786 
L 186.342917 100.078095 
L 189.758566 99.839075 
L 193.174215 99.596302 
L 196.589863 99.347236 
L 200.005512 99.101947 
L 203.42116 98.863461 
L 206.836809 98.609928 
L 210.252457 98.375063 
L 213.668106 98.148842 
L 217.083755 97.929503 
L 220.499403 97.72027 
L 223.915052 97.512438 
L 227.3307 97.322754 
L 230.746349 97.121435 
L 234.161997 96.928381 
L 237.577646 96.738498 
L 240.993295 96.55031 
L 244.408943 96.343521 
L 247.824592 96.161859 
L 251.24024 95.976128 
L 254.655889 95.800666 
L 258.071537 95.624407 
L 261.487186 95.470993 
L 264.902835 95.299416 
L 268.318483 95.149656 
L 271.734132 94.987609 
L 275.14978 94.855534 
L 278.565429 94.713798 
L 281.981077 94.599713 
L 285.396726 94.462716 
L 288.812375 94.326783 
L 292.228023 94.190055 
L 295.643672 94.068204 
L 299.05932 93.957387 
L 302.474969 93.846055 
L 305.890617 93.731011 
L 309.306266 93.61294 
L 312.721915 93.499991 
L 316.137563 93.390465 
L 319.553212 93.287005 
L 322.96886 93.200686 
L 326.384509 93.096301 
L 329.800157 92.990903 
L 333.215806 92.928193 
L 336.631455 92.814669 
L 340.047103 92.739076 
L 343.462752 92.657282 
L 346.8784 92.585544 
L 350.294049 92.498348 
L 353.709697 92.436929 
L 357.125346 92.34942 
L 360.540994 92.283451 
L 363.956643 92.200654 
L 367.372292 92.149766 
L 370.78794 92.078364 
L 374.203589 92.018286 
L 377.619237 91.957201 
L 381.034886 91.906156 
L 384.450534 91.843566 
L 387.866183 91.792709 
L 391.281832 91.738669 
L 394.69748 91.690528 
L 398.113129 91.656798 
L 401.528777 91.600561 
L 404.944426 91.555358 
L 408.360074 91.508173 
L 411.775723 91.462496 
L 415.191372 91.428808 
L 418.60702 91.374083 
L 422.022669 91.326648 
" style="fill:none;stroke:#0173b2;stroke-linecap:round;stroke-width:2.5;"/>
   </g>
   <g id="line2d_11">
    <path clip-path="url(#p8524e63b73)" d="M 83.87346 120.059873 
L 87.289109 119.23253 
L 90.704758 118.149385 
L 94.120406 116.612322 
L 97.536055 115.234314 
L 100.951703 114.111104 
L 104.367352 113.016664 
L 107.783 112.344688 
L 111.198649 111.37901 
L 114.614298 110.53452 
L 118.029946 109.78484 
L 121.445595 109.046169 
L 124.861243 108.392889 
L 128.276892 107.558095 
L 131.69254 106.892163 
L 135.108189 106.254657 
L 138.523838 105.653108 
L 141.939486 105.080631 
L 145.355135 104.561892 
L 148.770783 104.030468 
L 152.186432 103.50294 
L 155.60208 103.028188 
L 159.017729 102.57079 
L 162.433377 102.151809 
L 165.849026 101.628803 
L 169.264675 101.129823 
L 172.680323 100.686722 
L 176.095972 100.229955 
L 179.51162 99.807211 
L 182.927269 99.394488 
L 186.342917 98.990054 
L 189.758566 98.622806 
L 193.174215 98.231047 
L 196.589863 97.905227 
L 200.005512 97.577056 
L 203.42116 97.281877 
L 206.836809 97.039158 
L 210.252457 96.705904 
L 213.668106 96.421278 
L 217.083755 96.109297 
L 220.499403 95.820316 
L 223.915052 95.517952 
L 227.3307 95.308815 
L 230.746349 95.038779 
L 234.161997 94.832382 
L 237.577646 94.568243 
L 240.993295 94.509033 
L 244.408943 94.195032 
L 247.824592 94.070974 
L 251.24024 93.879549 
L 254.655889 93.737179 
L 258.071537 93.552422 
L 261.487186 93.417259 
L 264.902835 93.261557 
L 268.318483 93.052921 
L 271.734132 92.914318 
L 275.14978 92.75432 
L 278.565429 92.655661 
L 281.981077 92.554599 
L 285.396726 92.470337 
L 288.812375 92.382252 
L 292.228023 92.269145 
L 295.643672 92.160333 
L 299.05932 92.018619 
L 302.474969 91.916531 
L 305.890617 91.808639 
L 309.306266 91.782037 
L 312.721915 91.771621 
L 316.137563 91.622631 
L 319.553212 91.511885 
L 322.96886 91.461962 
L 326.384509 91.370605 
L 329.800157 91.33238 
L 333.215806 91.252931 
L 336.631455 91.199045 
L 340.047103 91.10192 
L 343.462752 91.224878 
L 346.8784 91.041688 
L 350.294049 90.98042 
L 353.709697 90.911664 
L 357.125346 90.875949 
L 360.540994 90.871236 
L 363.956643 90.846333 
L 367.372292 90.805891 
L 370.78794 90.816031 
L 374.203589 90.737524 
L 377.619237 90.738867 
L 381.034886 90.706731 
L 384.450534 90.685243 
L 387.866183 90.585765 
L 391.281832 90.525 
L 394.69748 90.51606 
L 398.113129 90.502824 
L 401.528777 90.466808 
L 404.944426 90.475712 
L 408.360074 90.397475 
L 411.775723 90.33553 
L 415.191372 90.285436 
L 418.60702 90.277106 
L 422.022669 90.251803 
" style="fill:none;stroke:#0173b2;stroke-dasharray:10,3.75;stroke-dashoffset:0;stroke-width:2.5;"/>
   </g>
   <g id="line2d_12">
    <path clip-path="url(#p8524e63b73)" d="M 83.87346 122.416168 
L 87.289109 122.223453 
L 90.704758 122.130875 
L 94.120406 121.989363 
L 97.536055 121.934714 
L 100.951703 121.869052 
L 104.367352 121.797815 
L 107.783 121.635086 
L 111.198649 121.659328 
L 114.614298 121.597991 
L 118.029946 121.566134 
L 121.445595 121.551316 
L 124.861243 121.444282 
L 128.276892 121.443606 
L 131.69254 121.440768 
L 135.108189 121.373962 
L 138.523838 121.424927 
L 141.939486 121.405254 
L 145.355135 121.38729 
L 148.770783 121.412598 
L 152.186432 121.410003 
L 155.60208 121.440033 
L 159.017729 121.406257 
L 162.433377 121.454672 
L 165.849026 121.329252 
L 169.264675 121.333774 
L 172.680323 121.231137 
L 176.095972 121.233595 
L 179.51162 121.226457 
L 182.927269 121.268853 
L 186.342917 121.251326 
L 189.758566 121.413561 
L 193.174215 121.437308 
L 196.589863 121.334591 
L 200.005512 121.331697 
L 203.42116 121.341071 
L 206.836809 121.360655 
L 210.252457 121.355712 
L 213.668106 121.358852 
L 217.083755 121.383925 
L 220.499403 121.386482 
L 223.915052 121.376625 
L 227.3307 121.368638 
L 230.746349 121.354343 
L 234.161997 121.396632 
L 237.577646 121.419057 
L 240.993295 121.341292 
L 244.408943 121.259568 
L 247.824592 121.184509 
L 251.24024 121.177102 
L 254.655889 121.121217 
L 258.071537 121.057885 
L 261.487186 121.104367 
L 264.902835 121.050314 
L 268.318483 120.938132 
L 271.734132 120.881473 
L 275.14978 120.827037 
L 278.565429 120.837174 
L 281.981077 120.812203 
L 285.396726 120.900059 
L 288.812375 120.801733 
L 292.228023 120.631169 
L 295.643672 120.604271 
L 299.05932 120.570795 
L 302.474969 120.645336 
L 305.890617 120.494065 
L 309.306266 120.501782 
L 312.721915 120.532862 
L 316.137563 120.568292 
L 319.553212 120.536518 
L 322.96886 120.493507 
L 326.384509 120.498987 
L 329.800157 120.500942 
L 333.215806 120.501733 
L 336.631455 120.405614 
L 340.047103 120.307368 
L 343.462752 120.336857 
L 346.8784 120.251718 
L 350.294049 120.279886 
L 353.709697 120.327026 
L 357.125346 120.314119 
L 360.540994 120.296877 
L 363.956643 120.353209 
L 367.372292 120.289502 
L 370.78794 120.261967 
L 374.203589 120.217498 
L 377.619237 120.240506 
L 381.034886 120.206634 
L 384.450534 120.204199 
L 387.866183 120.251652 
L 391.281832 120.240568 
L 394.69748 120.203654 
L 398.113129 120.197305 
L 401.528777 120.214005 
L 404.944426 120.23167 
L 408.360074 120.215786 
L 411.775723 120.177905 
L 415.191372 120.18901 
L 418.60702 120.147944 
L 422.022669 120.125355 
" style="fill:none;stroke:#de8f05;stroke-linecap:round;stroke-width:2.5;"/>
   </g>
   <g id="line2d_13">
    <path clip-path="url(#p8524e63b73)" d="M 83.87346 109.267198 
L 87.289109 105.674927 
L 90.704758 104.230208 
L 94.120406 103.647177 
L 97.536055 103.322458 
L 100.951703 103.276366 
L 104.367352 103.124373 
L 107.783 102.933208 
L 111.198649 102.509623 
L 114.614298 102.510776 
L 118.029946 102.425613 
L 121.445595 102.165992 
L 124.861243 102.206973 
L 128.276892 102.252511 
L 131.69254 102.307836 
L 135.108189 102.08469 
L 138.523838 101.982458 
L 141.939486 102.12031 
L 145.355135 102.250462 
L 148.770783 102.047489 
L 152.186432 101.717597 
L 155.60208 101.998894 
L 159.017729 101.841877 
L 162.433377 101.967273 
L 165.849026 102.009055 
L 169.264675 101.921972 
L 172.680323 101.951666 
L 176.095972 101.890083 
L 179.51162 101.798579 
L 182.927269 101.975013 
L 186.342917 101.878126 
L 189.758566 102.054827 
L 193.174215 102.170108 
L 196.589863 102.084247 
L 200.005512 101.807294 
L 203.42116 101.91864 
L 206.836809 101.734763 
L 210.252457 102.036543 
L 213.668106 101.942261 
L 217.083755 101.839856 
L 220.499403 102.051578 
L 223.915052 102.030257 
L 227.3307 101.876506 
L 230.746349 102.107749 
L 234.161997 102.07896 
L 237.577646 102.083562 
L 240.993295 101.880201 
L 244.408943 102.083016 
L 247.824592 102.005264 
L 251.24024 102.267309 
L 254.655889 102.032873 
L 258.071537 102.354461 
L 261.487186 102.183655 
L 264.902835 102.429074 
L 268.318483 102.409058 
L 271.734132 102.403339 
L 275.14978 102.479028 
L 278.565429 102.534412 
L 281.981077 102.232335 
L 285.396726 102.382407 
L 288.812375 102.68364 
L 292.228023 102.439229 
L 295.643672 102.5923 
L 299.05932 102.424134 
L 302.474969 102.521363 
L 305.890617 102.33915 
L 309.306266 102.25586 
L 312.721915 102.302579 
L 316.137563 102.507188 
L 319.553212 102.409213 
L 322.96886 102.4629 
L 326.384509 102.299484 
L 329.800157 102.4968 
L 333.215806 102.431687 
L 336.631455 102.258527 
L 340.047103 102.354823 
L 343.462752 102.350027 
L 346.8784 102.353819 
L 350.294049 102.496537 
L 353.709697 102.363339 
L 357.125346 102.570491 
L 360.540994 102.373003 
L 363.956643 102.544141 
L 367.372292 102.34455 
L 370.78794 102.64325 
L 374.203589 102.63856 
L 377.619237 102.449191 
L 381.034886 102.666844 
L 384.450534 102.476412 
L 387.866183 102.510222 
L 391.281832 102.490089 
L 394.69748 102.48032 
L 398.113129 102.540542 
L 401.528777 102.521326 
L 404.944426 102.621203 
L 408.360074 102.711481 
L 411.775723 102.532714 
L 415.191372 102.616614 
L 418.60702 102.796482 
L 422.022669 102.67035 
" style="fill:none;stroke:#de8f05;stroke-dasharray:10,3.75;stroke-dashoffset:0;stroke-width:2.5;"/>
   </g>
   <g id="line2d_14">
    <path clip-path="url(#p8524e63b73)" d="M 83.87346 121.381688 
L 87.289109 120.964014 
L 90.704758 121.020649 
L 94.120406 120.817522 
L 97.536055 120.679239 
L 100.951703 120.736272 
L 104.367352 120.80886 
L 107.783 120.74857 
L 111.198649 120.783077 
L 114.614298 120.821927 
L 118.029946 120.748177 
L 121.445595 120.701167 
L 124.861243 120.58088 
L 128.276892 120.59407 
L 131.69254 120.578697 
L 135.108189 120.695444 
L 138.523838 120.596014 
L 141.939486 120.528185 
L 145.355135 120.563966 
L 148.770783 120.53314 
L 152.186432 120.451062 
L 155.60208 120.223066 
L 159.017729 120.231544 
L 162.433377 120.22278 
L 165.849026 120.094407 
L 169.264675 119.940801 
L 172.680323 119.945709 
L 176.095972 119.697334 
L 179.51162 119.840631 
L 182.927269 119.69157 
L 186.342917 119.765823 
L 189.758566 120.028434 
L 193.174215 119.88839 
L 196.589863 119.973764 
L 200.005512 120.059766 
L 203.42116 120.279517 
L 206.836809 119.982947 
L 210.252457 119.916166 
L 213.668106 119.892952 
L 217.083755 119.985772 
L 220.499403 120.052321 
L 223.915052 119.888933 
L 227.3307 120.026864 
L 230.746349 119.949121 
L 234.161997 119.833688 
L 237.577646 119.802433 
L 240.993295 119.823148 
L 244.408943 119.913655 
L 247.824592 119.871901 
L 251.24024 119.908843 
L 254.655889 119.916541 
L 258.071537 119.906193 
L 261.487186 119.875117 
L 264.902835 119.971559 
L 268.318483 119.809749 
L 271.734132 119.746104 
L 275.14978 119.714539 
L 278.565429 119.69634 
L 281.981077 119.730234 
L 285.396726 119.812189 
L 288.812375 119.778135 
L 292.228023 119.69771 
L 295.643672 119.685292 
L 299.05932 119.680288 
L 302.474969 119.572555 
L 305.890617 119.795925 
L 309.306266 119.844004 
L 312.721915 119.838756 
L 316.137563 119.685489 
L 319.553212 119.691727 
L 322.96886 119.677997 
L 326.384509 119.432833 
L 329.800157 119.479664 
L 333.215806 119.499323 
L 336.631455 119.485789 
L 340.047103 119.686468 
L 343.462752 119.519241 
L 346.8784 119.662863 
L 350.294049 119.44388 
L 353.709697 119.397276 
L 357.125346 119.379806 
L 360.540994 119.363519 
L 363.956643 119.408796 
L 367.372292 119.415241 
L 370.78794 119.366984 
L 374.203589 119.37603 
L 377.619237 119.380717 
L 381.034886 119.448728 
L 384.450534 119.519505 
L 387.866183 119.473295 
L 391.281832 119.491125 
L 394.69748 119.507589 
L 398.113129 119.749566 
L 401.528777 119.670108 
L 404.944426 119.592306 
L 408.360074 119.427669 
L 411.775723 119.353893 
L 415.191372 119.330526 
L 418.60702 119.480747 
L 422.022669 119.574236 
" style="fill:none;stroke:#029e73;stroke-linecap:round;stroke-width:2.5;"/>
   </g>
   <g id="line2d_15">
    <path clip-path="url(#p8524e63b73)" d="M 83.87346 109.059836 
L 87.289109 105.912793 
L 90.704758 104.673371 
L 94.120406 104.834868 
L 97.536055 104.790996 
L 100.951703 105.004715 
L 104.367352 104.752046 
L 107.783 104.880967 
L 111.198649 104.822761 
L 114.614298 105.143202 
L 118.029946 104.995137 
L 121.445595 104.198137 
L 124.861243 104.32325 
L 128.276892 104.046219 
L 131.69254 103.932852 
L 135.108189 103.829826 
L 138.523838 104.063095 
L 141.939486 104.139168 
L 145.355135 103.969234 
L 148.770783 103.581141 
L 152.186432 103.983393 
L 155.60208 103.980232 
L 159.017729 103.425966 
L 162.433377 103.407349 
L 165.849026 103.671189 
L 169.264675 103.785072 
L 172.680323 103.355646 
L 176.095972 103.715324 
L 179.51162 103.643215 
L 182.927269 103.740121 
L 186.342917 103.422999 
L 189.758566 103.569668 
L 193.174215 103.298069 
L 196.589863 103.297783 
L 200.005512 103.318486 
L 203.42116 103.423507 
L 206.836809 103.458247 
L 210.252457 103.358356 
L 213.668106 103.056577 
L 217.083755 103.201855 
L 220.499403 103.40674 
L 223.915052 103.159695 
L 227.3307 102.978257 
L 230.746349 102.905049 
L 234.161997 102.883255 
L 237.577646 102.777626 
L 240.993295 102.913668 
L 244.408943 103.01913 
L 247.824592 103.15827 
L 251.24024 103.011668 
L 254.655889 102.991465 
L 258.071537 102.799273 
L 261.487186 102.967231 
L 264.902835 102.991486 
L 268.318483 103.319402 
L 271.734132 103.172926 
L 275.14978 103.041656 
L 278.565429 102.944027 
L 281.981077 103.831359 
L 285.396726 103.554301 
L 288.812375 103.44766 
L 292.228023 103.606964 
L 295.643672 103.172856 
L 299.05932 102.99444 
L 302.474969 103.245848 
L 305.890617 103.20638 
L 309.306266 103.231976 
L 312.721915 103.115676 
L 316.137563 102.953389 
L 319.553212 102.794323 
L 322.96886 102.928374 
L 326.384509 102.791162 
L 329.800157 102.786541 
L 333.215806 102.865876 
L 336.631455 103.107091 
L 340.047103 103.025508 
L 343.462752 102.973909 
L 346.8784 102.892561 
L 350.294049 103.174645 
L 353.709697 102.820472 
L 357.125346 102.633617 
L 360.540994 102.834198 
L 363.956643 102.80144 
L 367.372292 102.921225 
L 370.78794 103.000443 
L 374.203589 102.719141 
L 377.619237 102.650036 
L 381.034886 103.662339 
L 384.450534 103.583971 
L 387.866183 103.639375 
L 391.281832 103.189288 
L 394.69748 103.266355 
L 398.113129 103.408495 
L 401.528777 103.330945 
L 404.944426 103.078801 
L 408.360074 103.296087 
L 411.775723 103.417211 
L 415.191372 103.307339 
L 418.60702 102.601842 
L 422.022669 103.193615 
" style="fill:none;stroke:#029e73;stroke-dasharray:10,3.75;stroke-dashoffset:0;stroke-width:2.5;"/>
   </g>
   <g id="line2d_16"/>
   <g id="line2d_17"/>
   <g id="line2d_18"/>
   <g id="line2d_19"/>
   <g id="line2d_20"/>
   <g id="line2d_21">
    <path clip-path="url(#p8524e63b73)" d="M 83.87346 120.95096 
L 87.289109 118.437299 
L 90.704758 116.576657 
L 94.120406 115.361953 
L 97.536055 114.344012 
L 100.951703 113.507856 
L 104.367352 112.905574 
L 107.783 112.508732 
L 111.198649 112.088146 
L 114.614298 111.781312 
L 118.029946 111.623461 
L 121.445595 111.376005 
L 124.861243 111.253555 
L 128.276892 111.120667 
L 131.69254 111.115304 
L 135.108189 111.137025 
L 138.523838 111.234555 
L 141.939486 111.442104 
L 145.355135 113.773731 
L 148.770783 112.343234 
L 152.186432 111.546379 
L 155.60208 111.069874 
L 159.017729 110.634539 
L 162.433377 110.231174 
L 165.849026 109.905949 
L 169.264675 109.674084 
L 172.680323 109.429612 
L 176.095972 109.193935 
L 179.51162 108.994554 
L 182.927269 108.848898 
L 186.342917 108.70352 
L 189.758566 108.570498 
L 193.174215 108.513853 
L 196.589863 108.507879 
L 200.005512 108.440561 
L 203.42116 108.605306 
L 206.836809 108.541272 
L 210.252457 108.518844 
L 213.668106 108.647839 
L 217.083755 108.546581 
L 220.499403 108.621559 
L 223.915052 108.759037 
L 227.3307 108.766335 
L 230.746349 108.715502 
L 234.161997 108.703589 
L 237.577646 108.742366 
L 240.993295 108.816394 
L 244.408943 108.580376 
L 247.824592 108.389704 
L 251.24024 108.314644 
L 254.655889 108.376981 
L 258.071537 107.931081 
L 261.487186 108.161376 
L 264.902835 108.016799 
L 268.318483 108.047436 
L 271.734132 107.978558 
L 275.14978 107.912047 
L 278.565429 107.614981 
L 281.981077 107.523851 
L 285.396726 107.65505 
L 288.812375 107.898872 
L 292.228023 107.398272 
L 295.643672 107.494458 
L 299.05932 107.276518 
L 302.474969 107.571987 
L 305.890617 107.343627 
L 309.306266 107.488091 
L 312.721915 107.319642 
L 316.137563 107.193195 
L 319.553212 107.190048 
L 322.96886 107.319155 
L 326.384509 107.050641 
L 329.800157 106.942241 
L 333.215806 107.076979 
L 336.631455 106.994734 
L 340.047103 107.164344 
L 343.462752 107.166957 
L 346.8784 107.090246 
L 350.294049 107.112249 
L 353.709697 107.122154 
L 357.125346 106.857524 
L 360.540994 106.776547 
L 363.956643 106.732603 
L 367.372292 106.699042 
L 370.78794 106.655871 
L 374.203589 106.58363 
L 377.619237 106.520776 
L 381.034886 106.385621 
L 384.450534 106.860772 
L 387.866183 106.557272 
L 391.281832 106.444269 
L 394.69748 106.509075 
L 398.113129 106.700362 
L 401.528777 106.476627 
L 404.944426 106.562404 
L 408.360074 106.662243 
L 411.775723 106.535458 
L 415.191372 106.763804 
L 418.60702 106.502965 
L 422.022669 106.930982 
" style="fill:none;stroke:#0173b2;stroke-linecap:round;stroke-width:2.5;"/>
   </g>
   <g id="line2d_22">
    <path clip-path="url(#p8524e63b73)" d="M 83.87346 120.003187 
L 87.289109 120.007333 
L 90.704758 119.193513 
L 94.120406 118.929717 
L 97.536055 118.869601 
L 100.951703 118.931527 
L 104.367352 118.610233 
L 107.783 118.794824 
L 111.198649 118.689214 
L 114.614298 118.513942 
L 118.029946 118.628698 
L 121.445595 118.374758 
L 124.861243 118.200495 
L 128.276892 118.241187 
L 131.69254 118.896809 
L 135.108189 118.829147 
L 138.523838 118.914711 
L 141.939486 118.865892 
L 145.355135 118.609915 
L 148.770783 118.719332 
L 152.186432 118.366902 
L 155.60208 118.513905 
L 159.017729 118.6049 
L 162.433377 118.501521 
L 165.849026 118.34712 
L 169.264675 118.458684 
L 172.680323 118.348718 
L 176.095972 118.442806 
L 179.51162 118.580096 
L 182.927269 118.61416 
L 186.342917 118.262157 
L 189.758566 118.181121 
L 193.174215 117.935119 
L 196.589863 117.845927 
L 200.005512 117.757066 
L 203.42116 117.825605 
L 206.836809 117.697536 
L 210.252457 117.7185 
L 213.668106 117.983005 
L 217.083755 117.814605 
L 220.499403 117.775343 
L 223.915052 117.786711 
L 227.3307 117.827814 
L 230.746349 117.792411 
L 234.161997 117.859431 
L 237.577646 118.117409 
L 240.993295 118.204635 
L 244.408943 118.103103 
L 247.824592 118.012676 
L 251.24024 117.981601 
L 254.655889 117.788605 
L 258.071537 118.192084 
L 261.487186 118.063429 
L 264.902835 118.043573 
L 268.318483 117.987738 
L 271.734132 117.570816 
L 275.14978 117.733398 
L 278.565429 117.741452 
L 281.981077 117.865987 
L 285.396726 117.499222 
L 288.812375 117.508762 
L 292.228023 117.607576 
L 295.643672 117.716827 
L 299.05932 117.547516 
L 302.474969 117.765355 
L 305.890617 117.97942 
L 309.306266 118.155105 
L 312.721915 117.962744 
L 316.137563 118.095685 
L 319.553212 117.81936 
L 322.96886 117.678813 
L 326.384509 117.694545 
L 329.800157 117.425422 
L 333.215806 117.59284 
L 336.631455 117.517914 
L 340.047103 117.569734 
L 343.462752 117.45356 
L 346.8784 117.603466 
L 350.294049 117.596621 
L 353.709697 117.798526 
L 357.125346 117.46845 
L 360.540994 117.429192 
L 363.956643 117.613717 
L 367.372292 117.473274 
L 370.78794 117.235121 
L 374.203589 117.511698 
L 377.619237 117.624385 
L 381.034886 117.543135 
L 384.450534 117.556989 
L 387.866183 117.600106 
L 391.281832 117.389925 
L 394.69748 117.329286 
L 398.113129 117.21046 
L 401.528777 116.884531 
L 404.944426 116.782186 
L 408.360074 116.975444 
L 411.775723 116.888895 
L 415.191372 117.114927 
L 418.60702 116.833852 
L 422.022669 116.820811 
" style="fill:none;stroke:#029e73;stroke-linecap:round;stroke-width:2.5;"/>
   </g>
   <g id="line2d_23"/>
   <g id="line2d_24"/>
   <g id="line2d_25"/>
   <g id="line2d_26">
    <path clip-path="url(#p8524e63b73)" d="M 83.87346 120.135096 
L 87.289109 117.093678 
L 90.704758 115.315817 
L 94.120406 113.697739 
L 97.536055 112.367148 
L 100.951703 111.33126 
L 104.367352 110.614303 
L 107.783 109.751683 
L 111.198649 109.086647 
L 114.614298 108.427896 
L 118.029946 107.957336 
L 121.445595 107.490201 
L 124.861243 107.089773 
L 128.276892 106.676898 
L 131.69254 106.344989 
L 135.108189 106.045961 
L 138.523838 105.762884 
L 141.939486 105.480125 
L 145.355135 105.19659 
L 148.770783 104.978282 
L 152.186432 104.795951 
L 155.60208 104.615978 
L 159.017729 104.439506 
L 162.433377 104.260677 
L 165.849026 104.02646 
L 169.264675 103.881751 
L 172.680323 103.747315 
L 176.095972 103.640008 
L 179.51162 103.593949 
L 182.927269 103.460013 
L 186.342917 103.371434 
L 189.758566 103.353441 
L 193.174215 103.279522 
L 196.589863 103.163747 
L 200.005512 103.058363 
L 203.42116 102.961164 
L 206.836809 102.967683 
L 210.252457 102.801624 
L 213.668106 102.645163 
L 217.083755 102.694328 
L 220.499403 102.495423 
L 223.915052 102.583619 
L 227.3307 102.239347 
L 230.746349 102.591232 
L 234.161997 109.088041 
L 237.577646 105.55511 
L 240.993295 104.496311 
L 244.408943 103.878856 
L 247.824592 103.371908 
L 251.24024 102.987702 
L 254.655889 102.678343 
L 258.071537 102.445006 
L 261.487186 102.208414 
L 264.902835 102.014244 
L 268.318483 101.892899 
L 271.734132 101.756047 
L 275.14978 101.696833 
L 278.565429 101.578142 
L 281.981077 101.50161 
L 285.396726 101.449548 
L 288.812375 101.387694 
L 292.228023 101.396833 
L 295.643672 101.407592 
L 299.05932 101.343396 
L 302.474969 101.364854 
L 305.890617 101.343877 
L 309.306266 101.335832 
L 312.721915 101.334601 
L 316.137563 101.340644 
L 319.553212 101.417183 
L 322.96886 101.317276 
L 326.384509 101.212273 
L 329.800157 101.160365 
L 333.215806 101.211003 
L 336.631455 101.141069 
L 340.047103 101.062451 
L 343.462752 101.013257 
L 346.8784 100.811156 
L 350.294049 100.767875 
L 353.709697 100.792886 
L 357.125346 100.956121 
L 360.540994 100.992104 
L 363.956643 101.041783 
L 367.372292 100.906467 
L 370.78794 100.717204 
L 374.203589 100.678552 
L 377.619237 100.568804 
L 381.034886 100.445869 
L 384.450534 100.414729 
L 387.866183 100.388083 
L 391.281832 100.471781 
L 394.69748 100.520122 
L 398.113129 100.496678 
L 401.528777 100.615076 
L 404.944426 100.524711 
L 408.360074 100.514238 
L 411.775723 100.417736 
L 415.191372 100.230822 
L 418.60702 100.237522 
L 422.022669 100.275976 
" style="fill:none;stroke:#0173b2;stroke-linecap:round;stroke-width:2.5;"/>
   </g>
   <g id="line2d_27">
    <path clip-path="url(#p8524e63b73)" d="M 83.87346 121.159351 
L 87.289109 120.812635 
L 90.704758 120.400156 
L 94.120406 119.515649 
L 97.536055 119.873855 
L 100.951703 120.037864 
L 104.367352 119.790207 
L 107.783 119.592984 
L 111.198649 119.70792 
L 114.614298 119.398471 
L 118.029946 119.537467 
L 121.445595 119.31796 
L 124.861243 119.37399 
L 128.276892 118.95146 
L 131.69254 118.795923 
L 135.108189 118.788765 
L 138.523838 118.666326 
L 141.939486 118.86185 
L 145.355135 118.724932 
L 148.770783 118.679202 
L 152.186432 118.471731 
L 155.60208 118.424924 
L 159.017729 118.518556 
L 162.433377 118.280339 
L 165.849026 118.326604 
L 169.264675 118.474561 
L 172.680323 118.575601 
L 176.095972 118.616323 
L 179.51162 118.662894 
L 182.927269 118.911538 
L 186.342917 119.043422 
L 189.758566 118.831458 
L 193.174215 118.795843 
L 196.589863 118.593247 
L 200.005512 118.553739 
L 203.42116 118.645516 
L 206.836809 118.56641 
L 210.252457 118.459123 
L 213.668106 118.417774 
L 217.083755 118.195782 
L 220.499403 118.137284 
L 223.915052 118.277746 
L 227.3307 118.290677 
L 230.746349 118.228632 
L 234.161997 118.250405 
L 237.577646 118.235588 
L 240.993295 118.255739 
L 244.408943 118.2853 
L 247.824592 118.118066 
L 251.24024 118.456462 
L 254.655889 118.451142 
L 258.071537 118.49497 
L 261.487186 118.58745 
L 264.902835 118.5001 
L 268.318483 118.331839 
L 271.734132 118.276211 
L 275.14978 118.284676 
L 278.565429 118.354597 
L 281.981077 118.419475 
L 285.396726 118.173909 
L 288.812375 118.178617 
L 292.228023 118.142025 
L 295.643672 117.952157 
L 299.05932 117.88512 
L 302.474969 117.778772 
L 305.890617 117.826404 
L 309.306266 117.84913 
L 312.721915 117.927711 
L 316.137563 117.631404 
L 319.553212 117.579924 
L 322.96886 117.577558 
L 326.384509 117.551846 
L 329.800157 117.716829 
L 333.215806 117.531778 
L 336.631455 117.426552 
L 340.047103 117.43065 
L 343.462752 117.763829 
L 346.8784 117.745206 
L 350.294049 117.534179 
L 353.709697 117.391699 
L 357.125346 117.738941 
L 360.540994 117.75576 
L 363.956643 117.990219 
L 367.372292 117.820594 
L 370.78794 117.599176 
L 374.203589 117.588584 
L 377.619237 118.029754 
L 381.034886 117.878558 
L 384.450534 117.734302 
L 387.866183 117.684868 
L 391.281832 117.650246 
L 394.69748 117.557439 
L 398.113129 117.513828 
L 401.528777 117.563245 
L 404.944426 117.55931 
L 408.360074 118.059684 
L 411.775723 117.717117 
L 415.191372 117.730337 
L 418.60702 117.834958 
L 422.022669 117.543498 
" style="fill:none;stroke:#029e73;stroke-linecap:round;stroke-width:2.5;"/>
   </g>
   <g id="line2d_28"/>
   <g id="line2d_29"/>
   <g id="line2d_30"/>
   <g id="line2d_31">
    <path clip-path="url(#p8524e63b73)" d="M 83.87346 120.228276 
L 87.289109 117.164884 
L 90.704758 114.541494 
L 94.120406 112.695572 
L 97.536055 111.276331 
L 100.951703 110.115353 
L 104.367352 109.232591 
L 107.783 108.463588 
L 111.198649 107.751303 
L 114.614298 107.116203 
L 118.029946 106.590486 
L 121.445595 106.074149 
L 124.861243 105.549934 
L 128.276892 105.101853 
L 131.69254 104.676743 
L 135.108189 104.264855 
L 138.523838 103.883346 
L 141.939486 103.540643 
L 145.355135 103.167557 
L 148.770783 102.846845 
L 152.186432 102.504941 
L 155.60208 102.223599 
L 159.017729 101.906167 
L 162.433377 101.614093 
L 165.849026 101.316539 
L 169.264675 101.066023 
L 172.680323 100.816886 
L 176.095972 100.564058 
L 179.51162 100.333219 
L 182.927269 100.116011 
L 186.342917 99.897929 
L 189.758566 99.695104 
L 193.174215 99.480446 
L 196.589863 99.278327 
L 200.005512 99.083061 
L 203.42116 98.903657 
L 206.836809 98.717126 
L 210.252457 98.553713 
L 213.668106 98.400253 
L 217.083755 98.242865 
L 220.499403 98.079694 
L 223.915052 97.941446 
L 227.3307 97.797414 
L 230.746349 97.667323 
L 234.161997 97.530851 
L 237.577646 97.3917 
L 240.993295 97.301045 
L 244.408943 97.191785 
L 247.824592 97.086901 
L 251.24024 96.96644 
L 254.655889 96.887985 
L 258.071537 96.779068 
L 261.487186 96.683408 
L 264.902835 96.652765 
L 268.318483 96.540751 
L 271.734132 96.47079 
L 275.14978 96.369573 
L 278.565429 96.3116 
L 281.981077 96.257457 
L 285.396726 96.2002 
L 288.812375 96.081111 
L 292.228023 95.99545 
L 295.643672 95.989579 
L 299.05932 95.93013 
L 302.474969 95.868755 
L 305.890617 95.862854 
L 309.306266 95.852629 
L 312.721915 95.80856 
L 316.137563 95.807445 
L 319.553212 95.79659 
L 322.96886 95.812488 
L 326.384509 95.793257 
L 329.800157 95.808722 
L 333.215806 95.773343 
L 336.631455 95.815468 
L 340.047103 95.827606 
L 343.462752 95.869647 
L 346.8784 95.904907 
L 350.294049 95.876573 
L 353.709697 95.853465 
L 357.125346 95.967578 
L 360.540994 95.862402 
L 363.956643 95.808087 
L 367.372292 95.809527 
L 370.78794 95.75915 
L 374.203589 95.799474 
L 377.619237 95.837784 
L 381.034886 95.777021 
L 384.450534 95.694662 
L 387.866183 95.609529 
L 391.281832 95.553028 
L 394.69748 95.496377 
L 398.113129 95.440409 
L 401.528777 95.401008 
L 404.944426 95.372698 
L 408.360074 95.370632 
L 411.775723 95.413484 
L 415.191372 95.46881 
L 418.60702 95.40367 
L 422.022669 95.384771 
" style="fill:none;stroke:#0173b2;stroke-linecap:round;stroke-width:2.5;"/>
   </g>
   <g id="line2d_32">
    <path clip-path="url(#p8524e63b73)" d="M 83.87346 121.23594 
L 87.289109 121.162285 
L 90.704758 120.751574 
L 94.120406 120.460543 
L 97.536055 120.225474 
L 100.951703 120.170199 
L 104.367352 120.198949 
L 107.783 119.82752 
L 111.198649 119.544725 
L 114.614298 119.762372 
L 118.029946 119.773131 
L 121.445595 119.918518 
L 124.861243 119.909845 
L 128.276892 119.781444 
L 131.69254 119.750504 
L 135.108189 119.794192 
L 138.523838 119.651349 
L 141.939486 119.615157 
L 145.355135 119.61574 
L 148.770783 119.403527 
L 152.186432 119.197104 
L 155.60208 119.105065 
L 159.017729 119.131265 
L 162.433377 118.823109 
L 165.849026 118.866432 
L 169.264675 118.860236 
L 172.680323 118.907202 
L 176.095972 118.789153 
L 179.51162 118.974578 
L 182.927269 118.879469 
L 186.342917 118.769108 
L 189.758566 118.807963 
L 193.174215 118.882076 
L 196.589863 118.938039 
L 200.005512 118.905471 
L 203.42116 118.78587 
L 206.836809 118.542455 
L 210.252457 118.608141 
L 213.668106 118.633068 
L 217.083755 118.668377 
L 220.499403 118.626938 
L 223.915052 118.67822 
L 227.3307 118.66462 
L 230.746349 118.535563 
L 234.161997 118.477381 
L 237.577646 118.642098 
L 240.993295 118.515547 
L 244.408943 118.53433 
L 247.824592 118.505718 
L 251.24024 118.565741 
L 254.655889 118.587625 
L 258.071537 118.603594 
L 261.487186 118.691977 
L 264.902835 118.634513 
L 268.318483 118.650688 
L 271.734132 118.666987 
L 275.14978 118.467803 
L 278.565429 118.476441 
L 281.981077 118.136893 
L 285.396726 118.112936 
L 288.812375 118.06843 
L 292.228023 118.044236 
L 295.643672 118.277552 
L 299.05932 118.217271 
L 302.474969 118.30349 
L 305.890617 118.296972 
L 309.306266 118.270852 
L 312.721915 118.353287 
L 316.137563 118.314383 
L 319.553212 118.313532 
L 322.96886 118.288692 
L 326.384509 118.296525 
L 329.800157 118.306834 
L 333.215806 118.300601 
L 336.631455 118.268268 
L 340.047103 118.286741 
L 343.462752 118.276422 
L 346.8784 118.256348 
L 350.294049 118.229137 
L 353.709697 118.301476 
L 357.125346 118.337495 
L 360.540994 118.405356 
L 363.956643 118.672635 
L 367.372292 118.693586 
L 370.78794 118.509674 
L 374.203589 118.736686 
L 377.619237 118.696962 
L 381.034886 118.68668 
L 384.450534 118.690063 
L 387.866183 118.559371 
L 391.281832 118.567463 
L 394.69748 118.526596 
L 398.113129 118.800505 
L 401.528777 118.817755 
L 404.944426 118.805897 
L 408.360074 118.848706 
L 411.775723 118.700483 
L 415.191372 118.701631 
L 418.60702 118.768854 
L 422.022669 118.651838 
" style="fill:none;stroke:#029e73;stroke-linecap:round;stroke-width:2.5;"/>
   </g>
   <g id="line2d_33"/>
   <g id="line2d_34"/>
   <g id="line2d_35"/>
   <g id="line2d_36">
    <path clip-path="url(#p8524e63b73)" d="M 83.87346 120.522128 
L 87.289109 119.569927 
L 90.704758 117.867098 
L 94.120406 116.322098 
L 97.536055 114.732346 
L 100.951703 113.200105 
L 104.367352 111.828034 
L 107.783 110.676956 
L 111.198649 109.647329 
L 114.614298 108.825658 
L 118.029946 108.004776 
L 121.445595 107.312605 
L 124.861243 106.724242 
L 128.276892 106.12267 
L 131.69254 105.562399 
L 135.108189 105.107345 
L 138.523838 104.651686 
L 141.939486 104.232284 
L 145.355135 103.829882 
L 148.770783 103.476464 
L 152.186432 103.100526 
L 155.60208 102.724852 
L 159.017729 102.350477 
L 162.433377 102.010909 
L 165.849026 101.714554 
L 169.264675 101.437835 
L 172.680323 101.140525 
L 176.095972 100.876203 
L 179.51162 100.600468 
L 182.927269 100.356786 
L 186.342917 100.078095 
L 189.758566 99.839075 
L 193.174215 99.596302 
L 196.589863 99.347236 
L 200.005512 99.101947 
L 203.42116 98.863461 
L 206.836809 98.609928 
L 210.252457 98.375063 
L 213.668106 98.148842 
L 217.083755 97.929503 
L 220.499403 97.72027 
L 223.915052 97.512438 
L 227.3307 97.322754 
L 230.746349 97.121435 
L 234.161997 96.928381 
L 237.577646 96.738498 
L 240.993295 96.55031 
L 244.408943 96.343521 
L 247.824592 96.161859 
L 251.24024 95.976128 
L 254.655889 95.800666 
L 258.071537 95.624407 
L 261.487186 95.470993 
L 264.902835 95.299416 
L 268.318483 95.149656 
L 271.734132 94.987609 
L 275.14978 94.855534 
L 278.565429 94.713798 
L 281.981077 94.599713 
L 285.396726 94.462716 
L 288.812375 94.326783 
L 292.228023 94.190055 
L 295.643672 94.068204 
L 299.05932 93.957387 
L 302.474969 93.846055 
L 305.890617 93.731011 
L 309.306266 93.61294 
L 312.721915 93.499991 
L 316.137563 93.390465 
L 319.553212 93.287005 
L 322.96886 93.200686 
L 326.384509 93.096301 
L 329.800157 92.990903 
L 333.215806 92.928193 
L 336.631455 92.814669 
L 340.047103 92.739076 
L 343.462752 92.657282 
L 346.8784 92.585544 
L 350.294049 92.498348 
L 353.709697 92.436929 
L 357.125346 92.34942 
L 360.540994 92.283451 
L 363.956643 92.200654 
L 367.372292 92.149766 
L 370.78794 92.078364 
L 374.203589 92.018286 
L 377.619237 91.957201 
L 381.034886 91.906156 
L 384.450534 91.843566 
L 387.866183 91.792709 
L 391.281832 91.738669 
L 394.69748 91.690528 
L 398.113129 91.656798 
L 401.528777 91.600561 
L 404.944426 91.555358 
L 408.360074 91.508173 
L 411.775723 91.462496 
L 415.191372 91.428808 
L 418.60702 91.374083 
L 422.022669 91.326648 
" style="fill:none;stroke:#0173b2;stroke-linecap:round;stroke-width:2.5;"/>
   </g>
   <g id="line2d_37">
    <path clip-path="url(#p8524e63b73)" d="M 83.87346 122.416168 
L 87.289109 122.223453 
L 90.704758 122.130875 
L 94.120406 121.989363 
L 97.536055 121.934714 
L 100.951703 121.869052 
L 104.367352 121.797815 
L 107.783 121.635086 
L 111.198649 121.659328 
L 114.614298 121.597991 
L 118.029946 121.566134 
L 121.445595 121.551316 
L 124.861243 121.444282 
L 128.276892 121.443606 
L 131.69254 121.440768 
L 135.108189 121.373962 
L 138.523838 121.424927 
L 141.939486 121.405254 
L 145.355135 121.38729 
L 148.770783 121.412598 
L 152.186432 121.410003 
L 155.60208 121.440033 
L 159.017729 121.406257 
L 162.433377 121.454672 
L 165.849026 121.329252 
L 169.264675 121.333774 
L 172.680323 121.231137 
L 176.095972 121.233595 
L 179.51162 121.226457 
L 182.927269 121.268853 
L 186.342917 121.251326 
L 189.758566 121.413561 
L 193.174215 121.437308 
L 196.589863 121.334591 
L 200.005512 121.331697 
L 203.42116 121.341071 
L 206.836809 121.360655 
L 210.252457 121.355712 
L 213.668106 121.358852 
L 217.083755 121.383925 
L 220.499403 121.386482 
L 223.915052 121.376625 
L 227.3307 121.368638 
L 230.746349 121.354343 
L 234.161997 121.396632 
L 237.577646 121.419057 
L 240.993295 121.341292 
L 244.408943 121.259568 
L 247.824592 121.184509 
L 251.24024 121.177102 
L 254.655889 121.121217 
L 258.071537 121.057885 
L 261.487186 121.104367 
L 264.902835 121.050314 
L 268.318483 120.938132 
L 271.734132 120.881473 
L 275.14978 120.827037 
L 278.565429 120.837174 
L 281.981077 120.812203 
L 285.396726 120.900059 
L 288.812375 120.801733 
L 292.228023 120.631169 
L 295.643672 120.604271 
L 299.05932 120.570795 
L 302.474969 120.645336 
L 305.890617 120.494065 
L 309.306266 120.501782 
L 312.721915 120.532862 
L 316.137563 120.568292 
L 319.553212 120.536518 
L 322.96886 120.493507 
L 326.384509 120.498987 
L 329.800157 120.500942 
L 333.215806 120.501733 
L 336.631455 120.405614 
L 340.047103 120.307368 
L 343.462752 120.336857 
L 346.8784 120.251718 
L 350.294049 120.279886 
L 353.709697 120.327026 
L 357.125346 120.314119 
L 360.540994 120.296877 
L 363.956643 120.353209 
L 367.372292 120.289502 
L 370.78794 120.261967 
L 374.203589 120.217498 
L 377.619237 120.240506 
L 381.034886 120.206634 
L 384.450534 120.204199 
L 387.866183 120.251652 
L 391.281832 120.240568 
L 394.69748 120.203654 
L 398.113129 120.197305 
L 401.528777 120.214005 
L 404.944426 120.23167 
L 408.360074 120.215786 
L 411.775723 120.177905 
L 415.191372 120.18901 
L 418.60702 120.147944 
L 422.022669 120.125355 
" style="fill:none;stroke:#de8f05;stroke-linecap:round;stroke-width:2.5;"/>
   </g>
   <g id="line2d_38">
    <path clip-path="url(#p8524e63b73)" d="M 83.87346 121.381688 
L 87.289109 120.964014 
L 90.704758 121.020649 
L 94.120406 120.817522 
L 97.536055 120.679239 
L 100.951703 120.736272 
L 104.367352 120.80886 
L 107.783 120.74857 
L 111.198649 120.783077 
L 114.614298 120.821927 
L 118.029946 120.748177 
L 121.445595 120.701167 
L 124.861243 120.58088 
L 128.276892 120.59407 
L 131.69254 120.578697 
L 135.108189 120.695444 
L 138.523838 120.596014 
L 141.939486 120.528185 
L 145.355135 120.563966 
L 148.770783 120.53314 
L 152.186432 120.451062 
L 155.60208 120.223066 
L 159.017729 120.231544 
L 162.433377 120.22278 
L 165.849026 120.094407 
L 169.264675 119.940801 
L 172.680323 119.945709 
L 176.095972 119.697334 
L 179.51162 119.840631 
L 182.927269 119.69157 
L 186.342917 119.765823 
L 189.758566 120.028434 
L 193.174215 119.88839 
L 196.589863 119.973764 
L 200.005512 120.059766 
L 203.42116 120.279517 
L 206.836809 119.982947 
L 210.252457 119.916166 
L 213.668106 119.892952 
L 217.083755 119.985772 
L 220.499403 120.052321 
L 223.915052 119.888933 
L 227.3307 120.026864 
L 230.746349 119.949121 
L 234.161997 119.833688 
L 237.577646 119.802433 
L 240.993295 119.823148 
L 244.408943 119.913655 
L 247.824592 119.871901 
L 251.24024 119.908843 
L 254.655889 119.916541 
L 258.071537 119.906193 
L 261.487186 119.875117 
L 264.902835 119.971559 
L 268.318483 119.809749 
L 271.734132 119.746104 
L 275.14978 119.714539 
L 278.565429 119.69634 
L 281.981077 119.730234 
L 285.396726 119.812189 
L 288.812375 119.778135 
L 292.228023 119.69771 
L 295.643672 119.685292 
L 299.05932 119.680288 
L 302.474969 119.572555 
L 305.890617 119.795925 
L 309.306266 119.844004 
L 312.721915 119.838756 
L 316.137563 119.685489 
L 319.553212 119.691727 
L 322.96886 119.677997 
L 326.384509 119.432833 
L 329.800157 119.479664 
L 333.215806 119.499323 
L 336.631455 119.485789 
L 340.047103 119.686468 
L 343.462752 119.519241 
L 346.8784 119.662863 
L 350.294049 119.44388 
L 353.709697 119.397276 
L 357.125346 119.379806 
L 360.540994 119.363519 
L 363.956643 119.408796 
L 367.372292 119.415241 
L 370.78794 119.366984 
L 374.203589 119.37603 
L 377.619237 119.380717 
L 381.034886 119.448728 
L 384.450534 119.519505 
L 387.866183 119.473295 
L 391.281832 119.491125 
L 394.69748 119.507589 
L 398.113129 119.749566 
L 401.528777 119.670108 
L 404.944426 119.592306 
L 408.360074 119.427669 
L 411.775723 119.353893 
L 415.191372 119.330526 
L 418.60702 119.480747 
L 422.022669 119.574236 
" style="fill:none;stroke:#029e73;stroke-linecap:round;stroke-width:2.5;"/>
   </g>
   <g id="line2d_39"/>
   <g id="line2d_40"/>
   <g id="line2d_41"/>
   <g id="patch_3">
    <path d="M 66.966 184.02 
L 66.966 40.416 
" style="fill:none;stroke:#cccccc;stroke-linecap:square;stroke-linejoin:miter;"/>
   </g>
   <g id="patch_4">
    <path d="M 438.930129 184.02 
L 438.930129 40.416 
" style="fill:none;stroke:#cccccc;stroke-linecap:square;stroke-linejoin:miter;"/>
   </g>
   <g id="patch_5">
    <path d="M 66.966 184.02 
L 438.930129 184.02 
" style="fill:none;stroke:#cccccc;stroke-linecap:square;stroke-linejoin:miter;"/>
   </g>
   <g id="patch_6">
    <path d="M 66.966 40.416 
L 438.930129 40.416 
" style="fill:none;stroke:#cccccc;stroke-linecap:square;stroke-linejoin:miter;"/>
   </g>
   <g id="text_12">
    <!-- Top 50 CCA on mfeat -->
    <g style="fill:#262626;" transform="translate(161.704565 34.416)scale(0.192 -0.192)">
     <defs>
      <path d="M 4.15625 18.75 
L 13.375 19.53125 
Q 14.40625 12.796875 18.140625 9.390625 
Q 21.875 6 27.15625 6 
Q 33.5 6 37.890625 10.78125 
Q 42.28125 15.578125 42.28125 23.484375 
Q 42.28125 31 38.0625 35.34375 
Q 33.84375 39.703125 27 39.703125 
Q 22.75 39.703125 19.328125 37.765625 
Q 15.921875 35.84375 13.96875 32.765625 
L 5.71875 33.84375 
L 12.640625 70.609375 
L 48.25 70.609375 
L 48.25 62.203125 
L 19.671875 62.203125 
L 15.828125 42.96875 
Q 22.265625 47.46875 29.34375 47.46875 
Q 38.71875 47.46875 45.15625 40.96875 
Q 51.609375 34.46875 51.609375 24.265625 
Q 51.609375 14.546875 45.953125 7.46875 
Q 39.0625 -1.21875 27.15625 -1.21875 
Q 17.390625 -1.21875 11.203125 4.25 
Q 5.03125 9.71875 4.15625 18.75 
z
" id="ArialMT-53"/>
      <path d="M -0.140625 0 
L 27.34375 71.578125 
L 37.546875 71.578125 
L 66.84375 0 
L 56.0625 0 
L 47.703125 21.6875 
L 17.78125 21.6875 
L 9.90625 0 
z
M 20.515625 29.390625 
L 44.78125 29.390625 
L 37.3125 49.21875 
Q 33.890625 58.25 32.234375 64.0625 
Q 30.859375 57.171875 28.375 50.390625 
z
" id="ArialMT-65"/>
      <path d="M 6.59375 0 
L 6.59375 51.859375 
L 14.453125 51.859375 
L 14.453125 44.578125 
Q 16.890625 48.390625 20.9375 50.703125 
Q 25 53.03125 30.171875 53.03125 
Q 35.9375 53.03125 39.625 50.640625 
Q 43.3125 48.25 44.828125 43.953125 
Q 50.984375 53.03125 60.84375 53.03125 
Q 68.5625 53.03125 72.703125 48.75 
Q 76.859375 44.484375 76.859375 35.59375 
L 76.859375 0 
L 68.109375 0 
L 68.109375 32.671875 
Q 68.109375 37.9375 67.25 40.25 
Q 66.40625 42.578125 64.15625 43.984375 
Q 61.921875 45.40625 58.890625 45.40625 
Q 53.421875 45.40625 49.796875 41.765625 
Q 46.1875 38.140625 46.1875 30.125 
L 46.1875 0 
L 37.40625 0 
L 37.40625 33.6875 
Q 37.40625 39.546875 35.25 42.46875 
Q 33.109375 45.40625 28.21875 45.40625 
Q 24.515625 45.40625 21.359375 43.453125 
Q 18.21875 41.5 16.796875 37.734375 
Q 15.375 33.984375 15.375 26.90625 
L 15.375 0 
z
" id="ArialMT-109"/>
      <path d="M 8.6875 0 
L 8.6875 45.015625 
L 0.921875 45.015625 
L 0.921875 51.859375 
L 8.6875 51.859375 
L 8.6875 57.375 
Q 8.6875 62.59375 9.625 65.140625 
Q 10.890625 68.5625 14.078125 70.671875 
Q 17.28125 72.796875 23.046875 72.796875 
Q 26.765625 72.796875 31.25 71.921875 
L 29.9375 64.265625 
Q 27.203125 64.75 24.75 64.75 
Q 20.75 64.75 19.09375 63.03125 
Q 17.4375 61.328125 17.4375 56.640625 
L 17.4375 51.859375 
L 27.546875 51.859375 
L 27.546875 45.015625 
L 17.4375 45.015625 
L 17.4375 0 
z
" id="ArialMT-102"/>
     </defs>
     <use xlink:href="#ArialMT-84"/>
     <use x="49.958984" xlink:href="#ArialMT-111"/>
     <use x="105.574219" xlink:href="#ArialMT-112"/>
     <use x="161.189453" xlink:href="#ArialMT-32"/>
     <use x="188.972656" xlink:href="#ArialMT-53"/>
     <use x="244.587891" xlink:href="#ArialMT-48"/>
     <use x="300.203125" xlink:href="#ArialMT-32"/>
     <use x="327.986328" xlink:href="#ArialMT-67"/>
     <use x="400.203125" xlink:href="#ArialMT-67"/>
     <use x="472.419922" xlink:href="#ArialMT-65"/>
     <use x="533.619141" xlink:href="#ArialMT-32"/>
     <use x="561.402344" xlink:href="#ArialMT-111"/>
     <use x="617.017578" xlink:href="#ArialMT-110"/>
     <use x="672.632812" xlink:href="#ArialMT-32"/>
     <use x="700.416016" xlink:href="#ArialMT-109"/>
     <use x="783.716797" xlink:href="#ArialMT-102"/>
     <use x="811.5" xlink:href="#ArialMT-101"/>
     <use x="867.115234" xlink:href="#ArialMT-97"/>
     <use x="922.730469" xlink:href="#ArialMT-116"/>
    </g>
   </g>
   <g id="legend_1">
    <g id="patch_7">
     <path d="M 291.079129 556.80075 
L 426.610129 556.80075 
Q 430.130129 556.80075 430.130129 553.28075 
L 430.130129 52.736 
Q 430.130129 49.216 426.610129 49.216 
L 291.079129 49.216 
Q 287.559129 49.216 287.559129 52.736 
L 287.559129 553.28075 
Q 287.559129 556.80075 291.079129 556.80075 
z
" style="fill:#ffffff;opacity:0.8;stroke:#cccccc;stroke-linejoin:miter;stroke-width:0.8;"/>
    </g>
    <g id="text_13">
     <!-- model -->
     <g style="fill:#262626;" transform="translate(332.699629 69.999)scale(0.192 -0.192)">
      <use xlink:href="#ArialMT-109"/>
      <use x="83.300781" xlink:href="#ArialMT-111"/>
      <use x="138.916016" xlink:href="#ArialMT-100"/>
      <use x="194.53125" xlink:href="#ArialMT-101"/>
      <use x="250.146484" xlink:href="#ArialMT-108"/>
     </g>
    </g>
    <g id="text_14">
     <!-- model -->
     <g style="fill:#262626;" transform="translate(308.679129 96.358)scale(0.192 -0.192)">
      <use xlink:href="#ArialMT-109"/>
      <use x="83.300781" xlink:href="#ArialMT-111"/>
      <use x="138.916016" xlink:href="#ArialMT-100"/>
      <use x="194.53125" xlink:href="#ArialMT-101"/>
      <use x="250.146484" xlink:href="#ArialMT-108"/>
     </g>
    </g>
    <g id="line2d_42">
     <path d="M 294.599129 115.41175 
L 329.799129 115.41175 
" style="fill:none;stroke:#0173b2;stroke-linecap:round;stroke-width:2.5;"/>
    </g>
    <g id="line2d_43"/>
    <g id="text_15">
     <!-- DCCA-EY -->
     <g style="fill:#262626;" transform="translate(343.879129 121.57175)scale(0.176 -0.176)">
      <defs>
       <path d="M 7.71875 0 
L 7.71875 71.578125 
L 32.375 71.578125 
Q 40.71875 71.578125 45.125 70.5625 
Q 51.265625 69.140625 55.609375 65.4375 
Q 61.28125 60.640625 64.078125 53.1875 
Q 66.890625 45.75 66.890625 36.1875 
Q 66.890625 28.03125 64.984375 21.734375 
Q 63.09375 15.4375 60.109375 11.296875 
Q 57.125 7.171875 53.578125 4.796875 
Q 50.046875 2.4375 45.046875 1.21875 
Q 40.046875 0 33.546875 0 
z
M 17.1875 8.453125 
L 32.46875 8.453125 
Q 39.546875 8.453125 43.578125 9.765625 
Q 47.609375 11.078125 50 13.484375 
Q 53.375 16.84375 55.25 22.53125 
Q 57.125 28.21875 57.125 36.328125 
Q 57.125 47.5625 53.4375 53.59375 
Q 49.75 59.625 44.484375 61.671875 
Q 40.671875 63.140625 32.234375 63.140625 
L 17.1875 63.140625 
z
" id="ArialMT-68"/>
       <path d="M 3.171875 21.484375 
L 3.171875 30.328125 
L 30.171875 30.328125 
L 30.171875 21.484375 
z
" id="ArialMT-45"/>
       <path d="M 7.90625 0 
L 7.90625 71.578125 
L 59.671875 71.578125 
L 59.671875 63.140625 
L 17.390625 63.140625 
L 17.390625 41.21875 
L 56.984375 41.21875 
L 56.984375 32.8125 
L 17.390625 32.8125 
L 17.390625 8.453125 
L 61.328125 8.453125 
L 61.328125 0 
z
" id="ArialMT-69"/>
       <path d="M 27.875 0 
L 27.875 30.328125 
L 0.296875 71.578125 
L 11.8125 71.578125 
L 25.921875 50 
Q 29.828125 43.953125 33.203125 37.890625 
Q 36.421875 43.5 41.015625 50.53125 
L 54.890625 71.578125 
L 65.921875 71.578125 
L 37.359375 30.328125 
L 37.359375 0 
z
" id="ArialMT-89"/>
      </defs>
      <use xlink:href="#ArialMT-68"/>
      <use x="72.216797" xlink:href="#ArialMT-67"/>
      <use x="144.433594" xlink:href="#ArialMT-67"/>
      <use x="216.650391" xlink:href="#ArialMT-65"/>
      <use x="283.349609" xlink:href="#ArialMT-45"/>
      <use x="316.650391" xlink:href="#ArialMT-69"/>
      <use x="383.349609" xlink:href="#ArialMT-89"/>
     </g>
    </g>
    <g id="line2d_44">
     <path d="M 294.599129 140.3075 
L 329.799129 140.3075 
" style="fill:none;stroke:#de8f05;stroke-linecap:round;stroke-width:2.5;"/>
    </g>
    <g id="line2d_45"/>
    <g id="text_16">
     <!-- DMCCA -->
     <g style="fill:#262626;" transform="translate(343.879129 146.4675)scale(0.176 -0.176)">
      <use xlink:href="#ArialMT-68"/>
      <use x="72.216797" xlink:href="#ArialMT-77"/>
      <use x="155.517578" xlink:href="#ArialMT-67"/>
      <use x="227.734375" xlink:href="#ArialMT-67"/>
      <use x="299.951172" xlink:href="#ArialMT-65"/>
     </g>
    </g>
    <g id="line2d_46">
     <path d="M 294.599129 165.20325 
L 329.799129 165.20325 
" style="fill:none;stroke:#029e73;stroke-linecap:round;stroke-width:2.5;"/>
    </g>
    <g id="line2d_47"/>
    <g id="text_17">
     <!-- DGCCA -->
     <g style="fill:#262626;" transform="translate(343.879129 171.36325)scale(0.176 -0.176)">
      <defs>
       <path d="M 41.21875 28.078125 
L 41.21875 36.46875 
L 71.53125 36.53125 
L 71.53125 9.96875 
Q 64.546875 4.390625 57.125 1.578125 
Q 49.703125 -1.21875 41.890625 -1.21875 
Q 31.34375 -1.21875 22.71875 3.296875 
Q 14.109375 7.8125 9.71875 16.359375 
Q 5.328125 24.90625 5.328125 35.453125 
Q 5.328125 45.90625 9.6875 54.953125 
Q 14.0625 64.015625 22.265625 68.40625 
Q 30.46875 72.796875 41.15625 72.796875 
Q 48.921875 72.796875 55.1875 70.28125 
Q 61.46875 67.78125 65.03125 63.28125 
Q 68.609375 58.796875 70.453125 51.5625 
L 61.921875 49.21875 
Q 60.296875 54.6875 57.90625 57.8125 
Q 55.515625 60.9375 51.0625 62.8125 
Q 46.625 64.703125 41.21875 64.703125 
Q 34.71875 64.703125 29.984375 62.71875 
Q 25.25 60.75 22.34375 57.515625 
Q 19.4375 54.296875 17.828125 50.4375 
Q 15.09375 43.796875 15.09375 36.03125 
Q 15.09375 26.46875 18.390625 20.015625 
Q 21.6875 13.578125 27.984375 10.453125 
Q 34.28125 7.328125 41.359375 7.328125 
Q 47.515625 7.328125 53.375 9.6875 
Q 59.234375 12.0625 62.25 14.75 
L 62.25 28.078125 
z
" id="ArialMT-71"/>
      </defs>
      <use xlink:href="#ArialMT-68"/>
      <use x="72.216797" xlink:href="#ArialMT-71"/>
      <use x="150" xlink:href="#ArialMT-67"/>
      <use x="222.216797" xlink:href="#ArialMT-67"/>
      <use x="294.433594" xlink:href="#ArialMT-65"/>
     </g>
    </g>
    <g id="text_18">
     <!-- batch size -->
     <g style="fill:#262626;" transform="translate(308.679129 197.40425)scale(0.192 -0.192)">
      <defs>
       <path d="M 14.703125 0 
L 6.546875 0 
L 6.546875 71.578125 
L 15.328125 71.578125 
L 15.328125 46.046875 
Q 20.90625 53.03125 29.546875 53.03125 
Q 34.328125 53.03125 38.59375 51.09375 
Q 42.875 49.171875 45.625 45.671875 
Q 48.390625 42.1875 49.953125 37.25 
Q 51.515625 32.328125 51.515625 26.703125 
Q 51.515625 13.375 44.921875 6.09375 
Q 38.328125 -1.171875 29.109375 -1.171875 
Q 19.921875 -1.171875 14.703125 6.5 
z
M 14.59375 26.3125 
Q 14.59375 17 17.140625 12.84375 
Q 21.296875 6.0625 28.375 6.0625 
Q 34.125 6.0625 38.328125 11.0625 
Q 42.53125 16.0625 42.53125 25.984375 
Q 42.53125 36.140625 38.5 40.96875 
Q 34.46875 45.796875 28.765625 45.796875 
Q 23 45.796875 18.796875 40.796875 
Q 14.59375 35.796875 14.59375 26.3125 
z
" id="ArialMT-98"/>
       <path d="M 3.078125 15.484375 
L 11.765625 16.84375 
Q 12.5 11.625 15.84375 8.84375 
Q 19.1875 6.0625 25.203125 6.0625 
Q 31.25 6.0625 34.171875 8.515625 
Q 37.109375 10.984375 37.109375 14.3125 
Q 37.109375 17.28125 34.515625 19 
Q 32.71875 20.171875 25.53125 21.96875 
Q 15.875 24.421875 12.140625 26.203125 
Q 8.40625 27.984375 6.46875 31.125 
Q 4.546875 34.28125 4.546875 38.09375 
Q 4.546875 41.546875 6.125 44.5 
Q 7.71875 47.46875 10.453125 49.421875 
Q 12.5 50.921875 16.03125 51.96875 
Q 19.578125 53.03125 23.640625 53.03125 
Q 29.734375 53.03125 34.34375 51.265625 
Q 38.96875 49.515625 41.15625 46.5 
Q 43.359375 43.5 44.1875 38.484375 
L 35.59375 37.3125 
Q 35.015625 41.3125 32.203125 43.546875 
Q 29.390625 45.796875 24.265625 45.796875 
Q 18.21875 45.796875 15.625 43.796875 
Q 13.03125 41.796875 13.03125 39.109375 
Q 13.03125 37.40625 14.109375 36.03125 
Q 15.1875 34.625 17.484375 33.6875 
Q 18.796875 33.203125 25.25 31.453125 
Q 34.578125 28.953125 38.25 27.359375 
Q 41.9375 25.78125 44.03125 22.75 
Q 46.140625 19.734375 46.140625 15.234375 
Q 46.140625 10.84375 43.578125 6.953125 
Q 41.015625 3.078125 36.171875 0.953125 
Q 31.34375 -1.171875 25.25 -1.171875 
Q 15.140625 -1.171875 9.84375 3.03125 
Q 4.546875 7.234375 3.078125 15.484375 
z
" id="ArialMT-115"/>
       <path d="M 1.953125 0 
L 1.953125 7.125 
L 34.96875 45.015625 
Q 29.34375 44.734375 25.046875 44.734375 
L 3.90625 44.734375 
L 3.90625 51.859375 
L 46.296875 51.859375 
L 46.296875 46.046875 
L 18.21875 13.140625 
L 12.796875 7.125 
Q 18.703125 7.5625 23.875 7.5625 
L 47.859375 7.5625 
L 47.859375 0 
z
" id="ArialMT-122"/>
      </defs>
      <use xlink:href="#ArialMT-98"/>
      <use x="55.615234" xlink:href="#ArialMT-97"/>
      <use x="111.230469" xlink:href="#ArialMT-116"/>
      <use x="139.013672" xlink:href="#ArialMT-99"/>
      <use x="189.013672" xlink:href="#ArialMT-104"/>
      <use x="244.628906" xlink:href="#ArialMT-32"/>
      <use x="272.412109" xlink:href="#ArialMT-115"/>
      <use x="322.412109" xlink:href="#ArialMT-105"/>
      <use x="344.628906" xlink:href="#ArialMT-122"/>
      <use x="394.628906" xlink:href="#ArialMT-101"/>
     </g>
    </g>
    <g id="line2d_48">
     <path d="M 294.599129 216.458 
L 329.799129 216.458 
" style="fill:none;stroke:#333333;stroke-linecap:round;stroke-width:2.5;"/>
    </g>
    <g id="line2d_49"/>
    <g id="text_19">
     <!-- 50 -->
     <g style="fill:#262626;" transform="translate(343.879129 222.618)scale(0.176 -0.176)">
      <use xlink:href="#ArialMT-53"/>
      <use x="55.615234" xlink:href="#ArialMT-48"/>
     </g>
    </g>
    <g id="line2d_50">
     <path d="M 294.599129 241.35375 
L 329.799129 241.35375 
" style="fill:none;stroke:#333333;stroke-dasharray:10,3.75;stroke-dashoffset:0;stroke-width:2.5;"/>
    </g>
    <g id="line2d_51"/>
    <g id="text_20">
     <!-- 100 -->
     <g style="fill:#262626;" transform="translate(343.879129 247.51375)scale(0.176 -0.176)">
      <use xlink:href="#ArialMT-49"/>
      <use x="55.615234" xlink:href="#ArialMT-48"/>
      <use x="111.230469" xlink:href="#ArialMT-48"/>
     </g>
    </g>
    <g id="line2d_52">
     <path d="M 294.599129 266.2495 
L 329.799129 266.2495 
" style="fill:none;stroke:#0173b2;stroke-linecap:round;stroke-width:2.5;"/>
    </g>
    <g id="line2d_53"/>
    <g id="text_21">
     <!-- DCCA-EY -->
     <g style="fill:#262626;" transform="translate(343.879129 272.4095)scale(0.176 -0.176)">
      <use xlink:href="#ArialMT-68"/>
      <use x="72.216797" xlink:href="#ArialMT-67"/>
      <use x="144.433594" xlink:href="#ArialMT-67"/>
      <use x="216.650391" xlink:href="#ArialMT-65"/>
      <use x="283.349609" xlink:href="#ArialMT-45"/>
      <use x="316.650391" xlink:href="#ArialMT-69"/>
      <use x="383.349609" xlink:href="#ArialMT-89"/>
     </g>
    </g>
    <g id="line2d_54">
     <path d="M 294.599129 291.14525 
L 329.799129 291.14525 
" style="fill:none;stroke:#de8f05;stroke-linecap:round;stroke-width:2.5;"/>
    </g>
    <g id="line2d_55"/>
    <g id="text_22">
     <!-- DMCCA -->
     <g style="fill:#262626;" transform="translate(343.879129 297.30525)scale(0.176 -0.176)">
      <use xlink:href="#ArialMT-68"/>
      <use x="72.216797" xlink:href="#ArialMT-77"/>
      <use x="155.517578" xlink:href="#ArialMT-67"/>
      <use x="227.734375" xlink:href="#ArialMT-67"/>
      <use x="299.951172" xlink:href="#ArialMT-65"/>
     </g>
    </g>
    <g id="line2d_56">
     <path d="M 294.599129 316.041 
L 329.799129 316.041 
" style="fill:none;stroke:#029e73;stroke-linecap:round;stroke-width:2.5;"/>
    </g>
    <g id="line2d_57"/>
    <g id="text_23">
     <!-- DGCCA -->
     <g style="fill:#262626;" transform="translate(343.879129 322.201)scale(0.176 -0.176)">
      <use xlink:href="#ArialMT-68"/>
      <use x="72.216797" xlink:href="#ArialMT-71"/>
      <use x="150" xlink:href="#ArialMT-67"/>
      <use x="222.216797" xlink:href="#ArialMT-67"/>
      <use x="294.433594" xlink:href="#ArialMT-65"/>
     </g>
    </g>
    <g id="line2d_58">
     <path d="M 294.599129 340.93675 
L 329.799129 340.93675 
" style="fill:none;stroke:#0173b2;stroke-linecap:round;stroke-width:2.5;"/>
    </g>
    <g id="line2d_59"/>
    <g id="text_24">
     <!-- DCCA-EY -->
     <g style="fill:#262626;" transform="translate(343.879129 347.09675)scale(0.176 -0.176)">
      <use xlink:href="#ArialMT-68"/>
      <use x="72.216797" xlink:href="#ArialMT-67"/>
      <use x="144.433594" xlink:href="#ArialMT-67"/>
      <use x="216.650391" xlink:href="#ArialMT-65"/>
      <use x="283.349609" xlink:href="#ArialMT-45"/>
      <use x="316.650391" xlink:href="#ArialMT-69"/>
      <use x="383.349609" xlink:href="#ArialMT-89"/>
     </g>
    </g>
    <g id="line2d_60">
     <path style="fill:none;stroke:#de8f05;stroke-linecap:round;stroke-width:2.5;"/>
    </g>
    <g id="line2d_61"/>
    <g id="text_25">
     <!-- DMCCA -->
     <g style="fill:#262626;" transform="translate(343.879129 371.9925)scale(0.176 -0.176)">
      <use xlink:href="#ArialMT-68"/>
      <use x="72.216797" xlink:href="#ArialMT-77"/>
      <use x="155.517578" xlink:href="#ArialMT-67"/>
      <use x="227.734375" xlink:href="#ArialMT-67"/>
      <use x="299.951172" xlink:href="#ArialMT-65"/>
     </g>
    </g>
    <g id="line2d_62">
     <path style="fill:none;stroke:#029e73;stroke-linecap:round;stroke-width:2.5;"/>
    </g>
    <g id="line2d_63"/>
    <g id="text_26">
     <!-- DGCCA -->
     <g style="fill:#262626;" transform="translate(343.879129 396.88825)scale(0.176 -0.176)">
      <use xlink:href="#ArialMT-68"/>
      <use x="72.216797" xlink:href="#ArialMT-71"/>
      <use x="150" xlink:href="#ArialMT-67"/>
      <use x="222.216797" xlink:href="#ArialMT-67"/>
      <use x="294.433594" xlink:href="#ArialMT-65"/>
     </g>
    </g>
    <g id="line2d_64">
     <path style="fill:none;stroke:#0173b2;stroke-linecap:round;stroke-width:2.5;"/>
    </g>
    <g id="line2d_65"/>
    <g id="text_27">
     <!-- DCCA-EY -->
     <g style="fill:#262626;" transform="translate(343.879129 421.784)scale(0.176 -0.176)">
      <use xlink:href="#ArialMT-68"/>
      <use x="72.216797" xlink:href="#ArialMT-67"/>
      <use x="144.433594" xlink:href="#ArialMT-67"/>
      <use x="216.650391" xlink:href="#ArialMT-65"/>
      <use x="283.349609" xlink:href="#ArialMT-45"/>
      <use x="316.650391" xlink:href="#ArialMT-69"/>
      <use x="383.349609" xlink:href="#ArialMT-89"/>
     </g>
    </g>
    <g id="line2d_66">
     <path style="fill:none;stroke:#de8f05;stroke-linecap:round;stroke-width:2.5;"/>
    </g>
    <g id="line2d_67"/>
    <g id="text_28">
     <!-- DMCCA -->
     <g style="fill:#262626;" transform="translate(343.879129 446.67975)scale(0.176 -0.176)">
      <use xlink:href="#ArialMT-68"/>
      <use x="72.216797" xlink:href="#ArialMT-77"/>
      <use x="155.517578" xlink:href="#ArialMT-67"/>
      <use x="227.734375" xlink:href="#ArialMT-67"/>
      <use x="299.951172" xlink:href="#ArialMT-65"/>
     </g>
    </g>
    <g id="line2d_68">
     <path style="fill:none;stroke:#029e73;stroke-linecap:round;stroke-width:2.5;"/>
    </g>
    <g id="line2d_69"/>
    <g id="text_29">
     <!-- DGCCA -->
     <g style="fill:#262626;" transform="translate(343.879129 471.5755)scale(0.176 -0.176)">
      <use xlink:href="#ArialMT-68"/>
      <use x="72.216797" xlink:href="#ArialMT-71"/>
      <use x="150" xlink:href="#ArialMT-67"/>
      <use x="222.216797" xlink:href="#ArialMT-67"/>
      <use x="294.433594" xlink:href="#ArialMT-65"/>
     </g>
    </g>
    <g id="line2d_70">
     <path style="fill:none;stroke:#0173b2;stroke-linecap:round;stroke-width:2.5;"/>
    </g>
    <g id="line2d_71"/>
    <g id="text_30">
     <!-- DCCA-EY -->
     <g style="fill:#262626;" transform="translate(343.879129 496.47125)scale(0.176 -0.176)">
      <use xlink:href="#ArialMT-68"/>
      <use x="72.216797" xlink:href="#ArialMT-67"/>
      <use x="144.433594" xlink:href="#ArialMT-67"/>
      <use x="216.650391" xlink:href="#ArialMT-65"/>
      <use x="283.349609" xlink:href="#ArialMT-45"/>
      <use x="316.650391" xlink:href="#ArialMT-69"/>
      <use x="383.349609" xlink:href="#ArialMT-89"/>
     </g>
    </g>
    <g id="line2d_72">
     <path style="fill:none;stroke:#de8f05;stroke-linecap:round;stroke-width:2.5;"/>
    </g>
    <g id="line2d_73"/>
    <g id="text_31">
     <!-- DMCCA -->
     <g style="fill:#262626;" transform="translate(343.879129 521.367)scale(0.176 -0.176)">
      <use xlink:href="#ArialMT-68"/>
      <use x="72.216797" xlink:href="#ArialMT-77"/>
      <use x="155.517578" xlink:href="#ArialMT-67"/>
      <use x="227.734375" xlink:href="#ArialMT-67"/>
      <use x="299.951172" xlink:href="#ArialMT-65"/>
     </g>
    </g>
    <g id="line2d_74">
     <path style="fill:none;stroke:#029e73;stroke-linecap:round;stroke-width:2.5;"/>
    </g>
    <g id="line2d_75"/>
    <g id="text_32">
     <!-- DGCCA -->
     <g style="fill:#262626;" transform="translate(343.879129 546.26275)scale(0.176 -0.176)">
      <use xlink:href="#ArialMT-68"/>
      <use x="72.216797" xlink:href="#ArialMT-71"/>
      <use x="150" xlink:href="#ArialMT-67"/>
      <use x="222.216797" xlink:href="#ArialMT-67"/>
      <use x="294.433594" xlink:href="#ArialMT-65"/>
     </g>
    </g>
   </g>
  </g>
 </g>
 <defs>
  <clipPath id="p8524e63b73">
   <rect height="143.604" width="371.964129" x="66.966" y="40.416"/>
  </clipPath>
 </defs>
</svg>
